0
SECTION
2
HEADER
9
$INSUNITS
70
4
9
$ACADVER
1
AC1014
9
$HANDSEED
5
FFFF
0
ENDSEC
0
SECTION
2
TABLES
0
TABLE
2
VPORT
5
8
100
AcDbSymbolTable
0
ENDTAB
0
TABLE
2
LTYPE
5
5
100
AcDbSymbolTable
0
LTYPE
5
14
100
AcDbSymbolTableRecord
100
AcDbLinetypeTableRecord
2
BYBLOCK
70
0
0
LTYPE
5
15
100
AcDbSymbolTableRecord
100
AcDbLinetypeTableRecord
2
BYLAYER
70
0
0
ENDTAB
0
TABLE
2
LAYER
5
2
100
AcDbSymbolTable
70
2
0
LAYER
5
50
100
AcDbSymbolTableRecord
100
AcDbLayerTableRecord
2
0
70
0
6
CONTINUOUS
0
ENDTAB
0
TABLE
2
STYLE
5
3
100
AcDbSymbolTable
70
1
0
STYLE
5
11
100
AcDbSymbolTableRecord
100
AcDbTextStyleTableRecord
2
STANDARD
70
0
0
ENDTAB
0
TABLE
2
VIEW
5
6
100
AcDbSymbolTable
70
0
0
ENDTAB
0
TABLE
2
UCS
5
7
100
AcDbSymbolTable
70
0
0
ENDTAB
0
TABLE
2
APPID
5
9
100
AcDbSymbolTable
70
2
0
APPID
5
12
100
AcDbSymbolTableRecord
100
AcDbRegAppTableRecord
2
ACAD
70
0
0
ENDTAB
0
TABLE
2
DIMSTYLE
5
A
100
AcDbSymbolTable
70
1
0
ENDTAB
0
TABLE
2
BLOCK_RECORD
5
1
100
AcDbSymbolTable
70
1
0
BLOCK_RECORD
5
1F
100
AcDbSymbolTableRecord
100
AcDbBlockTableRecord
2
*MODEL_SPACE
0
BLOCK_RECORD
5
1B
100
AcDbSymbolTableRecord
100
AcDbBlockTableRecord
2
*PAPER_SPACE
0
ENDTAB
0
ENDSEC
0
SECTION
2
BLOCKS
0
BLOCK
5
20
100
AcDbEntity
100
AcDbBlockBegin
2
*MODEL_SPACE
0
ENDBLK
5
21
100
AcDbEntity
100
AcDbBlockEnd
0
BLOCK
5
1C
100
AcDbEntity
100
AcDbBlockBegin
2
*PAPER_SPACE
0
ENDBLK
5
1D
100
AcDbEntity
100
AcDbBlockEnd
0
ENDSEC
0
SECTION
2
ENTITIES
0
LWPOLYLINE
5
100
100
AcDbEntity
8
0
100
AcDbPolyline
90
8
70
1
43
0.0
10
-9.4665731256077823
20
5.0027014061027497
10
-9.4665731256077823
20
-3.8172166303581263
10
-12.774895555264765
20
-3.8172166303581263
10
-12.774895555264765
20
-4.9972985938972494
10
-4.8485649888585147
20
-4.9972985938972494
10
-4.8485649888585147
20
-3.8172166303581263
10
-8.1432451074193057
20
-3.8172166303581267
10
-8.1432451074193057
20
5.0027014061027497
0
SPLINE
5
101
100
AcDbEntity
8
0
100
AcDbSpline
70
0
71
3
72
9
73
5
74
0
42
0.000000001
43
0.0000000001
44
0.0000000001
40
0
40
0
40
0
40
0
40
0.095679035220574665
40
0.18885770354576681
40
0.18885770354576681
40
0.18885770354576681
40
0.18885770354576681
10
2.1807657415797177
20
4.777599696736905
30
0
10
2.468913680432272
20
4.6308893889717044
30
0
10
3.037679428202249
20
4.3413027334713261
30
0
10
3.4276521340924382
20
3.8363962904999238
30
0
10
3.6200569803645077
20
3.5872854038291901
30
0
0
SPLINE
5
102
100
AcDbEntity
8
0
100
AcDbSpline
70
0
71
3
72
9
73
5
74
0
42
0.000000001
43
0.0000000001
44
0.0000000001
40
0
40
0
40
0
40
0
40
0.093565114453726575
40
0.18982722437090263
40
0.18982722437090263
40
0.18982722437090263
40
0.18982722437090263
10
3.6200569803645077
20
3.5872854038291901
30
0
10
3.7734483501610772
20
3.3114124981159687
30
0
10
4.0846525649043208
20
2.7517147060871294
30
0
10
4.1407320260251108
20
2.1135123756464602
30
0
10
4.1691701347758237
20
1.7898775383048982
30
0
0
LINE
5
103
100
AcDbEntity
8
0
100
AcDbLine
10
4.1691701347758237
20
1.7898775383048982
30
0
11
2.9208754236628476
21
1.6807372613960236
31
0
0
SPLINE
5
104
100
AcDbEntity
8
0
100
AcDbSpline
70
0
71
3
72
9
73
5
74
0
42
0.000000001
43
0.0000000001
44
0.0000000001
40
0
40
0
40
0
40
0
40
0.069872952899511273
40
0.13077519918952474
40
0.13077519918952474
40
0.13077519918952474
40
0.13077519918952474
10
2.9208754236628476
20
1.6807372613960236
30
0
10
2.8856621209387523
20
1.9132033133523463
30
0
10
2.8197564094041705
20
2.3482900384419803
30
0
10
2.6071838056651098
20
2.7328764825180607
30
0
10
2.5081883604456845
20
2.9119790836387605
30
0
0
SPLINE
5
105
100
AcDbEntity
8
0
100
AcDbSpline
70
0
71
3
72
9
73
5
74
0
42
0.000000001
43
0.0000000001
44
0.0000000001
40
0
40
0
40
0
40
0
40
0.060009660119666595
40
0.128468734645557
40
0.128468734645557
40
0.128468734645557
40
0.128468734645557
10
2.5081883604456845
20
2.9119790836387605
30
0
10
2.3785874774803561
20
3.0673940037742331
30
0
10
2.1011377900416828
20
3.4001064053280805
30
0
10
1.7103133594477304
20
3.5889651240166032
30
0
10
1.5020488436152402
20
3.6896051212364167
30
0
0
SPLINE
5
106
100
AcDbEntity
8
0
100
AcDbSpline
70
0
71
3
72
9
73
5
74
0
42
0.000000001
43
0.0000000001
44
0.0000000001
40
0
40
0
40
0
40
0
40
0.075815882984513541
40
0.15715756003486434
40
0.15715756003486434
40
0.15715756003486434
40
0.15715756003486434
10
1.5020488436152402
20
3.6896051212364167
30
0
10
1.2628929126366462
20
3.7761202459971721
30
0
10
0.76715031753767704
20
3.9554560972499986
30
0
10
0.24006781952238931
20
3.9758003624685778
30
0
10
-0.032739764935785232
20
3.9863301559501618
30
0
0
SPLINE
5
107
100
AcDbEntity
8
0
100
AcDbSpline
70
0
71
3
72
9
73
5
74
0
42
0.000000001
43
0.0000000001
44
0.0000000001
40
0
40
0
40
0
40
0
40
0.071504297506375894
40
0.13616195130831069
40
0.13616195130831069
40
0.13616195130831069
40
0.13616195130831069
10
-0.032739764935785232
20
3.9863301559501618
30
0
10
-0.27232503963405819
20
3.9789873601700521
30
0
10
-0.72855493972846075
20
3.9650048523160475
30
0
10
-1.1632789259487275
20
3.8268380980303074
30
0
10
-1.3697112863133487
20
3.7612284465843171
30
0
0
SPLINE
5
108
100
AcDbEntity
8
0
100
AcDbSpline
70
0
71
3
72
9
73
5
74
0
42
0.000000001
43
0.0000000001
44
0.0000000001
40
0
40
0
40
0
40
0
40
0.057173927292564479
40
0.10721872219586599
40
0.10721872219586599
40
0.10721872219586599
40
0.10721872219586599
10
-1.3697112863133487
20
3.7612284465843171
30
0
10
-1.5469162411047943
20
3.6841304522096197
30
0
10
-1.8792301072188344
20
3.5395479679870578
30
0
10
-2.1201517556141569
20
3.2698054273895294
30
0
10
-2.2326029603550968
20
3.1439019485527009
30
0
0
SPLINE
5
109
100
AcDbEntity
8
0
100
AcDbSpline
70
0
71
3
72
9
73
5
74
0
42
0.000000001
43
0.0000000001
44
0.0000000001
40
0
40
0
40
0
40
0
40
0.046182512042004888
40
0.091334756652101931
40
0.091334756652101931
40
0.091334756652101931
40
0.091334756652101931
10
-2.2326029603550968
20
3.1439019485527009
30
0
10
-2.315166066530232
20
3.0110679164197518
30
0
10
-2.4784504111342898
20
2.748363194144241
30
0
10
-2.5033684138131473
20
2.4401832486966879
30
0
10
-2.515686876065546
20
2.2878314300590485
30
0
0
SPLINE
5
110
100
AcDbEntity
8
0
100
AcDbSpline
70
0
71
3
72
9
73
5
74
0
42
0.000000001
43
0.0000000001
44
0.0000000001
40
0
40
0
40
0
40
0
40
0.044607158279596638
40
0.087867317973466433
40
0.087867317973466433
40
0.087867317973466433
40
0.087867317973466433
10
-2.515686876065546
20
2.2878314300590485
30
0
10
-2.5050314952518971
20
2.1368437594301648
30
0
10
-2.4840424932578076
20
1.839427780091949
30
0
10
-2.3224121618089799
20
1.5891079254701201
30
0
10
-2.2428358857701358
20
1.4658666893058747
30
0
0
SPLINE
5
111
100
AcDbEntity
8
0
100
AcDbSpline
70
0
71
3
72
9
73
5
74
0
42
0.000000001
43
0.0000000001
44
0.0000000001
40
0
40
0
40
0
40
0
40
0.048490558758718043
40
0.10862534723607364
40
0.10862534723607364
40
0.10862534723607364
40
0.10862534723607364
10
-2.2428358857701358
20
1.4658666893058747
30
0
10
-2.1277580873356738
20
1.3501159208714575
30
0
10
-1.8699684034447106
20
1.0908186940320108
30
0
10
-1.5304071416970166
20
0.95243497361241825
30
0
10
-1.3424266641209659
20
0.87582600555953682
30
0
0
SPLINE
5
112
100
AcDbEntity
8
0
100
AcDbSpline
70
0
71
3
72
9
73
5
74
0
42
0.000000001
43
0.0000000001
44
0.0000000001
40
0
40
0
40
0
40
0
40
0.067666530828069463
40
0.1846541363534232
40
0.1846541363534232
40
0.1846541363534232
40
0.1846541363534232
10
-1.3424266641209659
20
0.87582600555953682
30
0
10
-1.127575160113623
20
0.80694717461718635
30
0
10
-0.54127025529273842
20
0.61898481146589801
30
0
10
0.058159600582619042
20
0.47764822209877322
30
0
10
0.43792831253308684
20
0.38810444317397774
30
0
0
SPLINE
5
113
100
AcDbEntity
8
0
100
AcDbSpline
70
0
71
3
72
9
73
5
74
0
42
0.000000001
43
0.0000000001
44
0.0000000001
40
0
40
0
40
0
40
0
40
0.12148557539624946
40
0.20318645960182091
40
0.20318645960182091
40
0.20318645960182091
40
0.20318645960182091
10
0.43792831253308684
20
0.38810444317397774
30
0
10
0.83274709915921008
20
0.29377238271593775
30
0
10
1.4930874825931184
20
0.13600058693773898
30
0
10
2.1173402568092703
20
-0.1293473256397526
30
0
10
2.3683510954310361
20
-0.23604321040573417
30
0
0
SPLINE
5
114
100
AcDbEntity
8
0
100
AcDbSpline
70
0
71
3
72
9
73
5
74
0
42
0.000000001
43
0.0000000001
44
0.0000000001
40
0
40
0
40
0
40
0
40
0.07532124580636064
40
0.14290027068337222
40
0.14290027068337222
40
0.14290027068337222
40
0.14290027068337222
10
2.3683510954310361
20
-0.23604321040573417
30
0
10
2.5882602051705539
20
-0.36308362589587695
30
0
10
3.0054741130273799
20
-0.60410605677734042
30
0
10
3.2976901838841077
20
-0.98637110792806126
30
0
10
3.4358822042872372
20
-1.1671482280677825
30
0
0
SPLINE
5
115
100
AcDbEntity
8
0
100
AcDbSpline
70
0
71
3
72
9
73
5
74
0
42
0.000000001
43
0.0000000001
44
0.0000000001
40
0
40
0
40
0
40
0
40
0.064541522355959335
40
0.13069664374984213
40
0.13069664374984213
40
0.13069664374984213
40
0.13069664374984213
10
3.4358822042872372
20
-1.1671482280677825
30
0
10
3.5383394710354565
20
-1.3593867878286314
30
0
10
3.7458155330025344
20
-1.748670052971919
30
0
10
3.7732780706055036
20
-2.1890990592308892
30
0
10
3.787178867571539
20
-2.4120323614067107
30
0
0
SPLINE
5
116
100
AcDbEntity
8
0
100
AcDbSpline
70
0
71
3
72
9
73
5
74
0
42
0.000000001
43
0.0000000001
44
0.0000000001
40
0
40
0
40
0
40
0
40
0.074027244196297318
40
0.14954838852859187
40
0.14954838852859187
40
0.14954838852859187
40
0.14954838852859187
10
3.787178867571539
20
-2.4120323614067107
30
0
10
3.7685682726114811
20
-2.6613719569520713
30
0
10
3.7309715132554988
20
-3.1650829232998454
30
0
10
3.4827754308043701
20
-3.6051943989261326
30
0
10
3.3574377233912411
20
-3.8274483636802703
30
0
0
SPLINE
5
117
100
AcDbEntity
8
0
100
AcDbSpline
70
0
71
3
72
9
73
5
74
0
42
0.000000001
43
0.0000000001
44
0.0000000001
40
0
40
0
40
0
40
0
40
0.078400330466529666
40
0.16233227409105988
40
0.16233227409105988
40
0.16233227409105988
40
0.16233227409105988
10
3.3574377233912411
20
-3.8274483636802703
30
0
10
3.1932899799245784
20
-4.0354295579167481
30
0
10
2.8534128859723373
20
-4.4660662660489336
30
0
10
2.3583088358798321
20
-4.7038321483469252
30
0
10
2.1023212606837216
20
-4.8267661289161703
30
0
0
SPLINE
5
118
100
AcDbEntity
8
0
100
AcDbSpline
70
0
71
3
72
9
73
5
74
0
42
0.000000001
43
0.0000000001
44
0.0000000001
40
0
40
0
40
0
40
0
40
0.090818670560999112
40
0.18754576814312862
40
0.18754576814312862
40
0.18754576814312862
40
0.18754576814312862
10
2.1023212606837216
20
-4.8267661289161703
30
0
10
1.814530487070849
20
-4.9262157052761877
30
0
10
1.2202260189661374
20
-5.131584789350379
30
0
10
0.59160801006851171
20
-5.1554970641699329
30
0
10
0.26739703964490324
20
-5.1678298667854339
30
0
0
SPLINE
5
119
100
AcDbEntity
8
0
100
AcDbSpline
70
0
71
3
72
9
73
5
74
0
42
0.000000001
43
0.0000000001
44
0.0000000001
40
0
40
0
40
0
40
0
40
0.10500378186878999
40
0.20035528100050359
40
0.20035528100050359
40
0.20035528100050359
40
0.20035528100050359
10
0.26739703964490324
20
-5.1678298667854339
30
0
10
-0.084720892641594325
20
-5.1560021321486138
30
0
10
-0.75658895313424512
20
-5.1334339059896683
30
0
10
-1.3915408536833085
20
-4.9140974931320356
30
0
10
-1.6937221353123721
20
-4.8097126439994833
30
0
0
SPLINE
5
120
100
AcDbEntity
8
0
100
AcDbSpline
70
0
71
3
72
9
73
5
74
0
42
0.000000001
43
0.0000000001
44
0.0000000001
40
0
40
0
40
0
40
0
40
0.087185269028673421
40
0.16976090395322879
40
0.16976090395322879
40
0.16976090395322879
40
0.16976090395322879
10
-1.6937221353123721
20
-4.8097126439994833
30
0
10
-1.9582547027596586
20
-4.6795746465772421
30
0
10
-2.4733335489366537
20
-4.4261792699592402
30
0
10
-2.8276504910012457
20
-3.9751940816019129
30
0
10
-2.999998456723505
20
-3.7558244422859217
30
0
0
SPLINE
5
121
100
AcDbEntity
8
0
100
AcDbSpline
70
0
71
3
72
9
73
5
74
0
42
0.000000001
43
0.0000000001
44
0.0000000001
40
0
40
0
40
0
40
0
40
0.082079000808415736
40
0.16663351641571361
40
0.16663351641571361
40
0.16663351641571361
40
0.16663351641571361
10
-2.999998456723505
20
-3.7558244422859217
30
0
10
-3.1347922842671383
20
-3.5141086315154952
30
0
10
-3.4084453411209426
20
-3.0233868253867149
30
0
10
-3.4632968222647742
20
-2.4639713781690453
30
0
10
-3.4911300008366641
20
-2.1801083043998748
30
0
0
LINE
5
122
100
AcDbEntity
8
0
100
AcDbLine
10
-3.4911300008366637
20
-2.1801083043998748
30
0
11
-2.2223712270329532
21
-2.0846103385871917
31
0
0
SPLINE
5
123
100
AcDbEntity
8
0
100
AcDbSpline
70
0
71
3
72
9
73
5
74
0
42
0.000000001
43
0.0000000001
44
0.0000000001
40
0
40
0
40
0
40
0
40
0.086188093623474377
40
0.16231000362998893
40
0.16231000362998893
40
0.16231000362998893
40
0.16231000362998893
10
-2.2223712270329532
20
-2.0846103385871917
30
0
10
-2.1746818624842312
20
-2.3755096065850081
30
0
10
-2.0848729270780164
20
-2.9233330849758437
30
0
10
-1.7071572312320793
20
-3.3275198995048805
30
0
10
-1.5300120179722843
20
-3.5170798257774378
30
0
0
SPLINE
5
124
100
AcDbEntity
8
0
100
AcDbSpline
70
0
71
3
72
9
73
5
74
0
42
0.000000001
43
0.0000000001
44
0.0000000001
40
0
40
0
40
0
40
0
40
0.081603018208202441
40
0.1835354982135235
40
0.1835354982135235
40
0.1835354982135235
40
0.1835354982135235
10
-1.5300120179722843
20
-3.5170798257774378
30
0
10
-1.2923281091844685
20
-3.6578914739404333
30
0
10
-0.75774696776874206
20
-3.9745946617309205
30
0
10
-0.13373756045772955
20
-3.9918226693163614
30
0
10
0.21282660316724211
20
-4.0013908103889486
30
0
0
SPLINE
5
125
100
AcDbEntity
8
0
100
AcDbSpline
70
0
71
3
72
9
73
5
74
0
42
0.000000001
43
0.0000000001
44
0.0000000001
40
0
40
0
40
0
40
0
40
0.10435015206107964
40
0.18282233340958165
40
0.18282233340958165
40
0.18282233340958165
40
0.18282233340958165
10
0.21282660316724211
20
-4.0013908103889486
30
0
10
0.56737272913401915
20
-3.996005238605048
30
0
10
1.188540487592411
20
-3.9865696720933554
30
0
10
1.730053485467542
20
-3.6890998492503435
30
0
10
1.9624851877619687
20
-3.5614179328865077
30
0
0
SPLINE
5
126
100
AcDbEntity
8
0
100
AcDbSpline
70
0
71
3
72
9
73
5
74
0
42
0.000000001
43
0.0000000001
44
0.0000000001
40
0
40
0
40
0
40
0
40
0.063638926117356318
40
0.12280807022066817
40
0.12280807022066817
40
0.12280807022066817
40
0.12280807022066817
10
1.9624851877619687
20
-3.5614179328865077
30
0
10
2.1225801520750864
20
-3.4112578988390703
30
0
10
2.4315255541876901
20
-3.1214845615010263
30
0
10
2.4855634061547294
20
-2.7025513387456761
30
0
10
2.5115989382197323
20
-2.5007085756248504
30
0
0
SPLINE
5
127
100
AcDbEntity
8
0
100
AcDbSpline
70
0
71
3
72
9
73
5
74
0
42
0.000000001
43
0.0000000001
44
0.0000000001
40
0
40
0
40
0
40
0
40
0.050065881778110319
40
0.099214905616750004
40
0.099214905616750004
40
0.099214905616750004
40
0.099214905616750004
10
2.5115989382197323
20
-2.5007085756248504
30
0
10
2.4960056195482649
20
-2.3295868744262083
30
0
10
2.4651045431006668
20
-1.990477228686901
30
0
10
2.2361869749025587
20
-1.7386782812887347
30
0
10
2.1227859194209042
20
-1.6139422611183196
30
0
0
SPLINE
5
128
100
AcDbEntity
8
0
100
AcDbSpline
70
0
71
3
72
9
73
5
74
0
42
0.000000001
43
0.0000000001
44
0.0000000001
40
0
40
0
40
0
40
0
40
0.077449077366773186
40
0.21288238596334746
40
0.21288238596334746
40
0.21288238596334746
40
0.21288238596334746
10
2.1227859194209042
20
-1.6139422611183196
30
0
10
1.8962910569267888
20
-1.4877129979166781
30
0
10
1.273730164330884
20
-1.1407497074244732
30
0
10
0.5732176950656398
20
-0.99429266659992632
30
0
10
0.12755977463025481
20
-0.90111839332046806
30
0
0
SPLINE
5
129
100
AcDbEntity
8
0
100
AcDbSpline
70
0
71
3
72
9
73
5
74
0
42
0.000000001
43
0.0000000001
44
0.0000000001
40
0
40
0
40
0
40
0
40
0.14023155781194285
40
0.23056559746349214
40
0.23056559746349214
40
0.23056559746349214
40
0.23056559746349214
10
0.12755977463025481
20
-0.90111839332046806
30
0
10
-0.3293221252418399
20
-0.79904509154307357
30
0
10
-1.0805171476599229
20
-0.63121844698039054
30
0
10
-1.8029151045815128
20
-0.36689037655616041
30
0
10
-2.0859457318852481
20
-0.26332842864456474
30
0
0
SPLINE
5
130
100
AcDbEntity
8
0
100
AcDbSpline
70
0
71
3
72
9
73
5
74
0
42
0.000000001
43
0.0000000001
44
0.0000000001
40
0
40
0
40
0
40
0
40
0.088542320781116846
40
0.16593289946662337
40
0.16593289946662337
40
0.16593289946662337
40
0.16593289946662337
10
-2.0859457318852481
20
-0.26332842864456474
30
0
10
-2.3524274180336535
20
-0.12804761229729622
30
0
10
-2.851827913155871
20
0.12547565093640745
30
0
10
-3.2087163403878805
20
0.55576691619794061
30
0
10
-3.3751679723332462
20
0.756453399282071
30
0
0
SPLINE
5
131
100
AcDbEntity
8
0
100
AcDbSpline
70
0
71
3
72
9
73
5
74
0
42
0.000000001
43
0.0000000001
44
0.0000000001
40
0
40
0
40
0
40
0
40
0.073388120979785976
40
0.14990006075969192
40
0.14990006075969192
40
0.14990006075969192
40
0.14990006075969192
10
-3.3751679723332462
20
0.756453399282071
30
0
10
-3.496515527815629
20
0.97273290355422315
30
0
10
-3.7443758858272513
20
1.4144980066613289
30
0
10
-3.7754208466901096
20
1.9204451714335635
30
0
10
-3.7912668054173526
20
2.1786905571037263
30
0
0
SPLINE
5
132
100
AcDbEntity
8
0
100
AcDbSpline
70
0
71
3
72
9
73
5
74
0
42
0.000000001
43
0.0000000001
44
0.0000000001
40
0
40
0
40
0
40
0
40
0.078344522369229758
40
0.15890309871472946
40
0.15890309871472946
40
0.15890309871472946
40
0.15890309871472946
10
-3.7912668054173526
20
2.1786905571037263
30
0
10
-3.771184867448234
20
2.4424769068230856
30
0
10
-3.7304534662604105
20
2.9775043356904884
30
0
10
-3.4675321789801616
20
3.4455170923825351
30
0
10
-3.3342398469517764
20
3.682783965688321
30
0
0
SPLINE
5
133
100
AcDbEntity
8
0
100
AcDbSpline
70
0
71
3
72
9
73
5
74
0
42
0.000000001
43
0.0000000001
44
0.0000000001
40
0
40
0
40
0
40
0
40
0.08389508653713193
40
0.17297565215293206
40
0.17297565215293206
40
0.17297565215293206
40
0.17297565215293206
10
-3.3342398469517764
20
3.682783965688321
30
0
10
-3.1612142397508558
20
3.90686642982359
30
0
10
-2.804468469764787
20
4.3688816916193858
30
0
10
-2.2874185867009666
20
4.6409157269249146
30
0
10
-2.0211435620854434
20
4.7810102745109528
30
0
0
SPLINE
5
134
100
AcDbEntity
8
0
100
AcDbSpline
70
0
71
3
72
9
73
5
74
0
42
0.000000001
43
0.0000000001
44
0.0000000001
40
0
40
0
40
0
40
0
40
0.095616390877727817
40
0.19781027426219722
40
0.19781027426219722
40
0.19781027426219722
40
0.19781027426219722
10
-2.0211435620854434
20
4.7810102745109528
30
0
10
-1.7212613756815287
20
4.8953734101227697
30
0
10
-1.100867978750637
20
5.1319667704576899
30
0
10
-0.4370676873545376
20
5.1591765816712964
30
0
10
-0.094131356961542068
20
5.1732338710838288
30
0
0
SPLINE
5
135
100
AcDbEntity
8
0
100
AcDbSpline
70
0
71
3
72
9
73
5
74
0
42
0.000000001
43
0.0000000001
44
0.0000000001
40
0
40
0
40
0
40
0
40
0.12513567629776456
40
0.23208009684435454
40
0.23208009684435454
40
0.23208009684435454
40
0.23208009684435454
10
-0.094131356961542068
20
5.1732338710838288
30
0
10
0.32574593236607052
20
5.162577338191281
30
0
10
1.1044620016189599
20
5.1428134366493872
30
0
10
1.8412484680561092
20
4.8928054408263622
30
0
10
2.1807657415797177
20
4.777599696736905
30
0
0
LINE
5
136
100
AcDbEntity
8
0
100
AcDbLine
10
11.713508837931341
20
0.93721700153884591
30
0
11
11.713508837931341
21
5.0027014061027497
31
0
0
LINE
5
137
100
AcDbEntity
8
0
100
AcDbLine
10
11.713508837931341
20
5.0027014061027497
30
0
11
13.036837675683683
21
5.0027014061027497
31
0
0
LINE
5
138
100
AcDbEntity
8
0
100
AcDbLine
10
13.036837675683683
20
5.0027014061027497
30
0
11
13.036837675683683
21
-4.9972985938972503
31
0
0
LINE
5
139
100
AcDbEntity
8
0
100
AcDbLine
10
13.036837675683683
20
-4.9972985938972503
30
0
11
9.2646686966349545
21
-4.9972985938972503
31
0
0
SPLINE
5
140
100
AcDbEntity
8
0
100
AcDbSpline
70
0
71
3
72
9
73
5
74
0
42
0.000000001
43
0.0000000001
44
0.0000000001
40
0
40
0
40
0
40
0
40
0.087856491779733425
40
0.15254480669834747
40
0.15254480669834747
40
0.15254480669834747
40
0.15254480669834747
10
9.2646686966349545
20
-4.9972985938972503
30
0
10
8.971434501058754
20
-4.9963860948505854
30
0
10
8.4622933690219355
20
-4.9948017271178626
30
0
10
7.9575601228264699
20
-4.9294947676212209
30
0
10
7.7435223991801205
20
-4.9018006280845672
30
0
0
SPLINE
5
141
100
AcDbEntity
8
0
100
AcDbSpline
70
0
71
3
72
9
73
5
74
0
42
0.000000001
43
0.0000000001
44
0.0000000001
40
0
40
0
40
0
40
0
40
0.070007406722782967
40
0.13281765356070396
40
0.13281765356070396
40
0.13281765356070396
40
0.13281765356070396
10
7.7435223991801205
20
-4.9018006280845672
30
0
10
7.5129779842400444
20
-4.8550459779294428
30
0
10
7.075590432446881
20
-4.7663433217770006
30
0
10
6.6908269195724408
20
-4.5410742111497049
30
0
10
6.5088699991633359
20
-4.434543128389743
30
0
0
SPLINE
5
142
100
AcDbEntity
8
0
100
AcDbSpline
70
0
71
3
72
9
73
5
74
0
42
0.000000001
43
0.0000000001
44
0.0000000001
40
0
40
0
40
0
40
0
40
0.061068199960876673
40
0.12651669663801518
40
0.12651669663801518
40
0.12651669663801518
40
0.12651669663801518
10
6.5088699991633359
20
-4.434543128389743
30
0
10
6.3493703013057035
20
-4.304838471772177
30
0
10
6.0189303194389225
20
-4.036125709576214
30
0
10
5.8135927390669622
20
-3.6625737376607868
30
0
10
5.7073693211008969
20
-3.4693311408943206
30
0
0
SPLINE
5
143
100
AcDbEntity
8
0
100
AcDbSpline
70
0
71
3
72
9
73
5
74
0
42
0.000000001
43
0.0000000001
44
0.0000000001
40
0
40
0
40
0
40
0
40
0.069006743041971214
40
0.14069193536477173
40
0.14069193536477173
40
0.14069193536477173
40
0.14069193536477173
10
5.7073693211008969
20
-3.4693311408943206
30
0
10
5.6188439120254579
20
-3.2550283739077357
30
0
10
5.4383570409930648
20
-2.818104825392628
30
0
10
5.415479217156232
20
-2.3457491269423212
30
0
10
5.4038225347926083
20
-2.1050749973243743
30
0
0
SPLINE
5
144
100
AcDbEntity
8
0
100
AcDbSpline
70
0
71
3
72
9
73
5
74
0
42
0.000000001
43
0.0000000001
44
0.0000000001
40
0
40
0
40
0
40
0
40
0.11948829764164305
40
0.23497882381208107
40
0.23497882381208107
40
0.23497882381208107
40
0.23497882381208107
10
5.4038225347926083
20
-2.1050749973243743
30
0
10
5.4352831754922759
20
-1.6988253215197013
30
0
10
5.4971518646768303
20
-0.89991804039904144
30
0
10
5.9788188381863527
20
-0.26043861281243919
30
0
10
6.2155549461771908
20
0.053861264806362996
30
0
0
SPLINE
5
145
100
AcDbEntity
8
0
100
AcDbSpline
70
0
71
3
72
9
73
5
74
0
42
0.000000001
43
0.0000000001
44
0.0000000001
40
0
40
0
40
0
40
0
40
0.1317801266540202
40
0.31253405264466183
40
0.31253405264466183
40
0.31253405264466183
40
0.31253405264466183
10
6.2155549461771908
20
0.053861264806362996
30
0
10
6.5834122177843746
20
0.30994408712894161
30
0
10
7.4558345382761608
20
0.91727847286134701
30
0
10
8.5283929833787937
20
0.92991099066279337
30
0
10
9.1487066681315365
20
0.93721700153884591
30
0
0
LINE
5
146
100
AcDbEntity
8
0
100
AcDbLine
10
9.1487066681315348
20
0.93721700153884602
30
0
11
11.713508837931341
21
0.93721700153884591
31
0
0
CIRCLE
5
147
100
AcDbEntity
8
0
100
AcDbCircle
10
0
20
-16.000000238418579
30
0
40
1.5000000000000002
210
0
220
0
230
-1
0
CIRCLE
5
148
100
AcDbEntity
8
0
100
AcDbCircle
10
0
20
0
30
0
40
20
210
0
220
0
230
1
0
LINE
5
149
100
AcDbEntity
8
0
100
AcDbLine
10
9.1555281217028561
20
-3.8172166303581267
30
0
11
11.713508837931341
21
-3.8172166303581267
31
0
0
LINE
5
150
100
AcDbEntity
8
0
100
AcDbLine
10
11.713508837931341
20
-3.8172166303581267
30
0
11
11.713508837931341
21
-0.24286496200027763
31
0
0
LINE
5
151
100
AcDbEntity
8
0
100
AcDbLine
10
11.713508837931341
20
-0.24286496200027763
30
0
11
9.1282429034640256
21
-0.24286496200027757
31
0
0
SPLINE
5
152
100
AcDbEntity
8
0
100
AcDbSpline
70
0
71
3
72
9
73
5
74
0
42
0.000000001
43
0.0000000001
44
0.0000000001
40
0
40
0
40
0
40
0
40
0.1102999853837147
40
0.19114103831053547
40
0.19114103831053547
40
0.19114103831053547
40
0.19114103831053547
10
9.1282429034640256
20
-0.24286496200027763
30
0
10
8.7523821079303659
20
-0.24714274329325159
30
0
10
8.1010454602544808
20
-0.25455579557208896
30
0
10
7.5429855538815431
20
-0.58190567084226208
30
0
10
7.306960099451727
20
-0.72035479106369316
30
0
0
SPLINE
5
153
100
AcDbEntity
8
0
100
AcDbSpline
70
0
71
3
72
9
73
5
74
0
42
0.000000001
43
0.0000000001
44
0.0000000001
40
0
40
0
40
0
40
0
40
0.070257949464772429
40
0.14833892530249207
40
0.14833892530249207
40
0.14833892530249207
40
0.14833892530249207
10
7.306960099451727
20
-0.72035479106369316
30
0
10
7.1499052077027709
20
-0.90265575398508879
30
0
10
6.8183078008182907
20
-1.2875563827022474
30
0
10
6.7854002074201416
20
-1.7963397820892457
30
0
10
6.7680786783625546
20
-2.0641474679893523
30
0
0
SPLINE
5
154
100
AcDbEntity
8
0
100
AcDbSpline
70
0
71
3
72
9
73
5
74
0
42
0.000000001
43
0.0000000001
44
0.0000000001
40
0
40
0
40
0
40
0
40
0.058774073715935675
40
0.1134222250148344
40
0.1134222250148344
40
0.1134222250148344
40
0.1134222250148344
10
6.7680786783625546
20
-2.0641474679893523
30
0
10
6.7792626670701068
20
-2.2628675928125608
30
0
10
6.8008455318189824
20
-2.6463577490608721
30
0
10
6.992788169568513
20
-2.9784791638645447
30
0
10
7.0852683718134823
20
-3.1384991363472015
30
0
0
SPLINE
5
155
100
AcDbEntity
8
0
100
AcDbSpline
70
0
71
3
72
9
73
5
74
0
42
0.000000001
43
0.0000000001
44
0.0000000001
40
0
40
0
40
0
40
0
40
0.052213632121635246
40
0.10389983117165018
40
0.10389983117165018
40
0.10389983117165018
40
0.10389983117165018
10
7.0852683718134823
20
-3.1384991363472015
30
0
10
7.1989404009150881
20
-3.274659585889216
30
0
10
7.4251362075021943
20
-3.5456050678414148
30
0
10
7.7561891997976806
20
-3.6677682842133748
30
0
10
7.9208754236628476
20
-3.7285398200935393
30
0
0
SPLINE
5
156
100
AcDbEntity
8
0
100
AcDbSpline
70
0
71
3
72
9
73
5
74
0
42
0.000000001
43
0.0000000001
44
0.0000000001
40
0
40
0
40
0
40
0
40
0.048041041905004578
40
0.12396023323161828
40
0.12396023323161828
40
0.12396023323161828
40
0.12396023323161828
10
7.9208754236628476
20
-3.7285398200935393
30
0
10
8.0791847085346813
20
-3.7540986888616401
30
0
10
8.4876699348594453
20
-3.8200482021943243
30
0
10
8.9018589229943181
20
-3.8182921319734753
30
0
10
9.1555281217028561
20
-3.8172166303581267
30
0
0
ENDSEC
0
SECTION
2
OBJECTS
0
DICTIONARY
5
C
100
AcDbDictionary
3
ACAD_GROUP
350
D
3
ACAD_MLINESTYLE
350
17
0
DICTIONARY
5
D
100
AcDbDictionary
0
DICTIONARY
5
1A
330
C
100
AcDbDictionary
0
DICTIONARY
5
17
100
AcDbDictionary
0
ENDSEC
0
EOF
