<?xml version="1.0" encoding="utf-8"?>
<!-- Generator: Adobe Illustrator 26.0.1, SVG Export Plug-In . SVG Version: 6.00 Build 0)  -->
<svg version="1.1" xmlns="http://www.w3.org/2000/svg" xmlns:xlink="http://www.w3.org/1999/xlink" x="0px" y="0px"
	 viewBox="0 0 595.28 841.89" style="enable-background:new 0 0 595.28 841.89;" xml:space="preserve">
<style type="text/css">
	.st0{fill:#ED8424;}
	.st1{fill:#2D346B;}
	.st2{fill:none;stroke:#E30613;stroke-miterlimit:10;}
	.st3{fill:none;stroke:#000000;stroke-miterlimit:10;}
</style>
<g id="Livello_2">
	<g>
		<g>
			<g>
				<path class="st0" d="M78.43,52.59c0,0-0.11,0.17-0.33,0.5c-0.21,0.33-0.53,0.8-0.91,1.41c-0.39,0.61-0.85,1.36-1.38,2.22
					c-0.53,0.86-1.1,1.84-1.72,2.91c-0.62,1.07-1.27,2.24-1.94,3.49c-0.66,1.25-1.35,2.57-2.01,3.96c-0.67,1.38-1.32,2.83-1.94,4.3
					c-0.61,1.48-1.2,2.99-1.69,4.52c-0.12,0.38-0.25,0.76-0.35,1.15l-0.16,0.58l-0.14,0.58c-0.1,0.38-0.18,0.77-0.26,1.15
					c-0.08,0.38-0.15,0.77-0.21,1.15c-0.06,0.38-0.13,0.76-0.17,1.13c-0.02,0.19-0.05,0.37-0.07,0.56
					c-0.02,0.18-0.04,0.37-0.06,0.55c-0.05,0.37-0.06,0.73-0.1,1.09c-0.02,0.18-0.02,0.36-0.03,0.53c-0.01,0.18-0.03,0.35-0.03,0.52
					c-0.01,0.35-0.03,0.69-0.03,1.02c0,0.17-0.01,0.34,0,0.5c0,0.16,0.01,0.33,0.01,0.49c0,0.16,0.01,0.32,0.02,0.48
					c0.01,0.16,0.02,0.32,0.03,0.47c0.02,0.15,0.04,0.31,0.05,0.46l0.02,0.23l0.04,0.22c0.19,1.18,0.51,2.26,0.99,3.2
					c0.47,0.94,1.06,1.75,1.68,2.43c0.16,0.17,0.32,0.33,0.46,0.49c0.15,0.16,0.32,0.29,0.47,0.44l0.22,0.21l0.23,0.19
					c0.15,0.12,0.29,0.24,0.43,0.36c0.56,0.43,1.02,0.78,1.34,0.99c0.32,0.23,0.5,0.36,0.5,0.36l-0.13,0.4c0,0-0.22-0.01-0.62-0.06
					c-0.41-0.04-1-0.14-1.75-0.34c-0.19-0.06-0.38-0.11-0.59-0.18c-0.1-0.03-0.21-0.07-0.32-0.1c-0.11-0.04-0.21-0.08-0.32-0.13
					c-0.22-0.09-0.45-0.18-0.69-0.29c-0.23-0.12-0.47-0.25-0.72-0.38c-0.97-0.56-2.03-1.36-2.96-2.49
					c-0.94-1.11-1.69-2.56-2.17-4.15c-0.03-0.1-0.06-0.2-0.09-0.3c-0.02-0.1-0.05-0.2-0.07-0.3c-0.05-0.2-0.1-0.41-0.14-0.61
					c-0.04-0.21-0.07-0.41-0.1-0.62c-0.02-0.1-0.03-0.21-0.05-0.32c-0.02-0.11-0.02-0.21-0.03-0.32c-0.02-0.21-0.04-0.42-0.06-0.64
					c-0.02-0.21-0.01-0.43-0.02-0.64c-0.02-0.43,0.01-0.86,0.02-1.29c0.01-0.22,0.04-0.43,0.05-0.64c0.02-0.21,0.04-0.43,0.07-0.64
					c0.06-0.43,0.12-0.86,0.22-1.28c0.04-0.21,0.09-0.42,0.14-0.64c0.05-0.21,0.11-0.42,0.16-0.63c0.1-0.42,0.23-0.83,0.36-1.25
					c0.51-1.66,1.15-3.27,1.81-4.85c0.66-1.58,1.4-3.12,2.18-4.6c0.77-1.48,1.6-2.89,2.42-4.24c0.83-1.34,1.66-2.62,2.49-3.8
					c0.82-1.19,1.62-2.29,2.36-3.3c0.75-1.01,1.46-1.91,2.1-2.71c0.63-0.8,1.2-1.48,1.67-2.03c0.47-0.56,0.85-0.99,1.11-1.28
					c0.26-0.29,0.4-0.45,0.4-0.45L78.43,52.59z"/>
				<path class="st1" d="M88.39,46.22c0,0-0.13,0.2-0.38,0.56c-0.25,0.37-0.61,0.91-1.06,1.6c-0.45,0.7-0.99,1.54-1.6,2.52
					c-0.61,0.98-1.27,2.09-1.99,3.31c-0.72,1.22-1.47,2.55-2.24,3.97c-0.77,1.42-1.56,2.93-2.33,4.5c-0.77,1.58-1.52,3.23-2.24,4.91
					c-0.72,1.68-1.39,3.41-1.96,5.16c-0.14,0.44-0.29,0.87-0.41,1.31c-0.06,0.22-0.13,0.44-0.19,0.66l-0.17,0.66
					c-0.06,0.22-0.11,0.44-0.16,0.66c-0.05,0.22-0.1,0.44-0.15,0.66c-0.05,0.22-0.09,0.44-0.13,0.66c-0.04,0.22-0.09,0.44-0.12,0.66
					c-0.07,0.44-0.15,0.87-0.2,1.3c-0.03,0.21-0.06,0.43-0.09,0.64c-0.02,0.21-0.05,0.43-0.07,0.64c-0.06,0.42-0.08,0.84-0.12,1.25
					c-0.02,0.21-0.02,0.41-0.04,0.61c-0.01,0.2-0.03,0.41-0.03,0.61c-0.01,0.4-0.03,0.8-0.03,1.19c0,0.19,0,0.39,0,0.58
					c0.01,0.19,0.01,0.38,0.02,0.57c0,0.19,0.02,0.37,0.03,0.56c0.01,0.18,0.03,0.37,0.04,0.55c0.03,0.18,0.04,0.36,0.06,0.54
					l0.03,0.27l0.05,0.26c0.03,0.17,0.06,0.34,0.09,0.51c0.04,0.17,0.08,0.33,0.12,0.5c0.07,0.34,0.18,0.64,0.27,0.96
					c0.04,0.16,0.11,0.31,0.16,0.46c0.06,0.15,0.11,0.3,0.17,0.45c0.07,0.14,0.14,0.28,0.2,0.42c0.07,0.14,0.12,0.29,0.2,0.42
					c0.57,1.08,1.28,2.01,2,2.78c0.19,0.19,0.37,0.37,0.55,0.55c0.18,0.17,0.37,0.33,0.55,0.49l0.26,0.23l0.26,0.21
					c0.17,0.13,0.34,0.27,0.5,0.39c0.65,0.47,1.18,0.85,1.56,1.09c0.37,0.24,0.57,0.39,0.57,0.39l-0.13,0.4c0,0-0.24-0.02-0.7-0.09
					c-0.46-0.05-1.13-0.19-1.97-0.43c-0.21-0.07-0.43-0.14-0.66-0.22c-0.12-0.04-0.24-0.08-0.36-0.12c-0.12-0.05-0.24-0.1-0.36-0.15
					c-0.24-0.11-0.51-0.22-0.77-0.35c-0.26-0.14-0.52-0.29-0.8-0.44c-1.09-0.65-2.26-1.56-3.29-2.84c-0.14-0.15-0.25-0.32-0.37-0.49
					c-0.12-0.17-0.24-0.34-0.36-0.52c-0.11-0.18-0.22-0.37-0.33-0.55c-0.11-0.19-0.23-0.37-0.32-0.57c-0.19-0.4-0.4-0.8-0.55-1.23
					c-0.08-0.21-0.17-0.42-0.24-0.64c-0.07-0.22-0.13-0.44-0.2-0.66c-0.03-0.11-0.07-0.22-0.1-0.34c-0.03-0.11-0.05-0.23-0.08-0.34
					c-0.05-0.23-0.11-0.46-0.16-0.69c-0.04-0.23-0.08-0.46-0.11-0.7c-0.02-0.12-0.04-0.24-0.06-0.35c-0.02-0.12-0.02-0.24-0.04-0.36
					c-0.02-0.24-0.04-0.48-0.06-0.72c-0.02-0.24-0.02-0.48-0.02-0.72c-0.02-0.48,0.01-0.97,0.02-1.45c0.11-1.94,0.53-3.87,1.09-5.75
					c0.57-1.88,1.28-3.72,2.02-5.52c0.74-1.8,1.58-3.55,2.45-5.24c0.87-1.69,1.8-3.3,2.73-4.84c0.94-1.53,1.87-3,2.8-4.35
					c0.92-1.36,1.82-2.62,2.67-3.77c0.84-1.15,1.65-2.19,2.36-3.1c0.72-0.91,1.36-1.7,1.89-2.33c0.53-0.64,0.96-1.14,1.25-1.47
					c0.3-0.33,0.45-0.51,0.45-0.51L88.39,46.22z"/>
				<path class="st1" d="M67.91,62.46c0,0-0.09,0.14-0.25,0.39c-0.16,0.26-0.4,0.63-0.69,1.12c-0.29,0.49-0.65,1.07-1.05,1.75
					c-0.4,0.68-0.83,1.45-1.3,2.3c-0.47,0.85-0.96,1.77-1.47,2.75c-0.5,0.98-1.02,2.02-1.52,3.11c-0.51,1.08-0.99,2.22-1.46,3.37
					c-0.46,1.16-0.9,2.33-1.27,3.52c-0.09,0.3-0.18,0.59-0.26,0.89l-0.12,0.45l-0.1,0.45c-0.07,0.3-0.12,0.6-0.18,0.89
					c-0.05,0.3-0.1,0.59-0.14,0.89c-0.04,0.29-0.09,0.58-0.11,0.87c-0.02,0.14-0.03,0.29-0.05,0.43c-0.01,0.14-0.02,0.28-0.03,0.42
					c-0.03,0.28-0.04,0.56-0.06,0.83c-0.01,0.27-0.03,0.54-0.04,0.8c-0.01,0.26-0.02,0.52-0.02,0.77c0,0.13-0.01,0.25,0,0.38
					c0,0.12,0,0.24,0.01,0.37c0,0.12,0.01,0.24,0.01,0.36c0.01,0.12,0.01,0.24,0.02,0.35c0.01,0.11,0.02,0.23,0.03,0.34l0.01,0.17
					l0.02,0.16c0.01,0.11,0.03,0.22,0.04,0.33c0.02,0.11,0.04,0.21,0.06,0.32c0.03,0.21,0.09,0.41,0.14,0.61
					c0.02,0.1,0.06,0.2,0.09,0.29c0.03,0.1,0.06,0.19,0.09,0.29c0.04,0.09,0.07,0.18,0.11,0.28c0.04,0.09,0.07,0.19,0.11,0.27
					c0.32,0.71,0.73,1.35,1.17,1.9c0.11,0.13,0.23,0.26,0.33,0.39c0.11,0.13,0.23,0.24,0.34,0.36l0.16,0.17l0.17,0.16
					c0.11,0.1,0.21,0.2,0.31,0.3c0.41,0.36,0.76,0.66,1,0.85c0.24,0.2,0.37,0.31,0.37,0.31l-0.13,0.4c0,0-0.17,0-0.5-0.01
					c-0.33-0.01-0.8-0.06-1.41-0.19c-0.15-0.04-0.31-0.08-0.48-0.12l-0.26-0.07l-0.26-0.09c-0.18-0.07-0.37-0.13-0.56-0.21
					c-0.19-0.09-0.39-0.18-0.59-0.28c-0.2-0.1-0.4-0.23-0.61-0.36l-0.16-0.1l-0.15-0.11c-0.1-0.08-0.21-0.15-0.31-0.23
					c-0.42-0.32-0.83-0.71-1.22-1.15c-0.79-0.89-1.42-2.06-1.82-3.34c-0.41-1.29-0.55-2.68-0.47-4.06c0.01-0.17,0.03-0.34,0.04-0.52
					c0.02-0.17,0.03-0.35,0.06-0.52c0.05-0.34,0.11-0.68,0.18-1.02c0.04-0.17,0.08-0.34,0.11-0.51c0.04-0.17,0.09-0.33,0.14-0.5
					c0.09-0.34,0.2-0.66,0.3-0.99c0.43-1.31,0.96-2.57,1.49-3.82c0.54-1.24,1.13-2.45,1.75-3.6c0.62-1.16,1.28-2.26,1.95-3.31
					c0.67-1.04,1.34-2.03,1.99-2.95c0.66-0.92,1.29-1.77,1.89-2.55c0.6-0.78,1.17-1.48,1.68-2.09c0.51-0.61,0.96-1.14,1.34-1.57
					c0.38-0.43,0.68-0.76,0.89-0.99c0.21-0.22,0.32-0.34,0.32-0.34L67.91,62.46z"/>
				<path class="st1" d="M59.26,69.55c0,0-0.07,0.11-0.21,0.32c-0.13,0.21-0.34,0.51-0.58,0.91c-0.25,0.39-0.55,0.87-0.88,1.42
					c-0.34,0.55-0.7,1.18-1.1,1.86c-0.4,0.68-0.82,1.43-1.24,2.22c-0.42,0.8-0.86,1.63-1.29,2.51c-0.43,0.88-0.84,1.79-1.24,2.72
					c-0.39,0.93-0.77,1.88-1.07,2.83c-0.07,0.24-0.15,0.48-0.22,0.72c-0.03,0.12-0.07,0.24-0.1,0.36l-0.08,0.36
					c-0.06,0.24-0.1,0.48-0.15,0.72c-0.04,0.24-0.08,0.47-0.11,0.71c-0.03,0.23-0.06,0.47-0.08,0.69c-0.01,0.11-0.02,0.23-0.03,0.34
					c-0.01,0.11-0.02,0.22-0.02,0.33c-0.01,0.11-0.02,0.22-0.02,0.33c0,0.11-0.02,0.21-0.02,0.32c0,0.21-0.03,0.42-0.02,0.62
					c-0.02,0.41-0.01,0.78-0.01,1.15c0.01,0.09,0.01,0.18,0.01,0.27l0.01,0.26l0.02,0.26l0.03,0.25c0.08,0.66,0.25,1.25,0.5,1.8
					c0.25,0.55,0.58,1.06,0.94,1.5c0.35,0.45,0.74,0.82,1.06,1.14c0.17,0.16,0.32,0.3,0.46,0.42L54,97.06l0.16,0.14
					c0.2,0.17,0.3,0.27,0.3,0.27l-0.13,0.4c0,0-0.14,0.02-0.42,0.03c-0.14,0-0.31,0.01-0.51,0c-0.2-0.01-0.43-0.03-0.69-0.06
					c-0.51-0.08-1.15-0.2-1.84-0.5c-0.7-0.29-1.48-0.75-2.21-1.46c-0.09-0.09-0.18-0.18-0.27-0.27c-0.08-0.1-0.17-0.2-0.25-0.3
					c-0.18-0.2-0.32-0.43-0.48-0.66c-0.08-0.11-0.14-0.24-0.21-0.36c-0.07-0.12-0.14-0.25-0.2-0.38c-0.12-0.26-0.25-0.52-0.34-0.8
					c-0.21-0.55-0.34-1.13-0.43-1.71c-0.03-0.29-0.07-0.59-0.08-0.88c0-0.15-0.01-0.3-0.01-0.45c0.01-0.15,0.01-0.29,0.02-0.44
					c0.06-1.18,0.37-2.32,0.76-3.41c0.4-1.09,0.87-2.12,1.35-3.13c0.48-1.01,1.01-1.99,1.57-2.91c0.55-0.93,1.14-1.81,1.72-2.65
					c0.59-0.83,1.18-1.62,1.76-2.34c0.58-0.73,1.14-1.4,1.66-2.01c0.52-0.61,1.02-1.16,1.47-1.64c0.44-0.48,0.84-0.89,1.17-1.22
					c0.33-0.33,0.59-0.59,0.77-0.77c0.18-0.17,0.28-0.27,0.28-0.27l0.22,0.05L59.26,69.55"/>
			</g>
		</g>
	</g>
	<circle class="st2" cx="67.4" cy="70.09" r="38.31"/>
</g>
<g id="Livello_1">
	<circle class="st3" cx="67.4" cy="70.09" r="43.95"/>
	<circle class="st3" cx="67.4" cy="42.09" r="5.75"/>
</g>
</svg>
