  0
SECTION
  2
HEADER
  9
$ACADVER
  1
AC1032
  9
$ACADMAINTVER
 90
      197
  9
$DWGCODEPAGE
  3
ANSI_1252
  9
$REQUIREDVERSIONS
160
                 0
  9
$INSBASE
 10
0.0
 20
0.0
 30
0.0
  9
$EXTMIN
 10
1.000000000000000E+20
 20
1.000000000000000E+20
 30
1.000000000000000E+20
  9
$EXTMAX
 10
-1.000000000000000E+20
 20
-1.000000000000000E+20
 30
-1.000000000000000E+20
  9
$LIMMIN
 10
0.0
 20
0.0
  9
$LIMMAX
 10
12.0
 20
9.0
  9
$ORTHOMODE
 70
     0
  9
$REGENMODE
 70
     1
  9
$FILLMODE
 70
     1
  9
$QTEXTMODE
 70
     0
  9
$MIRRTEXT
 70
     0
  9
$LTSCALE
 40
1.0
  9
$ATTMODE
 70
     1
  9
$TEXTSIZE
 40
0.2
  9
$TRACEWID
 40
0.05
  9
$TEXTSTYLE
  7
Standard
  9
$CLAYER
  8
0
  9
$CELTYPE
  6
ByLayer
  9
$CECOLOR
 62
   256
  9
$CELTSCALE
 40
1.0
  9
$DISPSILH
 70
     0
  9
$DIMSCALE
 40
1.0
  9
$DIMASZ
 40
0.18
  9
$DIMEXO
 40
0.0625
  9
$DIMDLI
 40
0.38
  9
$DIMRND
 40
0.0
  9
$DIMDLE
 40
0.0
  9
$DIMEXE
 40
0.18
  9
$DIMTP
 40
0.0
  9
$DIMTM
 40
0.0
  9
$DIMTXT
 40
0.18
  9
$DIMCEN
 40
0.09
  9
$DIMTSZ
 40
0.0
  9
$DIMTOL
 70
     0
  9
$DIMLIM
 70
     0
  9
$DIMTIH
 70
     1
  9
$DIMTOH
 70
     1
  9
$DIMSE1
 70
     0
  9
$DIMSE2
 70
     0
  9
$DIMTAD
 70
     0
  9
$DIMZIN
 70
     0
  9
$DIMBLK
  1

  9
$DIMASO
 70
     1
  9
$DIMSHO
 70
     1
  9
$DIMPOST
  1

  9
$DIMAPOST
  1

  9
$DIMALT
 70
     0
  9
$DIMALTD
 70
     2
  9
$DIMALTF
 40
25.4
  9
$DIMLFAC
 40
1.0
  9
$DIMTOFL
 70
     0
  9
$DIMTVP
 40
0.0
  9
$DIMTIX
 70
     0
  9
$DIMSOXD
 70
     0
  9
$DIMSAH
 70
     0
  9
$DIMBLK1
  1

  9
$DIMBLK2
  1

  9
$DIMSTYLE
  2
Standard
  9
$DIMCLRD
 70
     0
  9
$DIMCLRE
 70
     0
  9
$DIMCLRT
 70
     0
  9
$DIMTFAC
 40
1.0
  9
$DIMGAP
 40
0.09
  9
$DIMJUST
 70
     0
  9
$DIMSD1
 70
     0
  9
$DIMSD2
 70
     0
  9
$DIMTOLJ
 70
     1
  9
$DIMTZIN
 70
     0
  9
$DIMALTZ
 70
     0
  9
$DIMALTTZ
 70
     0
  9
$DIMUPT
 70
     0
  9
$DIMDEC
 70
     4
  9
$DIMTDEC
 70
     4
  9
$DIMALTU
 70
     2
  9
$DIMALTTD
 70
     2
  9
$DIMTXSTY
  7
Standard
  9
$DIMAUNIT
 70
     0
  9
$DIMADEC
 70
     0
  9
$DIMALTRND
 40
0.0
  9
$DIMAZIN
 70
     0
  9
$DIMDSEP
 70
    46
  9
$DIMATFIT
 70
     3
  9
$DIMFRAC
 70
     0
  9
$DIMLDRBLK
  1

  9
$DIMLUNIT
 70
     2
  9
$DIMLWD
 70
    -2
  9
$DIMLWE
 70
    -2
  9
$DIMTMOVE
 70
     0
  9
$DIMFXL
 40
1.0
  9
$DIMFXLON
 70
     0
  9
$DIMJOGANG
 40
0.7853981633974483
  9
$DIMTFILL
 70
     0
  9
$DIMTFILLCLR
 70
     0
  9
$DIMARCSYM
 70
     0
  9
$DIMLTYPE
  6

  9
$DIMLTEX1
  6

  9
$DIMLTEX2
  6

  9
$DIMTXTDIRECTION
 70
     0
  9
$LUNITS
 70
     2
  9
$LUPREC
 70
     4
  9
$SKETCHINC
 40
0.1
  9
$FILLETRAD
 40
0.0
  9
$AUNITS
 70
     0
  9
$AUPREC
 70
     0
  9
$MENU
  1
.
  9
$ELEVATION
 40
0.0
  9
$PELEVATION
 40
0.0
  9
$THICKNESS
 40
0.0
  9
$LIMCHECK
 70
     0
  9
$CHAMFERA
 40
0.0
  9
$CHAMFERB
 40
0.0
  9
$CHAMFERC
 40
0.0
  9
$CHAMFERD
 40
0.0
  9
$SKPOLY
 70
     0
  9
$TDCREATE
 40
2459562.670196759
  9
$TDUCREATE
 40
2459562.628530093
  9
$TDUPDATE
 40
2459562.670196759
  9
$TDUUPDATE
 40
2459562.628530093
  9
$TDINDWG
 40
0.0000000000
  9
$TDUSRTIMER
 40
0.0000000000
  9
$USRTIMER
 70
     1
  9
$ANGBASE
 50
0.0
  9
$ANGDIR
 70
     0
  9
$PDMODE
 70
     0
  9
$PDSIZE
 40
0.0
  9
$PLINEWID
 40
0.0
  9
$SPLFRAME
 70
     0
  9
$SPLINETYPE
 70
     6
  9
$SPLINESEGS
 70
     8
  9
$HANDSEED
  5
9A
  9
$SURFTAB1
 70
     6
  9
$SURFTAB2
 70
     6
  9
$SURFTYPE
 70
     6
  9
$SURFU
 70
     6
  9
$SURFV
 70
     6
  9
$UCSBASE
  2

  9
$UCSNAME
  2

  9
$UCSORG
 10
0.0
 20
0.0
 30
0.0
  9
$UCSXDIR
 10
1.0
 20
0.0
 30
0.0
  9
$UCSYDIR
 10
0.0
 20
1.0
 30
0.0
  9
$UCSORTHOREF
  2

  9
$UCSORTHOVIEW
 70
     0
  9
$UCSORGTOP
 10
0.0
 20
0.0
 30
0.0
  9
$UCSORGBOTTOM
 10
0.0
 20
0.0
 30
0.0
  9
$UCSORGLEFT
 10
0.0
 20
0.0
 30
0.0
  9
$UCSORGRIGHT
 10
0.0
 20
0.0
 30
0.0
  9
$UCSORGFRONT
 10
0.0
 20
0.0
 30
0.0
  9
$UCSORGBACK
 10
0.0
 20
0.0
 30
0.0
  9
$PUCSBASE
  2

  9
$PUCSNAME
  2

  9
$PUCSORG
 10
0.0
 20
0.0
 30
0.0
  9
$PUCSXDIR
 10
1.0
 20
0.0
 30
0.0
  9
$PUCSYDIR
 10
0.0
 20
1.0
 30
0.0
  9
$PUCSORTHOREF
  2

  9
$PUCSORTHOVIEW
 70
     0
  9
$PUCSORGTOP
 10
0.0
 20
0.0
 30
0.0
  9
$PUCSORGBOTTOM
 10
0.0
 20
0.0
 30
0.0
  9
$PUCSORGLEFT
 10
0.0
 20
0.0
 30
0.0
  9
$PUCSORGRIGHT
 10
0.0
 20
0.0
 30
0.0
  9
$PUCSORGFRONT
 10
0.0
 20
0.0
 30
0.0
  9
$PUCSORGBACK
 10
0.0
 20
0.0
 30
0.0
  9
$USERI1
 70
     0
  9
$USERI2
 70
     0
  9
$USERI3
 70
     0
  9
$USERI4
 70
     0
  9
$USERI5
 70
     0
  9
$USERR1
 40
0.0
  9
$USERR2
 40
0.0
  9
$USERR3
 40
0.0
  9
$USERR4
 40
0.0
  9
$USERR5
 40
0.0
  9
$WORLDVIEW
 70
     1
  9
$SHADEDGE
 70
     3
  9
$SHADEDIF
 70
    70
  9
$TILEMODE
 70
     1
  9
$MAXACTVP
 70
    64
  9
$PINSBASE
 10
0.0
 20
0.0
 30
0.0
  9
$PLIMCHECK
 70
     0
  9
$PEXTMIN
 10
1.000000000000000E+20
 20
1.000000000000000E+20
 30
1.000000000000000E+20
  9
$PEXTMAX
 10
-1.000000000000000E+20
 20
-1.000000000000000E+20
 30
-1.000000000000000E+20
  9
$PLIMMIN
 10
0.0
 20
0.0
  9
$PLIMMAX
 10
12.0
 20
9.0
  9
$UNITMODE
 70
     0
  9
$VISRETAIN
 70
     1
  9
$PLINEGEN
 70
     0
  9
$PSLTSCALE
 70
     1
  9
$TREEDEPTH
 70
  3020
  9
$CMLSTYLE
  2
Standard
  9
$CMLJUST
 70
     0
  9
$CMLSCALE
 40
1.0
  9
$PROXYGRAPHICS
 70
     1
  9
$MEASUREMENT
 70
     0
  9
$CELWEIGHT
370
    -1
  9
$ENDCAPS
280
     0
  9
$JOINSTYLE
280
     0
  9
$LWDISPLAY
290
     1
  9
$INSUNITS
 70
     4
  9
$HYPERLINKBASE
  1

  9
$STYLESHEET
  1

  9
$XEDIT
290
     1
  9
$CEPSNTYPE
380
     0
  9
$PSTYLEMODE
290
     1
  9
$FINGERPRINTGUID
  2
{23C665EB-0CDE-7B4F-A74E-BF20FAE51781}
  9
$VERSIONGUID
  2
{D6118710-2374-414D-8306-D80425034F14}
  9
$EXTNAMES
290
     1
  9
$PSVPSCALE
 40
0.0
  9
$OLESTARTUP
290
     0
  9
$SORTENTS
280
   127
  9
$INDEXCTL
280
     0
  9
$HIDETEXT
280
     1
  9
$XCLIPFRAME
280
     2
  9
$HALOGAP
280
     0
  9
$OBSCOLOR
 70
   257
  9
$OBSLTYPE
280
     0
  9
$INTERSECTIONDISPLAY
280
     0
  9
$INTERSECTIONCOLOR
 70
   257
  9
$DIMASSOC
280
     2
  9
$PROJECTNAME
  1

  9
$CAMERADISPLAY
290
     0
  9
$LENSLENGTH
 40
50.0
  9
$CAMERAHEIGHT
 40
0.0
  9
$STEPSPERSEC
 40
2.0
  9
$STEPSIZE
 40
6.0
  9
$3DDWFPREC
 40
2.0
  9
$PSOLWIDTH
 40
0.25
  9
$PSOLHEIGHT
 40
4.0
  9
$LOFTANG1
 40
1.570796326794896
  9
$LOFTANG2
 40
1.570796326794896
  9
$LOFTMAG1
 40
0.0
  9
$LOFTMAG2
 40
0.0
  9
$LOFTPARAM
 70
     7
  9
$LOFTNORMALS
280
     1
  9
$LATITUDE
 40
37.795
  9
$LONGITUDE
 40
-122.394
  9
$NORTHDIRECTION
 40
0.0
  9
$TIMEZONE
 70
 -8000
  9
$LIGHTGLYPHDISPLAY
280
     1
  9
$TILEMODELIGHTSYNCH
280
     1
  9
$CMATERIAL
347
11
  9
$SOLIDHIST
280
     0
  9
$SHOWHIST
280
     1
  9
$DWFFRAME
280
     2
  9
$DGNFRAME
280
     0
  9
$REALWORLDSCALE
290
     1
  9
$INTERFERECOLOR
 62
     1
  9
$INTERFEREOBJVS
345
33
  9
$INTERFEREVPVS
346
30
  9
$CSHADOW
280
     0
  9
$SHADOWPLANELOCATION
 40
0.0
  0
ENDSEC
  0
SECTION
  2
CLASSES
  0
CLASS
  1
ACDBDICTIONARYWDFLT
  2
AcDbDictionaryWithDefault
  3
ObjectDBX Classes
 90
        0
 91
        1
280
     0
281
     0
  0
CLASS
  1
MATERIAL
  2
AcDbMaterial
  3
ObjectDBX Classes
 90
     1153
 91
        3
280
     0
281
     0
  0
CLASS
  1
VISUALSTYLE
  2
AcDbVisualStyle
  3
ObjectDBX Classes
 90
     4095
 91
       24
280
     0
281
     0
  0
CLASS
  1
SCALE
  2
AcDbScale
  3
ObjectDBX Classes
 90
     1153
 91
       17
280
     0
281
     0
  0
CLASS
  1
TABLESTYLE
  2
AcDbTableStyle
  3
ObjectDBX Classes
 90
     4095
 91
        1
280
     0
281
     0
  0
CLASS
  1
MLEADERSTYLE
  2
AcDbMLeaderStyle
  3
ACDB_MLEADERSTYLE_CLASS
 90
     4095
 91
        1
280
     0
281
     0
  0
CLASS
  1
ACDBSECTIONVIEWSTYLE
  2
AcDbSectionViewStyle
  3
ObjectDBX Classes
 90
     1025
 91
        1
280
     0
281
     0
  0
CLASS
  1
ACDBDETAILVIEWSTYLE
  2
AcDbDetailViewStyle
  3
ObjectDBX Classes
 90
     1025
 91
        1
280
     0
281
     0
  0
CLASS
  1
DICTIONARYVAR
  2
AcDbDictionaryVar
  3
ObjectDBX Classes
 90
        0
 91
        5
280
     0
281
     0
  0
CLASS
  1
CELLSTYLEMAP
  2
AcDbCellStyleMap
  3
ObjectDBX Classes
 90
     1152
 91
        1
280
     0
281
     0
  0
ENDSEC
  0
SECTION
  2
TABLES
  0
TABLE
  2
VPORT
  5
8
330
0
100
AcDbSymbolTable
 70
     1
  0
VPORT
  5
57
330
8
100
AcDbSymbolTableRecord
100
AcDbViewportTableRecord
  2
*Active
 70
     0
 10
0.0
 20
0.0
 11
1.0
 21
1.0
 12
0.0
 22
0.0
 13
0.0
 23
0.0
 14
1.0
 24
1.0
 15
0.0
 25
0.0
 16
0.0
 26
0.0
 36
1.0
 17
105.0000721959722
 27
-148.5000416295415
 37
0.0
 40
302.9400849242648
 41
0.707070995023103
 42
50.0
 43
0.0
 44
0.0
 50
0.0
 51
0.0
 71
     0
 72
   100
 73
     1
 74
     1
 75
     0
 76
     0
 77
     0
 78
     0
281
     0
 65
     1
110
0.0
120
0.0
130
0.0
111
1.0
121
0.0
131
0.0
112
0.0
122
1.0
132
0.0
 79
     0
146
0.0
 60
     3
 61
     5
292
     1
282
     1
141
0.0
142
0.0
 63
   250
421
  3355443
  0
ENDTAB
  0
TABLE
  2
LTYPE
  5
5
330
0
100
AcDbSymbolTable
 70
     1
  0
LTYPE
  5
5B
330
5
100
AcDbSymbolTableRecord
100
AcDbLinetypeTableRecord
  2
ByBlock
 70
     0
  3

 72
    65
 73
     0
 40
0.0
  0
LTYPE
  5
5C
330
5
100
AcDbSymbolTableRecord
100
AcDbLinetypeTableRecord
  2
ByLayer
 70
     0
  3

 72
    65
 73
     0
 40
0.0
  0
LTYPE
  5
5D
330
5
100
AcDbSymbolTableRecord
100
AcDbLinetypeTableRecord
  2
Continuous
 70
     0
  3
Solid line
 72
    65
 73
     0
 40
0.0
  0
ENDTAB
  0
TABLE
  2
LAYER
  5
2
330
0
100
AcDbSymbolTable
 70
     3
  0
LAYER
  5
54
330
2
100
AcDbSymbolTableRecord
100
AcDbLayerTableRecord
  2
0
 70
     0
 62
     7
  6
Continuous
370
    -3
390
F
347
21
348
0
  0
LAYER
  5
78
330
2
100
AcDbSymbolTableRecord
100
AcDbLayerTableRecord
  2
Livello 2
 70
     0
 62
     7
  6
Continuous
370
     0
390
F
347
21
348
0
  0
LAYER
  5
8E
330
2
100
AcDbSymbolTableRecord
100
AcDbLayerTableRecord
  2
Livello 1
 70
     0
 62
     7
  6
Continuous
370
     0
390
F
347
21
348
0
  0
ENDTAB
  0
TABLE
  2
STYLE
  5
3
330
0
100
AcDbSymbolTable
 70
     2
  0
STYLE
  5
55
330
3
100
AcDbSymbolTableRecord
100
AcDbTextStyleTableRecord
  2
Standard
 70
     0
 40
0.0
 41
1.0
 50
0.0
 71
     0
 42
0.2
  3
txt
  4

  0
STYLE
  5
5A
330
3
100
AcDbSymbolTableRecord
100
AcDbTextStyleTableRecord
  2
Annotative
 70
     0
 40
0.0
 41
1.0
 50
0.0
 71
     0
 42
0.2
  3
txt
  4

1001
AcadAnnotative
1000
AnnotativeData
1002
{
1070
     1
1070
     1
1002
}
  0
ENDTAB
  0
TABLE
  2
VIEW
  5
6
330
0
100
AcDbSymbolTable
 70
     0
  0
ENDTAB
  0
TABLE
  2
UCS
  5
7
330
0
100
AcDbSymbolTable
 70
     0
  0
ENDTAB
  0
TABLE
  2
APPID
  5
9
330
0
100
AcDbSymbolTable
 70
     2
  0
APPID
  5
56
330
9
100
AcDbSymbolTableRecord
100
AcDbRegAppTableRecord
  2
ACAD
 70
     0
  0
APPID
  5
5E
330
9
100
AcDbSymbolTableRecord
100
AcDbRegAppTableRecord
  2
AcadAnnotative
 70
     0
  0
ENDTAB
  0
TABLE
  2
DIMSTYLE
  5
A
330
0
100
AcDbSymbolTable
 70
     2
100
AcDbDimStyleTable
 71
     0
  0
DIMSTYLE
105
58
330
A
100
AcDbSymbolTableRecord
100
AcDbDimStyleTableRecord
  2
Standard
 70
     0
340
55
  0
DIMSTYLE
105
59
330
A
100
AcDbSymbolTableRecord
100
AcDbDimStyleTableRecord
  2
Annotative
 70
     0
340
55
1001
AcadAnnotative
1000
AnnotativeData
1002
{
1070
     1
1070
     1
1002
}
  0
ENDTAB
  0
TABLE
  2
BLOCK_RECORD
  5
1
330
0
100
AcDbSymbolTable
 70
     4
  0
BLOCK_RECORD
  5
70
330
1
100
AcDbSymbolTableRecord
100
AcDbBlockTableRecord
  2
*Model_Space
340
73
 70
     0
280
     1
281
     0
  0
BLOCK_RECORD
  5
6C
330
1
100
AcDbSymbolTableRecord
100
AcDbBlockTableRecord
  2
*Paper_Space
340
6F
 70
     0
280
     1
281
     0
  0
BLOCK_RECORD
  5
74
330
1
100
AcDbSymbolTableRecord
100
AcDbBlockTableRecord
  2
*Paper_Space0
340
77
 70
     0
280
     1
281
     0
  0
BLOCK_RECORD
  5
79
330
1
100
AcDbSymbolTableRecord
100
AcDbBlockTableRecord
  2
Block_0
340
0
102
{BLKREFS
331
7A
102
}
 70
     0
280
     1
281
     0
  0
BLOCK_RECORD
  5
7D
330
1
100
AcDbSymbolTableRecord
100
AcDbBlockTableRecord
  2
Block_1
340
0
102
{BLKREFS
331
7E
102
}
 70
     0
280
     1
281
     0
  0
BLOCK_RECORD
  5
81
330
1
100
AcDbSymbolTableRecord
100
AcDbBlockTableRecord
  2
Block_2
340
0
102
{BLKREFS
331
82
102
}
 70
     0
280
     1
281
     0
  0
ENDTAB
  0
ENDSEC
  0
SECTION
  2
BLOCKS
  0
BLOCK
  5
71
330
70
100
AcDbEntity
  8
0
100
AcDbBlockBegin
  2
*Model_Space
 70
     0
 10
0.0
 20
0.0
 30
0.0
  3
*Model_Space
  1

  0
ENDBLK
  5
72
330
70
100
AcDbEntity
  8
0
100
AcDbBlockEnd
  0
BLOCK
  5
6D
330
6C
100
AcDbEntity
 67
     1
  8
0
100
AcDbBlockBegin
  2
*Paper_Space
 70
     0
 10
0.0
 20
0.0
 30
0.0
  3
*Paper_Space
  1

  0
ENDBLK
  5
6E
330
6C
100
AcDbEntity
 67
     1
  8
0
100
AcDbBlockEnd
  0
BLOCK
  5
75
330
74
100
AcDbEntity
 67
     1
  8
0
100
AcDbBlockBegin
  2
*Paper_Space0
 70
     0
 10
0.0
 20
0.0
 30
0.0
  3
*Paper_Space0
  1

  0
ENDBLK
  5
76
330
74
100
AcDbEntity
 67
     1
  8
0
100
AcDbBlockEnd
  0
BLOCK
  5
7B
330
79
100
AcDbEntity
  8
0
100
AcDbBlockBegin
  2
Block_0
 70
     0
 10
0.0
 20
0.0
 30
0.0
  3
Block_0
  1

  0
INSERT
  5
7E
330
79
100
AcDbEntity
  8
Livello 2
100
AcDbBlockReference
  2
Block_1
 10
0.0
 20
0.0
 30
0.0
  0
ENDBLK
  5
7C
330
79
100
AcDbEntity
  8
0
100
AcDbBlockEnd
  0
BLOCK
  5
7F
330
7D
100
AcDbEntity
  8
0
100
AcDbBlockBegin
  2
Block_1
 70
     0
 10
0.0
 20
0.0
 30
0.0
  3
Block_1
  1

  0
INSERT
  5
82
330
7D
100
AcDbEntity
  8
Livello 2
100
AcDbBlockReference
  2
Block_2
 10
0.0
 20
0.0
 30
0.0
  0
ENDBLK
  5
80
330
7D
100
AcDbEntity
  8
0
100
AcDbBlockEnd
  0
BLOCK
  5
83
330
81
100
AcDbEntity
  8
0
100
AcDbBlockBegin
  2
Block_2
 70
     0
 10
0.0
 20
0.0
 30
0.0
  3
Block_2
  1

  0
SPLINE
  5
85
330
81
100
AcDbEntity
  8
Livello 2
100
AcDbSpline
210
0.0
220
0.0
230
1.0
 70
    11
 71
     3
 72
   218
 73
   214
 74
     0
 42
0.0000000001
 43
0.0000000001
 40
0.0
 40
0.0
 40
0.0
 40
0.0
 40
1.0
 40
1.0
 40
1.0
 40
2.0
 40
2.0
 40
2.0
 40
3.0
 40
3.0
 40
3.0
 40
4.0
 40
4.0
 40
4.0
 40
5.0
 40
5.0
 40
5.0
 40
6.0
 40
6.0
 40
6.0
 40
7.0
 40
7.0
 40
7.0
 40
8.0
 40
8.0
 40
8.0
 40
9.0
 40
9.0
 40
9.0
 40
10.0
 40
10.0
 40
10.0
 40
11.0
 40
11.0
 40
11.0
 40
12.0
 40
12.0
 40
12.0
 40
13.0
 40
13.0
 40
13.0
 40
14.0
 40
14.0
 40
14.0
 40
15.0
 40
15.0
 40
15.0
 40
16.0
 40
16.0
 40
16.0
 40
17.0
 40
17.0
 40
17.0
 40
18.0
 40
18.0
 40
18.0
 40
19.0
 40
19.0
 40
19.0
 40
20.0
 40
20.0
 40
20.0
 40
21.0
 40
21.0
 40
21.0
 40
22.0
 40
22.0
 40
22.0
 40
23.0
 40
23.0
 40
23.0
 40
24.0
 40
24.0
 40
24.0
 40
25.0
 40
25.0
 40
25.0
 40
26.0
 40
26.0
 40
26.0
 40
27.0
 40
27.0
 40
27.0
 40
28.0
 40
28.0
 40
28.0
 40
29.0
 40
29.0
 40
29.0
 40
30.0
 40
30.0
 40
30.0
 40
31.0
 40
31.0
 40
31.0
 40
32.0
 40
32.0
 40
32.0
 40
33.0
 40
33.0
 40
33.0
 40
34.0
 40
34.0
 40
34.0
 40
35.0
 40
35.0
 40
35.0
 40
36.0
 40
36.0
 40
36.0
 40
37.0
 40
37.0
 40
37.0
 40
38.0
 40
38.0
 40
38.0
 40
39.0
 40
39.0
 40
39.0
 40
40.0
 40
40.0
 40
40.0
 40
41.0
 40
41.0
 40
41.0
 40
42.0
 40
42.0
 40
42.0
 40
43.0
 40
43.0
 40
43.0
 40
44.0
 40
44.0
 40
44.0
 40
45.0
 40
45.0
 40
45.0
 40
46.0
 40
46.0
 40
46.0
 40
47.0
 40
47.0
 40
47.0
 40
48.0
 40
48.0
 40
48.0
 40
49.0
 40
49.0
 40
49.0
 40
50.0
 40
50.0
 40
50.0
 40
51.0
 40
51.0
 40
51.0
 40
52.0
 40
52.0
 40
52.0
 40
53.0
 40
53.0
 40
53.0
 40
54.0
 40
54.0
 40
54.0
 40
55.0
 40
55.0
 40
55.0
 40
56.0
 40
56.0
 40
56.0
 40
57.0
 40
57.0
 40
57.0
 40
58.0
 40
58.0
 40
58.0
 40
59.0
 40
59.0
 40
59.0
 40
60.0
 40
60.0
 40
60.0
 40
61.0
 40
61.0
 40
61.0
 40
62.0
 40
62.0
 40
62.0
 40
63.0
 40
63.0
 40
63.0
 40
64.0
 40
64.0
 40
64.0
 40
65.0
 40
65.0
 40
65.0
 40
66.0
 40
66.0
 40
66.0
 40
67.0
 40
67.0
 40
67.0
 40
68.0
 40
68.0
 40
68.0
 40
69.0
 40
69.0
 40
69.0
 40
70.0
 40
70.0
 40
70.0
 40
71.0
 40
71.0
 40
71.0
 40
71.0
 10
27.66662770577507
 20
-18.55091117174164
 30
0.0
 10
27.66662770577507
 20
-18.55091117174164
 30
0.0
 10
27.62630393971256
 20
-18.61172249001799
 30
0.0
 10
27.55060334938589
 20
-18.72572285280959
 30
0.0
 10
27.47571020331357
 20
-18.84044453246841
 30
0.0
 10
27.36511187231366
 20
-19.00836602256586
 30
0.0
 10
27.22836311339603
 20
-19.22445963687815
 30
0.0
 10
27.09178122629096
 20
-19.44079548446676
 30
0.0
 10
26.92685266289632
 20
-19.7039308010378
 30
0.0
 10
26.74136656878579
 20
-20.00754598956053
 30
0.0
 10
26.55571360286269
 20
-20.31091894480695
 30
0.0
 10
26.35265752177739
 20
-20.65712412626608
 30
0.0
 10
26.13372708665146
 20
-21.03530948315938
 30
0.0
 10
25.9152057566144
 20
-21.41365363742271
 30
0.0
 10
25.68470195384271
 20
-21.8267340435084
 30
0.0
 10
25.45062924746676
 20
-22.26766320192682
 30
0.0
 10
25.21721326241769
 20
-22.70908490134039
 30
0.0
 10
24.97577666444203
 20
-23.17584420145563
 30
0.0
 10
24.74203231872952
 20
-23.66503161147602
 30
0.0
 10
24.50634472384487
 20
-24.15299978067233
 30
0.0
 10
24.27738044811814
 20
-24.66266935994487
 30
0.0
 10
24.05885373511939
 20
-25.18343322327226
 30
0.0
 10
23.8427601208071
 20
-25.70516871118571
 30
0.0
 10
23.63589290284124
 20
-26.23799310019232
 30
0.0
 10
23.46190481491273
 20
-26.77705634180425
 30
0.0
 10
23.41940094936346
 20
-26.91218482925147
 30
0.0
 10
23.37486770725491
 20
-27.04642243653806
 30
0.0
 10
23.33810746183495
 20
-27.18228300677591
 30
0.0
 10
23.33810746183495
 20
-27.18228300677591
 30
0.0
 10
23.28102653601372
 20
-27.38541983228665
 30
0.0
 10
23.28102653601372
 20
-27.38541983228665
 30
0.0
 10
23.28102653601372
 20
-27.38541983228665
 30
0.0
 10
23.23058818492498
 20
-27.58936948501343
 30
0.0
 10
23.23058818492498
 20
-27.58936948501343
 30
0.0
 10
23.1953728495117
 20
-27.72482364164325
 30
0.0
 10
23.16857108322879
 20
-27.86084300925113
 30
0.0
 10
23.13845341254133
 20
-27.99581000784748
 30
0.0
 10
23.11198000692186
 20
-28.13118611153271
 30
0.0
 10
23.08679851210937
 20
-28.26598892979735
 30
0.0
 10
23.06404473302163
 20
-28.39998430380763
 30
0.0
 10
23.04445075244927
 20
-28.53422460257508
 30
0.0
 10
23.0191131517476
 20
-28.66708686314841
 30
0.0
 10
23.00502055802825
 20
-28.79930047683742
 30
0.0
 10
22.9964401170853
 20
-28.86536825720963
 30
0.0
 10
22.98899009809845
 20
-28.93127454873097
 30
0.0
 10
22.97976370175201
 20
-28.99661293779341
 30
0.0
 10
22.97312112701952
 20
-29.06178714652413
 30
0.0
 10
22.96656467967415
 20
-29.12679986640398
 30
0.0
 10
22.96000823232878
 20
-29.19157304448838
 30
0.0
 10
22.94292271190662
 20
-29.32103596475088
 30
0.0
 10
22.93830413077171
 20
-29.44855563584123
 30
0.0
 10
22.92519123608098
 20
-29.57485875758835
 30
0.0
 10
22.91944223298997
 20
-29.63801166420234
 30
0.0
 10
22.91887702201192
 20
-29.70027099917484
 30
0.0
 10
22.91385471874983
 20
-29.76245228120275
 30
0.0
 10
22.91094253647245
 20
-29.82439132995436
 30
0.0
 10
22.90389623961278
 20
-29.88681484525857
 30
0.0
 10
22.90405772846365
 20
-29.94753734466695
 30
0.0
 10
22.90009586865561
 20
-30.06939144857258
 30
0.0
 10
22.89386239901199
 20
-30.1909979362402
 30
0.0
 10
22.89507356539352
 20
-30.30863987261894
 30
0.0
 10
22.89515430981895
 20
-30.36766135613147
 30
0.0
 10
22.89329180507224
 20
-30.42716999767747
 30
0.0
 10
22.89466984326634
 20
-30.48505836775305
 30
0.0
 10
22.89620937031131
 20
-30.54294942930949
 30
0.0
 10
22.89782425882002
 20
-30.60051751316419
 30
0.0
 10
22.89936378586499
 20
-30.65767649193001
 30
0.0
 10
22.89977289095387
 20
-30.71548411758016
 30
0.0
 10
22.90421921731452
 20
-30.77143192996445
 30
0.0
 10
22.90786886534421
 20
-30.82721556201702
 30
0.0
 10
22.9115077474505
 20
-30.88307993849503
 30
0.0
 10
22.91507126809305
 20
-30.93870477317757
 30
0.0
 10
22.91863478873561
 20
-30.99408468310296
 30
0.0
 10
22.92592331887159
 20
-31.04800311892797
 30
0.0
 10
22.93118785540999
 20
-31.10216917099098
 30
0.0
 10
22.93725445324104
 20
-31.15601224535224
 30
0.0
 10
22.93725445324104
 20
-31.15601224535224
 30
0.0
 10
22.94575414975856
 20
-31.23673513894101
 30
0.0
 10
22.94575414975856
 20
-31.23673513894101
 30
0.0
 10
22.94575414975856
 20
-31.23673513894101
 30
0.0
 10
22.9591146606873
 20
-31.31486344499244
 30
0.0
 10
22.9591146606873
 20
-31.31486344499244
 30
0.0
 10
23.02566959909297
 20
-31.73264048515763
 30
0.0
 10
23.14023517286261
 20
-32.11276639974224
 30
0.0
 10
23.30790904672206
 20
-32.44293842979072
 30
0.0
 10
23.47429639273624
 20
-32.77327464017091
 30
0.0
 10
23.68261701035994
 20
-33.06005192450948
 30
0.0
 10
23.89959881335202
 20
-33.30156657542973
 30
0.0
 10
23.95546318983003
 20
-33.36018433681509
 30
0.0
 10
24.01076235532999
 20
-33.41669736017743
 30
0.0
 10
24.06331082740344
 20
-33.47377828599866
 30
0.0
 10
24.1177164212619
 20
-33.52867103789059
 30
0.0
 10
24.1744689864197
 20
-33.57773673374693
 30
0.0
 10
24.22742118062033
 20
-33.62777136270848
 30
0.0
 10
24.22742118062033
 20
-33.62777136270848
 30
0.0
 10
24.30571635848433
 20
-33.70185437304559
 30
0.0
 10
24.30571635848433
 20
-33.70185437304559
 30
0.0
 10
24.30571635848433
 20
-33.70185437304559
 30
0.0
 10
24.38530344715529
 20
-33.76776066456693
 30
0.0
 10
24.38530344715529
 20
-33.76776066456693
 30
0.0
 10
24.43777117480331
 20
-33.81034796602249
 30
0.0
 10
24.48756357048856
 20
-33.85260959829544
 30
0.0
 10
24.53524584518909
 20
-33.89301141730255
 30
0.0
 10
24.73158937303986
 20
-34.0449024474702
 30
0.0
 10
24.89360037119543
 20
-34.16707683759671
 30
0.0
 10
25.00848353970512
 20
-34.24374905250946
 30
0.0
 10
25.12216092479497
 20
-34.32341957708671
 30
0.0
 10
25.18328983781137
 20
-34.36964845212941
 30
0.0
 10
25.18328983781137
 20
-34.36964845212941
 30
0.0
 10
25.18328983781137
 20
-34.36964845212941
 30
0.0
 10
25.13568292457458
 20
-34.50971849841329
 30
0.0
 10
25.13568292457458
 20
-34.50971849841329
 30
0.0
 10
25.13568292457458
 20
-34.50971849841329
 30
0.0
 10
25.05965397358447
 20
-34.50494111990835
 30
0.0
 10
24.9161872784706
 20
-34.48858768227681
 30
0.0
 10
24.7715040340135
 20
-34.47579238232612
 30
0.0
 10
24.56358713851698
 20
-34.43846961740896
 30
0.0
 10
24.29794336179573
 20
-34.36957039918482
 30
0.0
 10
24.23235735649529
 20
-34.34997641861246
 30
0.0
 10
24.16297098023768
 20
-34.3292466331223
 30
0.0
 10
24.09034944400095
 20
-34.30552392092934
 30
0.0
 10
24.05399830366987
 20
-34.29370562852643
 30
0.0
 10
24.01643061399556
 20
-34.28236911119527
 30
0.0
 10
23.97853994661951
 20
-34.26925352502369
 30
0.0
 10
23.94137597907237
 20
-34.25427543410541
 30
0.0
 10
23.90292010071827
 20
-34.23962032088886
 30
0.0
 10
23.8642973505516
 20
-34.22318344735103
 30
0.0
 10
23.7871379776054
 20
-34.19031239175622
 30
0.0
 10
23.70479481254623
 20
-34.15849370517292
 30
0.0
 10
23.62164958619441
 20
-34.11946723287907
 30
0.0
 10
23.53979627064955
 20
-34.07809648076675
 30
0.0
 10
23.45575208969454
 20
-34.03259430555297
 30
0.0
 10
23.36774604893149
 20
-33.98587827247681
 30
0.0
 10
23.02388783877169
 20
-33.78808134496821
 30
0.0
 10
22.65039642447704
 20
-33.5048675812722
 30
0.0
 10
22.32354837327566
 20
-33.10741391298912
 30
0.0
 10
21.99062295831982
 20
-32.71489911206187
 30
0.0
 10
21.72667481453273
 20
-32.20498460803217
 30
0.0
 10
21.5597276405022
 20
-31.64503816652177
 30
0.0
 10
21.54912320596167
 20
-31.60997893699765
 30
0.0
 10
21.538432644034
 20
-31.57475821862267
 30
0.0
 10
21.52774746506803
 20
-31.5394594473031
 30
0.0
 10
21.51932313001426
 20
-31.5039964956518
 30
0.0
 10
21.51082881645844
 20
-31.46837205514965
 30
0.0
 10
21.50232373697923
 20
-31.43266687022205
 30
0.0
 10
21.48556119425881
 20
-31.36109501151598
 30
0.0
 10
21.46799659024573
 20
-31.28903599477645
 30
0.0
 10
21.45220836359223
 20
-31.21608878935714
 30
0.0
 10
21.43917083036524
 20
-31.14330038130785
 30
0.0
 10
21.42783969599578
 20
-31.07010825113137
 30
0.0
 10
21.41569035144859
 20
-30.99627016555142
 30
0.0
 10
21.4097798595067
 20
-30.95934843128059
 30
0.0
 10
21.40386936756482
 20
-30.92226789963974
 30
0.0
 10
21.39795887562294
 20
-30.88510393209261
 30
0.0
 10
21.39229599991906
 20
-30.84794265602632
 30
0.0
 10
21.39027200632148
 20
-30.8110209217555
 30
0.0
 10
21.38646086944092
 20
-30.77369815683834
 30
0.0
 10
21.37958144439381
 20
-30.69913067994862
 30
0.0
 10
21.37277738081044
 20
-30.6242375338763
 30
0.0
 10
21.36589795576333
 20
-30.54885992125138
 30
0.0
 10
21.35990671939602
 20
-30.47356305305188
 30
0.0
 10
21.36063341922493
 20
-30.39875334288585
 30
0.0
 10
21.35796347022387
 20
-30.32305006107833
 30
0.0
 10
21.35035196238614
 20
-30.17116172239154
 30
0.0
 10
21.36007359120858
 20
-30.02089365517514
 30
0.0
 10
21.36509051150898
 20
-29.86835666960401
 30
0.0
 10
21.36711450510656
 20
-29.79184325206129
 30
0.0
 10
21.37779968407253
 20
-29.71727577517157
 30
0.0
 10
21.38387704782698
 20
-29.64133026008774
 30
0.0
 10
21.39140242827757
 20
-29.56571041418651
 30
0.0
 10
21.39747440907033
 20
-29.48903819927376
 30
0.0
 10
21.40913390410322
 20
-29.41398356435058
 30
0.0
 10
21.43164544991465
 20
-29.26387429450421
 30
0.0
 10
21.45309655227203
 20
-29.11166297811567
 30
0.0
 10
21.48540508836964
 20
-28.96284831055711
 30
0.0
 10
21.50126867648687
 20
-28.88828083366739
 30
0.0
 10
21.51706228610207
 20
-28.81346843202051
 30
0.0
 10
21.53309274603186
 20
-28.73841648857817
 30
0.0
 10
21.55195464381361
 20
-28.66457571151737
 30
0.0
 10
21.57082192455705
 20
-28.59049270118026
 30
0.0
 10
21.58976456676422
 20
-28.51633163789856
 30
0.0
 10
21.62619645152074
 20
-28.36743891739542
 30
0.0
 10
21.67226922067426
 20
-28.22218777047942
 30
0.0
 10
21.71501531949984
 20
-28.07499606587212
 30
0.0
 10
21.89653955380233
 20
-27.49067557380357
 30
0.0
 10
22.12089063135584
 20
-26.92214330838853
 30
0.0
 10
22.35342381068681
 20
-26.36332728883422
 30
0.0
 10
22.58700128458675
 20
-25.80459201370535
 30
0.0
 10
22.84584638068631
 20
-25.26205137883799
 30
0.0
 10
23.12104491441743
 20
-24.74128751551062
 30
0.0
 10
23.3943001989764
 20
-24.21963546350344
 30
0.0
 10
23.68471636542126
 20
-23.72040613843972
 30
0.0
 10
23.97562238138044
 20
-23.24530863065783
 30
0.0
 10
24.26960745142955
 20
-22.77199019171637
 30
0.0
 10
24.56293580015179
 20
-22.32199343432155
 30
0.0
 10
24.852549905304
 20
-21.90381267202917
 30
0.0
 10
25.14150728912933
 20
-21.48514475170334
 30
0.0
 10
25.42245482595145
 20
-21.09586780223605
 30
0.0
 10
25.68672594744029
 20
-20.74083994655765
 30
0.0
 10
25.95066870826569
 20
-20.38548911317752
 30
0.0
 10
26.20222527422928
 20
-20.06729686438283
 30
0.0
 10
26.42608650226847
 20
-19.78651619937327
 30
0.0
 10
26.65003924065649
 20
-19.50580551286576
 30
0.0
 10
26.84961792848637
 20
-19.26477801997897
 30
0.0
 10
27.01688808021864
 20
-19.06876823575334
 30
0.0
 10
27.18383525424917
 20
-18.87242470790258
 30
0.0
 10
27.31637453712077
 20
-18.7195647446297
 30
0.0
 10
27.40850930950442
 20
-18.61657792146752
 30
0.0
 10
27.50121467582781
 20
-18.51383871454333
 30
0.0
 10
27.55068409381133
 20
-18.45918012148516
 30
0.0
 10
27.55068409381133
 20
-18.45918012148516
 30
0.0
 10
27.55068409381133
 20
-18.45918012148516
 30
0.0
 10
27.66662770577507
 20
-18.55091117174164
 30
0.0
 10
27.66662770577507
 20
-18.55091117174164
 30
0.0
  0
HATCH
  5
86
330
81
100
AcDbEntity
  8
Livello 2
 62
    30
420
 15565860
440
 33554687
100
AcDbHatch
 10
0.0
 20
0.0
 30
0.0
210
0.0
220
0.0
230
1.0
  2
SOLID
 70
     1
 71
     1
 91
        1
 92
        1
 93
        1
 72
     4
 94
        3
 73
     0
 74
     0
 95
      218
 96
      214
 40
0.0
 40
0.0
 40
0.0
 40
0.0
 40
1.0
 40
1.0
 40
1.0
 40
2.0
 40
2.0
 40
2.0
 40
3.0
 40
3.0
 40
3.0
 40
4.0
 40
4.0
 40
4.0
 40
5.0
 40
5.0
 40
5.0
 40
6.0
 40
6.0
 40
6.0
 40
7.0
 40
7.0
 40
7.0
 40
8.0
 40
8.0
 40
8.0
 40
9.0
 40
9.0
 40
9.0
 40
10.0
 40
10.0
 40
10.0
 40
11.0
 40
11.0
 40
11.0
 40
12.0
 40
12.0
 40
12.0
 40
13.0
 40
13.0
 40
13.0
 40
14.0
 40
14.0
 40
14.0
 40
15.0
 40
15.0
 40
15.0
 40
16.0
 40
16.0
 40
16.0
 40
17.0
 40
17.0
 40
17.0
 40
18.0
 40
18.0
 40
18.0
 40
19.0
 40
19.0
 40
19.0
 40
20.0
 40
20.0
 40
20.0
 40
21.0
 40
21.0
 40
21.0
 40
22.0
 40
22.0
 40
22.0
 40
23.0
 40
23.0
 40
23.0
 40
24.0
 40
24.0
 40
24.0
 40
25.0
 40
25.0
 40
25.0
 40
26.0
 40
26.0
 40
26.0
 40
27.0
 40
27.0
 40
27.0
 40
28.0
 40
28.0
 40
28.0
 40
29.0
 40
29.0
 40
29.0
 40
30.0
 40
30.0
 40
30.0
 40
31.0
 40
31.0
 40
31.0
 40
32.0
 40
32.0
 40
32.0
 40
33.0
 40
33.0
 40
33.0
 40
34.0
 40
34.0
 40
34.0
 40
35.0
 40
35.0
 40
35.0
 40
36.0
 40
36.0
 40
36.0
 40
37.0
 40
37.0
 40
37.0
 40
38.0
 40
38.0
 40
38.0
 40
39.0
 40
39.0
 40
39.0
 40
40.0
 40
40.0
 40
40.0
 40
41.0
 40
41.0
 40
41.0
 40
42.0
 40
42.0
 40
42.0
 40
43.0
 40
43.0
 40
43.0
 40
44.0
 40
44.0
 40
44.0
 40
45.0
 40
45.0
 40
45.0
 40
46.0
 40
46.0
 40
46.0
 40
47.0
 40
47.0
 40
47.0
 40
48.0
 40
48.0
 40
48.0
 40
49.0
 40
49.0
 40
49.0
 40
50.0
 40
50.0
 40
50.0
 40
51.0
 40
51.0
 40
51.0
 40
52.0
 40
52.0
 40
52.0
 40
53.0
 40
53.0
 40
53.0
 40
54.0
 40
54.0
 40
54.0
 40
55.0
 40
55.0
 40
55.0
 40
56.0
 40
56.0
 40
56.0
 40
57.0
 40
57.0
 40
57.0
 40
58.0
 40
58.0
 40
58.0
 40
59.0
 40
59.0
 40
59.0
 40
60.0
 40
60.0
 40
60.0
 40
61.0
 40
61.0
 40
61.0
 40
62.0
 40
62.0
 40
62.0
 40
63.0
 40
63.0
 40
63.0
 40
64.0
 40
64.0
 40
64.0
 40
65.0
 40
65.0
 40
65.0
 40
66.0
 40
66.0
 40
66.0
 40
67.0
 40
67.0
 40
67.0
 40
68.0
 40
68.0
 40
68.0
 40
69.0
 40
69.0
 40
69.0
 40
70.0
 40
70.0
 40
70.0
 40
71.0
 40
71.0
 40
71.0
 40
71.0
 10
27.66662770577507
 20
-18.55091117174164
 10
27.66662770577507
 20
-18.55091117174164
 10
27.62630393971256
 20
-18.61172249001799
 10
27.55060334938589
 20
-18.72572285280959
 10
27.47571020331357
 20
-18.84044453246841
 10
27.36511187231366
 20
-19.00836602256586
 10
27.22836311339603
 20
-19.22445963687815
 10
27.09178122629096
 20
-19.44079548446676
 10
26.92685266289632
 20
-19.7039308010378
 10
26.74136656878579
 20
-20.00754598956053
 10
26.55571360286269
 20
-20.31091894480695
 10
26.35265752177739
 20
-20.65712412626608
 10
26.13372708665146
 20
-21.03530948315938
 10
25.9152057566144
 20
-21.41365363742271
 10
25.68470195384271
 20
-21.8267340435084
 10
25.45062924746676
 20
-22.26766320192682
 10
25.21721326241769
 20
-22.70908490134039
 10
24.97577666444203
 20
-23.17584420145563
 10
24.74203231872952
 20
-23.66503161147602
 10
24.50634472384487
 20
-24.15299978067233
 10
24.27738044811814
 20
-24.66266935994487
 10
24.05885373511939
 20
-25.18343322327226
 10
23.8427601208071
 20
-25.70516871118571
 10
23.63589290284124
 20
-26.23799310019232
 10
23.46190481491273
 20
-26.77705634180425
 10
23.41940094936346
 20
-26.91218482925147
 10
23.37486770725491
 20
-27.04642243653806
 10
23.33810746183495
 20
-27.18228300677591
 10
23.33810746183495
 20
-27.18228300677591
 10
23.28102653601372
 20
-27.38541983228665
 10
23.28102653601372
 20
-27.38541983228665
 10
23.28102653601372
 20
-27.38541983228665
 10
23.23058818492498
 20
-27.58936948501343
 10
23.23058818492498
 20
-27.58936948501343
 10
23.1953728495117
 20
-27.72482364164325
 10
23.16857108322879
 20
-27.86084300925113
 10
23.13845341254133
 20
-27.99581000784748
 10
23.11198000692186
 20
-28.13118611153271
 10
23.08679851210937
 20
-28.26598892979735
 10
23.06404473302163
 20
-28.39998430380763
 10
23.04445075244927
 20
-28.53422460257508
 10
23.0191131517476
 20
-28.66708686314841
 10
23.00502055802825
 20
-28.79930047683742
 10
22.9964401170853
 20
-28.86536825720963
 10
22.98899009809845
 20
-28.93127454873097
 10
22.97976370175201
 20
-28.99661293779341
 10
22.97312112701952
 20
-29.06178714652413
 10
22.96656467967415
 20
-29.12679986640398
 10
22.96000823232878
 20
-29.19157304448838
 10
22.94292271190662
 20
-29.32103596475088
 10
22.93830413077171
 20
-29.44855563584123
 10
22.92519123608098
 20
-29.57485875758835
 10
22.91944223298997
 20
-29.63801166420234
 10
22.91887702201192
 20
-29.70027099917484
 10
22.91385471874983
 20
-29.76245228120275
 10
22.91094253647245
 20
-29.82439132995436
 10
22.90389623961278
 20
-29.88681484525857
 10
22.90405772846365
 20
-29.94753734466695
 10
22.90009586865561
 20
-30.06939144857258
 10
22.89386239901199
 20
-30.1909979362402
 10
22.89507356539352
 20
-30.30863987261894
 10
22.89515430981895
 20
-30.36766135613147
 10
22.89329180507224
 20
-30.42716999767747
 10
22.89466984326634
 20
-30.48505836775305
 10
22.89620937031131
 20
-30.54294942930949
 10
22.89782425882002
 20
-30.60051751316419
 10
22.89936378586499
 20
-30.65767649193001
 10
22.89977289095387
 20
-30.71548411758016
 10
22.90421921731452
 20
-30.77143192996445
 10
22.90786886534421
 20
-30.82721556201702
 10
22.9115077474505
 20
-30.88307993849503
 10
22.91507126809305
 20
-30.93870477317757
 10
22.91863478873561
 20
-30.99408468310296
 10
22.92592331887159
 20
-31.04800311892797
 10
22.93118785540999
 20
-31.10216917099098
 10
22.93725445324104
 20
-31.15601224535224
 10
22.93725445324104
 20
-31.15601224535224
 10
22.94575414975856
 20
-31.23673513894101
 10
22.94575414975856
 20
-31.23673513894101
 10
22.94575414975856
 20
-31.23673513894101
 10
22.9591146606873
 20
-31.31486344499244
 10
22.9591146606873
 20
-31.31486344499244
 10
23.02566959909297
 20
-31.73264048515763
 10
23.14023517286261
 20
-32.11276639974224
 10
23.30790904672206
 20
-32.44293842979072
 10
23.47429639273624
 20
-32.77327464017091
 10
23.68261701035994
 20
-33.06005192450948
 10
23.89959881335202
 20
-33.30156657542973
 10
23.95546318983003
 20
-33.36018433681509
 10
24.01076235532999
 20
-33.41669736017743
 10
24.06331082740344
 20
-33.47377828599866
 10
24.1177164212619
 20
-33.52867103789059
 10
24.1744689864197
 20
-33.57773673374693
 10
24.22742118062033
 20
-33.62777136270848
 10
24.22742118062033
 20
-33.62777136270848
 10
24.30571635848433
 20
-33.70185437304559
 10
24.30571635848433
 20
-33.70185437304559
 10
24.30571635848433
 20
-33.70185437304559
 10
24.38530344715529
 20
-33.76776066456693
 10
24.38530344715529
 20
-33.76776066456693
 10
24.43777117480331
 20
-33.81034796602249
 10
24.48756357048856
 20
-33.85260959829544
 10
24.53524584518909
 20
-33.89301141730255
 10
24.73158937303986
 20
-34.0449024474702
 10
24.89360037119543
 20
-34.16707683759671
 10
25.00848353970512
 20
-34.24374905250946
 10
25.12216092479497
 20
-34.32341957708671
 10
25.18328983781137
 20
-34.36964845212941
 10
25.18328983781137
 20
-34.36964845212941
 10
25.18328983781137
 20
-34.36964845212941
 10
25.13568292457458
 20
-34.50971849841329
 10
25.13568292457458
 20
-34.50971849841329
 10
25.13568292457458
 20
-34.50971849841329
 10
25.05965397358447
 20
-34.50494111990835
 10
24.9161872784706
 20
-34.48858768227681
 10
24.7715040340135
 20
-34.47579238232612
 10
24.56358713851698
 20
-34.43846961740896
 10
24.29794336179573
 20
-34.36957039918482
 10
24.23235735649529
 20
-34.34997641861246
 10
24.16297098023768
 20
-34.3292466331223
 10
24.09034944400095
 20
-34.30552392092934
 10
24.05399830366987
 20
-34.29370562852643
 10
24.01643061399556
 20
-34.28236911119527
 10
23.97853994661951
 20
-34.26925352502369
 10
23.94137597907237
 20
-34.25427543410541
 10
23.90292010071827
 20
-34.23962032088886
 10
23.8642973505516
 20
-34.22318344735103
 10
23.7871379776054
 20
-34.19031239175622
 10
23.70479481254623
 20
-34.15849370517292
 10
23.62164958619441
 20
-34.11946723287907
 10
23.53979627064955
 20
-34.07809648076675
 10
23.45575208969454
 20
-34.03259430555297
 10
23.36774604893149
 20
-33.98587827247681
 10
23.02388783877169
 20
-33.78808134496821
 10
22.65039642447704
 20
-33.5048675812722
 10
22.32354837327566
 20
-33.10741391298912
 10
21.99062295831982
 20
-32.71489911206187
 10
21.72667481453273
 20
-32.20498460803217
 10
21.5597276405022
 20
-31.64503816652177
 10
21.54912320596167
 20
-31.60997893699765
 10
21.538432644034
 20
-31.57475821862267
 10
21.52774746506803
 20
-31.5394594473031
 10
21.51932313001426
 20
-31.5039964956518
 10
21.51082881645844
 20
-31.46837205514965
 10
21.50232373697923
 20
-31.43266687022205
 10
21.48556119425881
 20
-31.36109501151598
 10
21.46799659024573
 20
-31.28903599477645
 10
21.45220836359223
 20
-31.21608878935714
 10
21.43917083036524
 20
-31.14330038130785
 10
21.42783969599578
 20
-31.07010825113137
 10
21.41569035144859
 20
-30.99627016555142
 10
21.4097798595067
 20
-30.95934843128059
 10
21.40386936756482
 20
-30.92226789963974
 10
21.39795887562294
 20
-30.88510393209261
 10
21.39229599991906
 20
-30.84794265602632
 10
21.39027200632148
 20
-30.8110209217555
 10
21.38646086944092
 20
-30.77369815683834
 10
21.37958144439381
 20
-30.69913067994862
 10
21.37277738081044
 20
-30.6242375338763
 10
21.36589795576333
 20
-30.54885992125138
 10
21.35990671939602
 20
-30.47356305305188
 10
21.36063341922493
 20
-30.39875334288585
 10
21.35796347022387
 20
-30.32305006107833
 10
21.35035196238614
 20
-30.17116172239154
 10
21.36007359120858
 20
-30.02089365517514
 10
21.36509051150898
 20
-29.86835666960401
 10
21.36711450510656
 20
-29.79184325206129
 10
21.37779968407253
 20
-29.71727577517157
 10
21.38387704782698
 20
-29.64133026008774
 10
21.39140242827757
 20
-29.56571041418651
 10
21.39747440907033
 20
-29.48903819927376
 10
21.40913390410322
 20
-29.41398356435058
 10
21.43164544991465
 20
-29.26387429450421
 10
21.45309655227203
 20
-29.11166297811567
 10
21.48540508836964
 20
-28.96284831055711
 10
21.50126867648687
 20
-28.88828083366739
 10
21.51706228610207
 20
-28.81346843202051
 10
21.53309274603186
 20
-28.73841648857817
 10
21.55195464381361
 20
-28.66457571151737
 10
21.57082192455705
 20
-28.59049270118026
 10
21.58976456676422
 20
-28.51633163789856
 10
21.62619645152074
 20
-28.36743891739542
 10
21.67226922067426
 20
-28.22218777047942
 10
21.71501531949984
 20
-28.07499606587212
 10
21.89653955380233
 20
-27.49067557380357
 10
22.12089063135584
 20
-26.92214330838853
 10
22.35342381068681
 20
-26.36332728883422
 10
22.58700128458675
 20
-25.80459201370535
 10
22.84584638068631
 20
-25.26205137883799
 10
23.12104491441743
 20
-24.74128751551062
 10
23.3943001989764
 20
-24.21963546350344
 10
23.68471636542126
 20
-23.72040613843972
 10
23.97562238138044
 20
-23.24530863065783
 10
24.26960745142955
 20
-22.77199019171637
 10
24.56293580015179
 20
-22.32199343432155
 10
24.852549905304
 20
-21.90381267202917
 10
25.14150728912933
 20
-21.48514475170334
 10
25.42245482595145
 20
-21.09586780223605
 10
25.68672594744029
 20
-20.74083994655765
 10
25.95066870826569
 20
-20.38548911317752
 10
26.20222527422928
 20
-20.06729686438283
 10
26.42608650226847
 20
-19.78651619937327
 10
26.65003924065649
 20
-19.50580551286576
 10
26.84961792848637
 20
-19.26477801997897
 10
27.01688808021864
 20
-19.06876823575334
 10
27.18383525424917
 20
-18.87242470790258
 10
27.31637453712077
 20
-18.7195647446297
 10
27.40850930950442
 20
-18.61657792146752
 10
27.50121467582781
 20
-18.51383871454333
 10
27.55068409381133
 20
-18.45918012148516
 10
27.55068409381133
 20
-18.45918012148516
 10
27.55068409381133
 20
-18.45918012148516
 10
27.66662770577507
 20
-18.55091117174164
 10
27.66662770577507
 20
-18.55091117174164
 97
        0
 97
        1
330
85
 75
     2
 76
     1
 98
        1
 10
0.0
 20
0.0
450
        0
451
        0
460
0.0
461
0.0
452
        0
462
0.0
453
        0
470

  0
SPLINE
  5
87
330
81
100
AcDbEntity
  8
Livello 2
100
AcDbSpline
210
0.0
220
0.0
230
1.0
 70
    11
 71
     3
 72
   245
 73
   241
 74
     0
 42
0.0000000001
 43
0.0000000001
 40
0.0
 40
0.0
 40
0.0
 40
0.0
 40
1.0
 40
1.0
 40
1.0
 40
2.0
 40
2.0
 40
2.0
 40
3.0
 40
3.0
 40
3.0
 40
4.0
 40
4.0
 40
4.0
 40
5.0
 40
5.0
 40
5.0
 40
6.0
 40
6.0
 40
6.0
 40
7.0
 40
7.0
 40
7.0
 40
8.0
 40
8.0
 40
8.0
 40
9.0
 40
9.0
 40
9.0
 40
10.0
 40
10.0
 40
10.0
 40
11.0
 40
11.0
 40
11.0
 40
12.0
 40
12.0
 40
12.0
 40
13.0
 40
13.0
 40
13.0
 40
14.0
 40
14.0
 40
14.0
 40
15.0
 40
15.0
 40
15.0
 40
16.0
 40
16.0
 40
16.0
 40
17.0
 40
17.0
 40
17.0
 40
18.0
 40
18.0
 40
18.0
 40
19.0
 40
19.0
 40
19.0
 40
20.0
 40
20.0
 40
20.0
 40
21.0
 40
21.0
 40
21.0
 40
22.0
 40
22.0
 40
22.0
 40
23.0
 40
23.0
 40
23.0
 40
24.0
 40
24.0
 40
24.0
 40
25.0
 40
25.0
 40
25.0
 40
26.0
 40
26.0
 40
26.0
 40
27.0
 40
27.0
 40
27.0
 40
28.0
 40
28.0
 40
28.0
 40
29.0
 40
29.0
 40
29.0
 40
30.0
 40
30.0
 40
30.0
 40
31.0
 40
31.0
 40
31.0
 40
32.0
 40
32.0
 40
32.0
 40
33.0
 40
33.0
 40
33.0
 40
34.0
 40
34.0
 40
34.0
 40
35.0
 40
35.0
 40
35.0
 40
36.0
 40
36.0
 40
36.0
 40
37.0
 40
37.0
 40
37.0
 40
38.0
 40
38.0
 40
38.0
 40
39.0
 40
39.0
 40
39.0
 40
40.0
 40
40.0
 40
40.0
 40
41.0
 40
41.0
 40
41.0
 40
42.0
 40
42.0
 40
42.0
 40
43.0
 40
43.0
 40
43.0
 40
44.0
 40
44.0
 40
44.0
 40
45.0
 40
45.0
 40
45.0
 40
46.0
 40
46.0
 40
46.0
 40
47.0
 40
47.0
 40
47.0
 40
48.0
 40
48.0
 40
48.0
 40
49.0
 40
49.0
 40
49.0
 40
50.0
 40
50.0
 40
50.0
 40
51.0
 40
51.0
 40
51.0
 40
52.0
 40
52.0
 40
52.0
 40
53.0
 40
53.0
 40
53.0
 40
54.0
 40
54.0
 40
54.0
 40
55.0
 40
55.0
 40
55.0
 40
56.0
 40
56.0
 40
56.0
 40
57.0
 40
57.0
 40
57.0
 40
58.0
 40
58.0
 40
58.0
 40
59.0
 40
59.0
 40
59.0
 40
60.0
 40
60.0
 40
60.0
 40
61.0
 40
61.0
 40
61.0
 40
62.0
 40
62.0
 40
62.0
 40
63.0
 40
63.0
 40
63.0
 40
64.0
 40
64.0
 40
64.0
 40
65.0
 40
65.0
 40
65.0
 40
66.0
 40
66.0
 40
66.0
 40
67.0
 40
67.0
 40
67.0
 40
68.0
 40
68.0
 40
68.0
 40
69.0
 40
69.0
 40
69.0
 40
70.0
 40
70.0
 40
70.0
 40
71.0
 40
71.0
 40
71.0
 40
72.0
 40
72.0
 40
72.0
 40
73.0
 40
73.0
 40
73.0
 40
74.0
 40
74.0
 40
74.0
 40
75.0
 40
75.0
 40
75.0
 40
76.0
 40
76.0
 40
76.0
 40
77.0
 40
77.0
 40
77.0
 40
78.0
 40
78.0
 40
78.0
 40
79.0
 40
79.0
 40
79.0
 40
80.0
 40
80.0
 40
80.0
 40
80.0
 10
31.18154558717987
 20
-16.3052633604134
 30
0.0
 10
31.18154558717987
 20
-16.3052633604134
 30
0.0
 10
31.13490760704829
 20
-16.37425139750552
 30
0.0
 10
31.04738064987617
 20
-16.50346939301088
 30
0.0
 10
30.96059115845635
 20
-16.63358096015771
 30
0.0
 10
30.83298805145971
 20
-16.82408397456863
 30
0.0
 10
30.67478280722301
 20
-17.06924558203773
 30
0.0
 10
30.5168251792243
 20
-17.31464942278313
 30
0.0
 10
30.32623603742625
 20
-17.61324769100546
 30
0.0
 10
30.11191880047353
 20
-17.95806945130879
 30
0.0
 10
29.89744545763164
 20
-18.30265974425921
 30
0.0
 10
29.66216158487417
 20
-18.69565901173909
 30
0.0
 10
29.40931310810361
 20
-19.12549926906435
 30
0.0
 10
29.1567876090348
 20
-19.55558175966593
 30
0.0
 10
28.89025026067207
 20
-20.02517518911396
 30
0.0
 10
28.61934194741243
 20
-20.52674879399616
 30
0.0
 10
28.34924646136884
 20
-21.02880686543098
 30
0.0
 10
28.06854654078472
 20
-21.55920623019367
 30
0.0
 10
27.79690614473447
 20
-22.1159148202441
 30
0.0
 10
27.52486740951873
 20
-22.67230312407365
 30
0.0
 10
27.26157060409682
 20
-23.254115155992
 30
0.0
 10
27.00636977306524
 20
-23.84733906670524
 30
0.0
 10
26.75343516890756
 20
-24.44153460200455
 30
0.0
 10
26.51653640764136
 20
-25.05144031101278
 30
0.0
 10
26.31436851523585
 20
-25.66806664769808
 30
0.0
 10
26.26473760840147
 20
-25.82246344653508
 30
0.0
 10
26.21292121911864
 20
-25.97605280111772
 30
0.0
 10
26.16960452635332
 20
-26.13158540487251
 30
0.0
 10
26.14734059677989
 20
-26.20914849994589
 30
0.0
 10
26.12394086228867
 20
-26.28638861731753
 30
0.0
 10
26.10264586582047
 20
-26.36387365944633
 30
0.0
 10
26.10264586582047
 20
-26.36387365944633
 30
0.0
 10
26.04289499099817
 20
-26.59721159155081
 30
0.0
 10
26.04289499099817
 20
-26.59721159155081
 30
0.0
 10
26.02249356617145
 20
-26.67477468662419
 30
0.0
 10
26.00306107444997
 20
-26.75225972875299
 30
0.0
 10
25.98613704287867
 20
-26.83006505710268
 30
0.0
 10
25.96849169444016
 20
-26.9077088966015
 30
0.0
 10
25.95092170746539
 20
-26.98527199167488
 30
0.0
 10
25.93326559310348
 20
-27.0625955449528
 30
0.0
 10
25.91578173351584
 20
-27.13991640674988
 30
0.0
 10
25.90250196701254
 20
-27.21772173509957
 30
0.0
 10
25.88696135659704
 20
-27.29488110804577
 30
0.0
 10
25.87262652960139
 20
-27.37212122541742
 30
0.0
 10
25.85554639214092
 20
-27.44903567360646
 30
0.0
 10
25.84340243055542
 20
-27.52595281327636
 30
0.0
 10
25.81943748508615
 20
-27.67994858146703
 30
0.0
 10
25.78915294258612
 20
-27.83256361998275
 30
0.0
 10
25.77142146676048
 20
-27.98453539457583
 30
0.0
 10
25.76105926549625
 20
-28.06031942080879
 30
0.0
 10
25.75069706423202
 20
-28.13593926671002
 30
0.0
 10
25.7403294800061
 20
-28.21131687933495
 30
0.0
 10
25.73215814415202
 20
-28.28645225868357
 30
0.0
 10
25.72406216976169
 20
-28.3612619688496
 30
0.0
 10
25.71596081240965
 20
-28.43599362607104
 30
0.0
 10
25.69539789873207
 20
-28.58504783542505
 30
0.0
 10
25.68892219581214
 20
-28.73215879560692
 30
0.0
 10
25.67337620243494
 20
-28.87797784498181
 30
0.0
 10
25.66632990557527
 20
-28.95084430597569
 30
0.0
 10
25.66528022804461
 20
-29.02298406714066
 30
0.0
 10
25.65944509756647
 20
-29.09479815912303
 30
0.0
 10
25.65572547103474
 20
-29.16645345373538
 30
0.0
 10
25.6476294966444
 20
-29.23859052341949
 30
0.0
 10
25.64754875221896
 20
-29.30895121574403
 30
0.0
 10
25.64301629847118
 20
-29.45015168398401
 30
0.0
 10
25.63564164094807
 20
-29.59086768567138
 30
0.0
 10
25.63742878423104
 20
-29.72745495573814
 30
0.0
 10
25.63766563454565
 20
-29.79603119626055
 30
0.0
 10
25.6357277683352
 20
-29.86493310596554
 30
0.0
 10
25.63750414569478
 20
-29.93229548862557
 30
0.0
 10
25.63977575553037
 20
-29.99949638243472
 30
0.0
 10
25.64187511059169
 20
-30.06645235148673
 30
0.0
 10
25.64398523157641
 20
-30.13292654546696
 30
0.0
 10
25.64479267583076
 20
-30.19996325894439
 30
0.0
 10
25.65046631745803
 20
-30.26514015915596
 30
0.0
 10
25.65516026005669
 20
-30.33007213461038
 30
0.0
 10
25.65993494708078
 20
-30.39508485449023
 30
0.0
 10
25.66454814525399
 20
-30.45977728814919
 30
0.0
 10
25.66932821523978
 20
-30.52406330820012
 30
0.0
 10
25.67823163388447
 20
-30.58705203448239
 30
0.0
 10
25.68462659237896
 20
-30.65020494109637
 30
0.0
 10
25.69215735579125
 20
-30.71295412558318
 30
0.0
 10
25.69215735579125
 20
-30.71295412558318
 30
0.0
 10
25.70268104590635
 20
-30.80695140271354
 30
0.0
 10
25.70268104590635
 20
-30.80695140271354
 30
0.0
 10
25.70268104590635
 20
-30.80695140271354
 30
0.0
 10
25.71936284420134
 20
-30.89803649756654
 30
0.0
 10
25.71936284420134
 20
-30.89803649756654
 30
0.0
 10
25.73029563940531
 20
-30.95884243288119
 30
0.0
 10
25.74114230722215
 20
-31.01932269901326
 30
0.0
 10
25.75182748618812
 20
-31.07931849859272
 30
0.0
 10
25.76470353056424
 20
-31.13850147095612
 30
0.0
 10
25.77943669672538
 20
-31.19623104366169
 30
0.0
 10
25.79271646322868
 20
-31.25460657177074
 30
0.0
 10
25.81594932590733
 20
-31.37297251649755
 30
0.0
 10
25.85603085869354
 20
-31.48162759832531
 30
0.0
 10
25.88898535019463
 20
-31.59263234293325
 30
0.0
 10
25.90315330537772
 20
-31.64930685514646
 30
0.0
 10
25.92711825084699
 20
-31.70031310869409
 30
0.0
 10
25.9461416374796
 20
-31.75383051387277
 30
0.0
 10
25.96646770084257
 20
-31.80653778331624
 30
0.0
 10
25.98524885419888
 20
-31.85989369964405
 30
0.0
 10
26.00605400115278
 20
-31.91171278040773
 30
0.0
 10
26.02978209630743
 20
-31.96174740936929
 30
0.0
 10
26.05398389209132
 20
-32.01113608292736
 30
0.0
 10
26.07641469347731
 20
-32.06125145631436
 30
0.0
 10
26.09949145026679
 20
-32.11104385199961
 30
0.0
 10
26.11932228115375
 20
-32.16269875243157
 30
0.0
 10
26.14742134120533
 20
-32.20836510797707
 30
0.0
 10
26.34853417311848
 20
-32.59003054960665
 30
0.0
 10
26.59791063959531
 20
-32.91704547262059
 30
0.0
 10
26.85448412585929
 20
-33.18940987701892
 30
0.0
 10
26.92038772589978
 20
-33.25555840181657
 30
0.0
 10
26.98548388168591
 20
-33.31919577498317
 30
0.0
 10
27.04750098338211
 20
-33.38323956175778
 30
0.0
 10
27.11162820606301
 20
-33.44469145247593
 30
0.0
 10
27.17825850593242
 20
-33.49942271551699
 30
0.0
 10
27.24028099059031
 20
-33.55537052790128
 30
0.0
 10
27.24028099059031
 20
-33.55537052790128
 30
0.0
 10
27.33217352969766
 20
-33.63786979884962
 30
0.0
 10
27.33217352969766
 20
-33.63786979884962
 30
0.0
 10
27.33217352969766
 20
-33.63786979884962
 30
0.0
 10
27.42528261814823
 20
-33.71090044017523
 30
0.0
 10
27.42528261814823
 20
-33.71090044017523
 30
0.0
 10
27.48657302001551
 20
-33.75818437571027
 30
0.0
 10
27.54478436779284
 20
-33.80498384469272
 30
0.0
 10
27.60048725541996
 20
-33.84951170383957
 30
0.0
 10
27.82929542525752
 20
-34.017026780329
 30
0.0
 10
28.01737610690537
 20
-34.15045694336123
 30
0.0
 10
28.15047521779332
 20
-34.23344606382388
 30
0.0
 10
28.282287800836
 20
-34.31975108869109
 30
0.0
 10
28.35304683232601
 20
-34.36970766470806
 30
0.0
 10
28.35304683232601
 20
-34.36970766470806
 30
0.0
 10
28.35304683232601
 20
-34.36970766470806
 30
0.0
 10
28.30560679090178
 20
-34.50977771099194
 30
0.0
 10
28.30560679090178
 20
-34.50977771099194
 30
0.0
 10
28.30560679090178
 20
-34.50977771099194
 30
0.0
 10
28.21978623258719
 20
-34.50127532299358
 30
0.0
 10
28.05834044540967
 20
-34.4781985662041
 30
0.0
 10
27.89536051414887
 20
-34.45917517957148
 30
0.0
 10
27.66129319073463
 20
-34.41051320584233
 30
0.0
 10
27.36309864463947
 20
-34.326067994241
 30
0.0
 10
27.28958891972295
 20
-34.30234528204803
 30
0.0
 10
27.21169746398613
 20
-34.27708573429094
 30
0.0
 10
27.13032861499389
 20
-34.24874713244392
 30
0.0
 10
27.0896011268042
 20
-34.23457917726083
 30
0.0
 10
27.04733949453123
 20
-34.22089568863035
 30
0.0
 10
27.0049163734074
 20
-34.20527164230858
 30
0.0
 10
26.9634568024271
 20
-34.18753747500208
 30
0.0
 10
26.92046847032521
 20
-34.17013166835903
 30
0.0
 10
26.87723252198533
 20
-34.15086066548841
 30
0.0
 10
26.79092749711812
 20
-34.11208180943257
 30
0.0
 10
26.69870659734734
 20
-34.07451142827741
 30
0.0
 10
26.60583974217308
 20
-34.02884776421276
 30
0.0
 10
26.51451241404378
 20
-33.98059220409163
 30
0.0
 10
26.42075737018972
 20
-33.92788493464816
 30
0.0
 10
26.32255061701332
 20
-33.87372157406599
 30
0.0
 10
25.93917608504536
 20
-33.6451583289856
 30
0.0
 10
25.52472033224642
 20
-33.32170423513336
 30
0.0
 10
25.16305528479723
 20
-32.87284059117548
 30
0.0
 10
25.11463554434438
 20
-32.8190809527205
 30
0.0
 10
25.07447865009444
 20
-32.75892366429017
 30
0.0
 10
25.03091972405281
 20
-32.69965725602048
 30
0.0
 10
24.98784526456379
 20
-32.64006787004904
 30
0.0
 10
24.94566437671627
 20
-32.57869403227549
 30
0.0
 10
24.90251455576351
 20
-32.5169191638556
 30
0.0
 10
24.86284212806618
 20
-32.45344327953988
 30
0.0
 10
24.825112949541
 20
-32.388024146052
 30
0.0
 10
24.78584424397085
 20
-32.3221985989561
 30
0.0
 10
24.74803432102023
 20
-32.25572978793756
 30
0.0
 10
24.70479837268034
 20
-32.19039139887512
 30
0.0
 10
24.67257596396987
 20
-32.12003339803143
 30
0.0
 10
24.6062686418022
 20
-31.97988260732211
 30
0.0
 10
24.53290963981316
 20
-31.83787200334693
 30
0.0
 10
24.478746279231
 20
-31.68776273350056
 30
0.0
 10
24.45016275262682
 20
-31.6131145121854
 30
0.0
 10
24.41851093785608
 20
-31.53822405759393
 30
0.0
 10
24.39236050993836
 20
-31.46138766234947
 30
0.0
 10
24.36895539248544
 20
-31.38406680055239
 30
0.0
 10
24.34539955210505
 20
-31.3062614722027
 30
0.0
 10
24.32175758433752
 20
-31.22780480548783
 30
0.0
 10
24.31009808930463
 20
-31.18845535549225
 30
0.0
 10
24.29827710542087
 20
-31.14894441664579
 30
0.0
 10
24.28661761038797
 20
-31.10919124452302
 30
0.0
 10
24.27722972519067
 20
-31.06943807240026
 30
0.0
 10
24.26783107406997
 20
-31.02944266700119
 30
0.0
 10
24.25844318887266
 20
-30.98936651717668
 30
0.0
 10
24.23990426879266
 20
-30.90896929277051
 30
0.0
 10
24.22022416083317
 20
-30.82808491033087
 30
0.0
 10
24.2029017900964
 20
-30.74614815887974
 30
0.0
 10
24.18864770752618
 20
-30.66445633218575
 30
0.0
 10
24.1763422570898
 20
-30.58211585860743
 30
0.0
 10
24.1630678735482
 20
-30.49920748257021
 30
0.0
 10
24.15658678766658
 20
-30.45767255012617
 30
0.0
 10
24.15011108474665
 20
-30.41605687325669
 30
0.0
 10
24.14363538182672
 20
-30.37427970753634
 30
0.0
 10
24.13740191218309
 20
-30.33242179739055
 30
0.0
 10
24.1353779185855
 20
-30.29088686494651
 30
0.0
 10
24.13100695368859
 20
-30.24894551889444
 30
0.0
 10
24.12371842355261
 20
-30.16514626269659
 30
0.0
 10
24.11626840456576
 20
-30.08086523142697
 30
0.0
 10
24.10881838557891
 20
-29.99609435064304
 30
0.0
 10
24.10234268265897
 20
-29.91140421428454
 30
0.0
 10
24.10323087133877
 20
-29.82712318301493
 30
0.0
 10
24.10031868906139
 20
-29.74194858010382
 30
0.0
 10
24.09205584285849
 20
-29.57103147182271
 30
0.0
 10
24.10299402102415
 20
-29.4014924017357
 30
0.0
 10
24.10865689672804
 20
-29.22976784920023
 30
0.0
 10
24.14630533082779
 20
-28.54472945232424
 30
0.0
 10
24.29673757837589
 20
-27.86446574247233
 30
0.0
 10
24.49436763407193
 20
-27.20104262828543
 30
0.0
 10
24.69492063796873
 20
-26.53770295000482
 30
0.0
 10
24.94469544361104
 20
-25.890393731654
 30
0.0
 10
25.2058067665845
 20
-25.25417610587718
 30
0.0
 10
25.4686191054538
 20
-24.61836220222754
 30
0.0
 10
25.76316400351927
 20
-24.00141557932134
 30
0.0
 10
26.07082717923717
 20
-23.40624572795511
 30
0.0
 10
26.37655248874461
 20
-22.81002350757736
 30
0.0
 10
26.70598974452163
 20
-22.24092333970341
 30
0.0
 10
27.03463032196768
 20
-21.6984634492615
 30
0.0
 10
27.36520876562419
 20
-21.15697518340566
 30
0.0
 10
27.69457065993746
 20
-20.64139511219124
 30
0.0
 10
28.02117647786254
 20
-20.16273139228595
 30
0.0
 10
28.34698023449496
 20
-19.68358320582804
 30
0.0
 10
28.66395593394642
 20
-19.2377986159601
 30
0.0
 10
28.96231196889245
 20
-18.83111047688806
 30
0.0
 10
29.2602588987496
 20
-18.42394325422509
 30
0.0
 10
29.54379025718566
 20
-18.05903228087339
 30
0.0
 10
29.79656337249247
 20
-17.73703966112154
 30
0.0
 10
30.04941723222473
 20
-17.41512240283342
 30
0.0
 10
30.27465649845802
 20
-17.13863195829534
 30
0.0
 10
30.46330777404563
 20
-16.91347343648748
 30
0.0
 10
30.65163068896979
 20
-16.68814804286705
 30
0.0
 10
30.80141159815272
 20
-16.51269578935731
 30
0.0
 10
30.9052919929564
 20
-16.39440520609424
 30
0.0
 10
31.00981834316355
 20
-16.2764429834946
 30
0.0
 10
31.06560197521612
 20
-16.21345156573149
 30
0.0
 10
31.06560197521612
 20
-16.21345156573149
 30
0.0
 10
31.06560197521612
 20
-16.21345156573149
 30
0.0
 10
31.18154558717987
 20
-16.3052633604134
 30
0.0
 10
31.18154558717987
 20
-16.3052633604134
 30
0.0
  0
HATCH
  5
88
330
81
100
AcDbEntity
  8
Livello 2
 62
   177
420
  2962539
440
 33554687
100
AcDbHatch
 10
0.0
 20
0.0
 30
0.0
210
0.0
220
0.0
230
1.0
  2
SOLID
 70
     1
 71
     1
 91
        1
 92
        1
 93
        1
 72
     4
 94
        3
 73
     0
 74
     0
 95
      245
 96
      241
 40
0.0
 40
0.0
 40
0.0
 40
0.0
 40
1.0
 40
1.0
 40
1.0
 40
2.0
 40
2.0
 40
2.0
 40
3.0
 40
3.0
 40
3.0
 40
4.0
 40
4.0
 40
4.0
 40
5.0
 40
5.0
 40
5.0
 40
6.0
 40
6.0
 40
6.0
 40
7.0
 40
7.0
 40
7.0
 40
8.0
 40
8.0
 40
8.0
 40
9.0
 40
9.0
 40
9.0
 40
10.0
 40
10.0
 40
10.0
 40
11.0
 40
11.0
 40
11.0
 40
12.0
 40
12.0
 40
12.0
 40
13.0
 40
13.0
 40
13.0
 40
14.0
 40
14.0
 40
14.0
 40
15.0
 40
15.0
 40
15.0
 40
16.0
 40
16.0
 40
16.0
 40
17.0
 40
17.0
 40
17.0
 40
18.0
 40
18.0
 40
18.0
 40
19.0
 40
19.0
 40
19.0
 40
20.0
 40
20.0
 40
20.0
 40
21.0
 40
21.0
 40
21.0
 40
22.0
 40
22.0
 40
22.0
 40
23.0
 40
23.0
 40
23.0
 40
24.0
 40
24.0
 40
24.0
 40
25.0
 40
25.0
 40
25.0
 40
26.0
 40
26.0
 40
26.0
 40
27.0
 40
27.0
 40
27.0
 40
28.0
 40
28.0
 40
28.0
 40
29.0
 40
29.0
 40
29.0
 40
30.0
 40
30.0
 40
30.0
 40
31.0
 40
31.0
 40
31.0
 40
32.0
 40
32.0
 40
32.0
 40
33.0
 40
33.0
 40
33.0
 40
34.0
 40
34.0
 40
34.0
 40
35.0
 40
35.0
 40
35.0
 40
36.0
 40
36.0
 40
36.0
 40
37.0
 40
37.0
 40
37.0
 40
38.0
 40
38.0
 40
38.0
 40
39.0
 40
39.0
 40
39.0
 40
40.0
 40
40.0
 40
40.0
 40
41.0
 40
41.0
 40
41.0
 40
42.0
 40
42.0
 40
42.0
 40
43.0
 40
43.0
 40
43.0
 40
44.0
 40
44.0
 40
44.0
 40
45.0
 40
45.0
 40
45.0
 40
46.0
 40
46.0
 40
46.0
 40
47.0
 40
47.0
 40
47.0
 40
48.0
 40
48.0
 40
48.0
 40
49.0
 40
49.0
 40
49.0
 40
50.0
 40
50.0
 40
50.0
 40
51.0
 40
51.0
 40
51.0
 40
52.0
 40
52.0
 40
52.0
 40
53.0
 40
53.0
 40
53.0
 40
54.0
 40
54.0
 40
54.0
 40
55.0
 40
55.0
 40
55.0
 40
56.0
 40
56.0
 40
56.0
 40
57.0
 40
57.0
 40
57.0
 40
58.0
 40
58.0
 40
58.0
 40
59.0
 40
59.0
 40
59.0
 40
60.0
 40
60.0
 40
60.0
 40
61.0
 40
61.0
 40
61.0
 40
62.0
 40
62.0
 40
62.0
 40
63.0
 40
63.0
 40
63.0
 40
64.0
 40
64.0
 40
64.0
 40
65.0
 40
65.0
 40
65.0
 40
66.0
 40
66.0
 40
66.0
 40
67.0
 40
67.0
 40
67.0
 40
68.0
 40
68.0
 40
68.0
 40
69.0
 40
69.0
 40
69.0
 40
70.0
 40
70.0
 40
70.0
 40
71.0
 40
71.0
 40
71.0
 40
72.0
 40
72.0
 40
72.0
 40
73.0
 40
73.0
 40
73.0
 40
74.0
 40
74.0
 40
74.0
 40
75.0
 40
75.0
 40
75.0
 40
76.0
 40
76.0
 40
76.0
 40
77.0
 40
77.0
 40
77.0
 40
78.0
 40
78.0
 40
78.0
 40
79.0
 40
79.0
 40
79.0
 40
80.0
 40
80.0
 40
80.0
 40
80.0
 10
31.18154558717987
 20
-16.3052633604134
 10
31.18154558717987
 20
-16.3052633604134
 10
31.13490760704829
 20
-16.37425139750552
 10
31.04738064987617
 20
-16.50346939301088
 10
30.96059115845635
 20
-16.63358096015771
 10
30.83298805145971
 20
-16.82408397456863
 10
30.67478280722301
 20
-17.06924558203773
 10
30.5168251792243
 20
-17.31464942278313
 10
30.32623603742625
 20
-17.61324769100546
 10
30.11191880047353
 20
-17.95806945130879
 10
29.89744545763164
 20
-18.30265974425921
 10
29.66216158487417
 20
-18.69565901173909
 10
29.40931310810361
 20
-19.12549926906435
 10
29.1567876090348
 20
-19.55558175966593
 10
28.89025026067207
 20
-20.02517518911396
 10
28.61934194741243
 20
-20.52674879399616
 10
28.34924646136884
 20
-21.02880686543098
 10
28.06854654078472
 20
-21.55920623019367
 10
27.79690614473447
 20
-22.1159148202441
 10
27.52486740951873
 20
-22.67230312407365
 10
27.26157060409682
 20
-23.254115155992
 10
27.00636977306524
 20
-23.84733906670524
 10
26.75343516890756
 20
-24.44153460200455
 10
26.51653640764136
 20
-25.05144031101278
 10
26.31436851523585
 20
-25.66806664769808
 10
26.26473760840147
 20
-25.82246344653508
 10
26.21292121911864
 20
-25.97605280111772
 10
26.16960452635332
 20
-26.13158540487251
 10
26.14734059677989
 20
-26.20914849994589
 10
26.12394086228867
 20
-26.28638861731753
 10
26.10264586582047
 20
-26.36387365944633
 10
26.10264586582047
 20
-26.36387365944633
 10
26.04289499099817
 20
-26.59721159155081
 10
26.04289499099817
 20
-26.59721159155081
 10
26.02249356617145
 20
-26.67477468662419
 10
26.00306107444997
 20
-26.75225972875299
 10
25.98613704287867
 20
-26.83006505710268
 10
25.96849169444016
 20
-26.9077088966015
 10
25.95092170746539
 20
-26.98527199167488
 10
25.93326559310348
 20
-27.0625955449528
 10
25.91578173351584
 20
-27.13991640674988
 10
25.90250196701254
 20
-27.21772173509957
 10
25.88696135659704
 20
-27.29488110804577
 10
25.87262652960139
 20
-27.37212122541742
 10
25.85554639214092
 20
-27.44903567360646
 10
25.84340243055542
 20
-27.52595281327636
 10
25.81943748508615
 20
-27.67994858146703
 10
25.78915294258612
 20
-27.83256361998275
 10
25.77142146676048
 20
-27.98453539457583
 10
25.76105926549625
 20
-28.06031942080879
 10
25.75069706423202
 20
-28.13593926671002
 10
25.7403294800061
 20
-28.21131687933495
 10
25.73215814415202
 20
-28.28645225868357
 10
25.72406216976169
 20
-28.3612619688496
 10
25.71596081240965
 20
-28.43599362607104
 10
25.69539789873207
 20
-28.58504783542505
 10
25.68892219581214
 20
-28.73215879560692
 10
25.67337620243494
 20
-28.87797784498181
 10
25.66632990557527
 20
-28.95084430597569
 10
25.66528022804461
 20
-29.02298406714066
 10
25.65944509756647
 20
-29.09479815912303
 10
25.65572547103474
 20
-29.16645345373538
 10
25.6476294966444
 20
-29.23859052341949
 10
25.64754875221896
 20
-29.30895121574403
 10
25.64301629847118
 20
-29.45015168398401
 10
25.63564164094807
 20
-29.59086768567138
 10
25.63742878423104
 20
-29.72745495573814
 10
25.63766563454565
 20
-29.79603119626055
 10
25.6357277683352
 20
-29.86493310596554
 10
25.63750414569478
 20
-29.93229548862557
 10
25.63977575553037
 20
-29.99949638243472
 10
25.64187511059169
 20
-30.06645235148673
 10
25.64398523157641
 20
-30.13292654546696
 10
25.64479267583076
 20
-30.19996325894439
 10
25.65046631745803
 20
-30.26514015915596
 10
25.65516026005669
 20
-30.33007213461038
 10
25.65993494708078
 20
-30.39508485449023
 10
25.66454814525399
 20
-30.45977728814919
 10
25.66932821523978
 20
-30.52406330820012
 10
25.67823163388447
 20
-30.58705203448239
 10
25.68462659237896
 20
-30.65020494109637
 10
25.69215735579125
 20
-30.71295412558318
 10
25.69215735579125
 20
-30.71295412558318
 10
25.70268104590635
 20
-30.80695140271354
 10
25.70268104590635
 20
-30.80695140271354
 10
25.70268104590635
 20
-30.80695140271354
 10
25.71936284420134
 20
-30.89803649756654
 10
25.71936284420134
 20
-30.89803649756654
 10
25.73029563940531
 20
-30.95884243288119
 10
25.74114230722215
 20
-31.01932269901326
 10
25.75182748618812
 20
-31.07931849859272
 10
25.76470353056424
 20
-31.13850147095612
 10
25.77943669672538
 20
-31.19623104366169
 10
25.79271646322868
 20
-31.25460657177074
 10
25.81594932590733
 20
-31.37297251649755
 10
25.85603085869354
 20
-31.48162759832531
 10
25.88898535019463
 20
-31.59263234293325
 10
25.90315330537772
 20
-31.64930685514646
 10
25.92711825084699
 20
-31.70031310869409
 10
25.9461416374796
 20
-31.75383051387277
 10
25.96646770084257
 20
-31.80653778331624
 10
25.98524885419888
 20
-31.85989369964405
 10
26.00605400115278
 20
-31.91171278040773
 10
26.02978209630743
 20
-31.96174740936929
 10
26.05398389209132
 20
-32.01113608292736
 10
26.07641469347731
 20
-32.06125145631436
 10
26.09949145026679
 20
-32.11104385199961
 10
26.11932228115375
 20
-32.16269875243157
 10
26.14742134120533
 20
-32.20836510797707
 10
26.34853417311848
 20
-32.59003054960665
 10
26.59791063959531
 20
-32.91704547262059
 10
26.85448412585929
 20
-33.18940987701892
 10
26.92038772589978
 20
-33.25555840181657
 10
26.98548388168591
 20
-33.31919577498317
 10
27.04750098338211
 20
-33.38323956175778
 10
27.11162820606301
 20
-33.44469145247593
 10
27.17825850593242
 20
-33.49942271551699
 10
27.24028099059031
 20
-33.55537052790128
 10
27.24028099059031
 20
-33.55537052790128
 10
27.33217352969766
 20
-33.63786979884962
 10
27.33217352969766
 20
-33.63786979884962
 10
27.33217352969766
 20
-33.63786979884962
 10
27.42528261814823
 20
-33.71090044017523
 10
27.42528261814823
 20
-33.71090044017523
 10
27.48657302001551
 20
-33.75818437571027
 10
27.54478436779284
 20
-33.80498384469272
 10
27.60048725541996
 20
-33.84951170383957
 10
27.82929542525752
 20
-34.017026780329
 10
28.01737610690537
 20
-34.15045694336123
 10
28.15047521779332
 20
-34.23344606382388
 10
28.282287800836
 20
-34.31975108869109
 10
28.35304683232601
 20
-34.36970766470806
 10
28.35304683232601
 20
-34.36970766470806
 10
28.35304683232601
 20
-34.36970766470806
 10
28.30560679090178
 20
-34.50977771099194
 10
28.30560679090178
 20
-34.50977771099194
 10
28.30560679090178
 20
-34.50977771099194
 10
28.21978623258719
 20
-34.50127532299358
 10
28.05834044540967
 20
-34.4781985662041
 10
27.89536051414887
 20
-34.45917517957148
 10
27.66129319073463
 20
-34.41051320584233
 10
27.36309864463947
 20
-34.326067994241
 10
27.28958891972295
 20
-34.30234528204803
 10
27.21169746398613
 20
-34.27708573429094
 10
27.13032861499389
 20
-34.24874713244392
 10
27.0896011268042
 20
-34.23457917726083
 10
27.04733949453123
 20
-34.22089568863035
 10
27.0049163734074
 20
-34.20527164230858
 10
26.9634568024271
 20
-34.18753747500208
 10
26.92046847032521
 20
-34.17013166835903
 10
26.87723252198533
 20
-34.15086066548841
 10
26.79092749711812
 20
-34.11208180943257
 10
26.69870659734734
 20
-34.07451142827741
 10
26.60583974217308
 20
-34.02884776421276
 10
26.51451241404378
 20
-33.98059220409163
 10
26.42075737018972
 20
-33.92788493464816
 10
26.32255061701332
 20
-33.87372157406599
 10
25.93917608504536
 20
-33.6451583289856
 10
25.52472033224642
 20
-33.32170423513336
 10
25.16305528479723
 20
-32.87284059117548
 10
25.11463554434438
 20
-32.8190809527205
 10
25.07447865009444
 20
-32.75892366429017
 10
25.03091972405281
 20
-32.69965725602048
 10
24.98784526456379
 20
-32.64006787004904
 10
24.94566437671627
 20
-32.57869403227549
 10
24.90251455576351
 20
-32.5169191638556
 10
24.86284212806618
 20
-32.45344327953988
 10
24.825112949541
 20
-32.388024146052
 10
24.78584424397085
 20
-32.3221985989561
 10
24.74803432102023
 20
-32.25572978793756
 10
24.70479837268034
 20
-32.19039139887512
 10
24.67257596396987
 20
-32.12003339803143
 10
24.6062686418022
 20
-31.97988260732211
 10
24.53290963981316
 20
-31.83787200334693
 10
24.478746279231
 20
-31.68776273350056
 10
24.45016275262682
 20
-31.6131145121854
 10
24.41851093785608
 20
-31.53822405759393
 10
24.39236050993836
 20
-31.46138766234947
 10
24.36895539248544
 20
-31.38406680055239
 10
24.34539955210505
 20
-31.3062614722027
 10
24.32175758433752
 20
-31.22780480548783
 10
24.31009808930463
 20
-31.18845535549225
 10
24.29827710542087
 20
-31.14894441664579
 10
24.28661761038797
 20
-31.10919124452302
 10
24.27722972519067
 20
-31.06943807240026
 10
24.26783107406997
 20
-31.02944266700119
 10
24.25844318887266
 20
-30.98936651717668
 10
24.23990426879266
 20
-30.90896929277051
 10
24.22022416083317
 20
-30.82808491033087
 10
24.2029017900964
 20
-30.74614815887974
 10
24.18864770752618
 20
-30.66445633218575
 10
24.1763422570898
 20
-30.58211585860743
 10
24.1630678735482
 20
-30.49920748257021
 10
24.15658678766658
 20
-30.45767255012617
 10
24.15011108474665
 20
-30.41605687325669
 10
24.14363538182672
 20
-30.37427970753634
 10
24.13740191218309
 20
-30.33242179739055
 10
24.1353779185855
 20
-30.29088686494651
 10
24.13100695368859
 20
-30.24894551889444
 10
24.12371842355261
 20
-30.16514626269659
 10
24.11626840456576
 20
-30.08086523142697
 10
24.10881838557891
 20
-29.99609435064304
 10
24.10234268265897
 20
-29.91140421428454
 10
24.10323087133877
 20
-29.82712318301493
 10
24.10031868906139
 20
-29.74194858010382
 10
24.09205584285849
 20
-29.57103147182271
 10
24.10299402102415
 20
-29.4014924017357
 10
24.10865689672804
 20
-29.22976784920023
 10
24.14630533082779
 20
-28.54472945232424
 10
24.29673757837589
 20
-27.86446574247233
 10
24.49436763407193
 20
-27.20104262828543
 10
24.69492063796873
 20
-26.53770295000482
 10
24.94469544361104
 20
-25.890393731654
 10
25.2058067665845
 20
-25.25417610587718
 10
25.4686191054538
 20
-24.61836220222754
 10
25.76316400351927
 20
-24.00141557932134
 10
26.07082717923717
 20
-23.40624572795511
 10
26.37655248874461
 20
-22.81002350757736
 10
26.70598974452163
 20
-22.24092333970341
 10
27.03463032196768
 20
-21.6984634492615
 10
27.36520876562419
 20
-21.15697518340566
 10
27.69457065993746
 20
-20.64139511219124
 10
28.02117647786254
 20
-20.16273139228595
 10
28.34698023449496
 20
-19.68358320582804
 10
28.66395593394642
 20
-19.2377986159601
 10
28.96231196889245
 20
-18.83111047688806
 10
29.2602588987496
 20
-18.42394325422509
 10
29.54379025718566
 20
-18.05903228087339
 10
29.79656337249247
 20
-17.73703966112154
 10
30.04941723222473
 20
-17.41512240283342
 10
30.27465649845802
 20
-17.13863195829534
 10
30.46330777404563
 20
-16.91347343648748
 10
30.65163068896979
 20
-16.68814804286705
 10
30.80141159815272
 20
-16.51269578935731
 10
30.9052919929564
 20
-16.39440520609424
 10
31.00981834316355
 20
-16.2764429834946
 10
31.06560197521612
 20
-16.21345156573149
 10
31.06560197521612
 20
-16.21345156573149
 10
31.06560197521612
 20
-16.21345156573149
 10
31.18154558717987
 20
-16.3052633604134
 10
31.18154558717987
 20
-16.3052633604134
 97
        0
 97
        1
330
87
 75
     2
 76
     1
 98
        1
 10
0.0
 20
0.0
450
        0
451
        0
460
0.0
461
0.0
452
        0
462
0.0
453
        0
470

  0
SPLINE
  5
89
330
81
100
AcDbEntity
  8
Livello 2
100
AcDbSpline
210
0.0
220
0.0
230
1.0
 70
    11
 71
     3
 72
   221
 73
   217
 74
     0
 42
0.0000000001
 43
0.0000000001
 40
0.0
 40
0.0
 40
0.0
 40
0.0
 40
1.0
 40
1.0
 40
1.0
 40
2.0
 40
2.0
 40
2.0
 40
3.0
 40
3.0
 40
3.0
 40
4.0
 40
4.0
 40
4.0
 40
5.0
 40
5.0
 40
5.0
 40
6.0
 40
6.0
 40
6.0
 40
7.0
 40
7.0
 40
7.0
 40
8.0
 40
8.0
 40
8.0
 40
9.0
 40
9.0
 40
9.0
 40
10.0
 40
10.0
 40
10.0
 40
11.0
 40
11.0
 40
11.0
 40
12.0
 40
12.0
 40
12.0
 40
13.0
 40
13.0
 40
13.0
 40
14.0
 40
14.0
 40
14.0
 40
15.0
 40
15.0
 40
15.0
 40
16.0
 40
16.0
 40
16.0
 40
17.0
 40
17.0
 40
17.0
 40
18.0
 40
18.0
 40
18.0
 40
19.0
 40
19.0
 40
19.0
 40
20.0
 40
20.0
 40
20.0
 40
21.0
 40
21.0
 40
21.0
 40
22.0
 40
22.0
 40
22.0
 40
23.0
 40
23.0
 40
23.0
 40
24.0
 40
24.0
 40
24.0
 40
25.0
 40
25.0
 40
25.0
 40
26.0
 40
26.0
 40
26.0
 40
27.0
 40
27.0
 40
27.0
 40
28.0
 40
28.0
 40
28.0
 40
29.0
 40
29.0
 40
29.0
 40
30.0
 40
30.0
 40
30.0
 40
31.0
 40
31.0
 40
31.0
 40
32.0
 40
32.0
 40
32.0
 40
33.0
 40
33.0
 40
33.0
 40
34.0
 40
34.0
 40
34.0
 40
35.0
 40
35.0
 40
35.0
 40
36.0
 40
36.0
 40
36.0
 40
37.0
 40
37.0
 40
37.0
 40
38.0
 40
38.0
 40
38.0
 40
39.0
 40
39.0
 40
39.0
 40
40.0
 40
40.0
 40
40.0
 40
41.0
 40
41.0
 40
41.0
 40
42.0
 40
42.0
 40
42.0
 40
43.0
 40
43.0
 40
43.0
 40
44.0
 40
44.0
 40
44.0
 40
45.0
 40
45.0
 40
45.0
 40
46.0
 40
46.0
 40
46.0
 40
47.0
 40
47.0
 40
47.0
 40
48.0
 40
48.0
 40
48.0
 40
49.0
 40
49.0
 40
49.0
 40
50.0
 40
50.0
 40
50.0
 40
51.0
 40
51.0
 40
51.0
 40
52.0
 40
52.0
 40
52.0
 40
53.0
 40
53.0
 40
53.0
 40
54.0
 40
54.0
 40
54.0
 40
55.0
 40
55.0
 40
55.0
 40
56.0
 40
56.0
 40
56.0
 40
57.0
 40
57.0
 40
57.0
 40
58.0
 40
58.0
 40
58.0
 40
59.0
 40
59.0
 40
59.0
 40
60.0
 40
60.0
 40
60.0
 40
61.0
 40
61.0
 40
61.0
 40
62.0
 40
62.0
 40
62.0
 40
63.0
 40
63.0
 40
63.0
 40
64.0
 40
64.0
 40
64.0
 40
65.0
 40
65.0
 40
65.0
 40
66.0
 40
66.0
 40
66.0
 40
67.0
 40
67.0
 40
67.0
 40
68.0
 40
68.0
 40
68.0
 40
69.0
 40
69.0
 40
69.0
 40
70.0
 40
70.0
 40
70.0
 40
71.0
 40
71.0
 40
71.0
 40
72.0
 40
72.0
 40
72.0
 40
72.0
 10
23.95870911573254
 20
-22.03601821127564
 30
0.0
 10
23.95870911573254
 20
-22.03601821127564
 30
0.0
 10
23.9281877229179
 20
-22.08419571845217
 30
0.0
 10
23.8709453082458
 20
-22.17455411347625
 30
0.0
 10
23.81427348751344
 20
-22.26539159209123
 30
0.0
 10
23.730396178371
 20
-22.39825654414541
 30
0.0
 10
23.62667727241819
 20
-22.56925439685196
 30
0.0
 10
23.52336747155426
 20
-22.7405725357794
 30
0.0
 10
23.39835356913326
 20
-22.94848673979508
 30
0.0
 10
23.25764295040759
 20
-23.18814426893031
 30
0.0
 10
23.11684620429478
 20
-23.42779641510385
 30
0.0
 10
22.96341564708216
 20
-23.70129662441997
 30
0.0
 10
22.79735666173142
 20
-23.99924624575797
 30
0.0
 10
22.63162603704413
 20
-24.29743540889143
 30
0.0
 10
22.45706735517587
 20
-24.62267126306495
 30
0.0
 10
22.2801563190466
 20
-24.96976463320387
 30
0.0
 10
22.1038966212825
 20
-25.31701949219367
 30
0.0
 10
21.92099973174761
 20
-25.68362340699867
 30
0.0
 10
21.74498765022152
 20
-26.06747702255754
 30
0.0
 10
21.56678470328527
 20
-26.45019752467947
 30
0.0
 10
21.39465373714178
 20
-26.84959175065384
 30
0.0
 10
21.22997278998514
 20
-27.25635794267047
 30
0.0
 10
21.06763881412783
 20
-27.66401501484775
 30
0.0
 10
20.91161905233958
 20
-28.0792809033819
 30
0.0
 10
20.78223956798336
 20
-28.4981883655032
 30
0.0
 10
20.75082460352724
 20
-28.6032799266884
 30
0.0
 10
20.71738564547353
 20
-28.7075613521384
 30
0.0
 10
20.6907453680415
 20
-28.81314007135707
 30
0.0
 10
20.6907453680415
 20
-28.81314007135707
 30
0.0
 10
20.64921043559746
 20
-28.97085815756032
 30
0.0
 10
20.64921043559746
 20
-28.97085815756032
 30
0.0
 10
20.64921043559746
 20
-28.97085815756032
 30
0.0
 10
20.61326301739355
 20
-29.12914414622246
 30
0.0
 10
20.61326301739355
 20
-29.12914414622246
 30
0.0
 10
20.58800616111732
 20
-29.23439719625854
 30
0.0
 10
20.56930036922475
 20
-29.33956950186918
 30
0.0
 10
20.54825298899455
 20
-29.44417659650178
 30
0.0
 10
20.53003166365459
 20
-29.54886443555981
 30
0.0
 10
20.51295152619413
 20
-29.65314586100981
 30
0.0
 10
20.49764776609324
 20
-29.75653909778002
 30
0.0
 10
20.48493859352969
 20
-29.85992695158854
 30
0.0
 10
20.46736860655492
 20
-29.96251005262355
 30
0.0
 10
20.45878278265027
 20
-30.06396004022161
 30
0.0
 10
20.45328139579726
 20
-30.11464062458666
 30
0.0
 10
20.44866281466235
 20
-30.16532659191339
 30
0.0
 10
20.44242934501872
 20
-30.21528047644951
 30
0.0
 10
20.43838135782356
 20
-30.26523705246649
 30
0.0
 10
20.43417188177752
 20
-30.31494601224546
 30
0.0
 10
20.43012389458235
 20
-30.3644961746544
 30
0.0
 10
20.41846439954945
 20
-30.4635184465277
 30
0.0
 10
20.41660189480274
 20
-30.56043059741629
 30
0.0
 10
20.40745624288174
 20
-30.65645725110593
 30
0.0
 10
20.40348900011201
 20
-30.75199405528127
 30
0.0
 10
20.39611972555059
 20
-30.84623625716878
 30
0.0
 10
20.39336903212409
 20
-30.93877744316046
 30
0.0
 10
20.39045146688502
 20
-31.03059192932322
 30
0.0
 10
20.38599975756267
 20
-31.12240641548597
 30
0.0
 10
20.38616124641354
 20
-31.21065738100617
 30
0.0
 10
20.38599975756267
 20
-31.25486226245128
 30
0.0
 10
20.38437948609226
 20
-31.29971848226158
 30
0.0
 10
20.38494469707031
 20
-31.3430351750269
 30
0.0
 10
20.3855960354355
 20
-31.38634917631137
 30
0.0
 10
20.38624199083898
 20
-31.42942363580039
 30
0.0
 10
20.38696869066789
 20
-31.47225317053225
 30
0.0
 10
20.38664571296616
 20
-31.51556717181672
 30
0.0
 10
20.38939640639266
 20
-31.55718554016705
 30
0.0
 10
20.39125891113937
 20
-31.59880121703653
 30
0.0
 10
20.39312141588609
 20
-31.64057838275688
 30
0.0
 10
20.3949839206328
 20
-31.68211331520092
 30
0.0
 10
20.39692716980495
 20
-31.72340601436865
 30
0.0
 10
20.40154036797817
 20
-31.7635629086186
 30
0.0
 10
20.4043771887918
 20
-31.80388129171941
 30
0.0
 10
20.40794070943436
 20
-31.84404087745021
 30
0.0
 10
20.40794070943436
 20
-31.84404087745021
 30
0.0
 10
20.41279614088388
 20
-31.90419816588053
 30
0.0
 10
20.41279614088388
 20
-31.90419816588053
 30
0.0
 10
20.41279614088388
 20
-31.90419816588053
 30
0.0
 10
20.42113434855052
 20
-31.96232876923243
 30
0.0
 10
20.42113434855052
 20
-31.96232876923243
 30
0.0
 10
20.42639888508892
 20
-32.00127180561999
 30
0.0
 10
20.43150193277645
 20
-32.03997260873125
 30
0.0
 10
20.43668034192771
 20
-32.07835043414076
 30
0.0
 10
20.44316142780934
 20
-32.11616035709138
 30
0.0
 10
20.45109591334881
 20
-32.15292060251133
 30
0.0
 10
20.45797533839591
 20
-32.19016262300305
 30
0.0
 10
20.46979632227968
 20
-32.26578246890428
 30
0.0
 10
20.49076834104614
 20
-32.33541376991905
 30
0.0
 10
20.5078484785066
 20
-32.40690488419968
 30
0.0
 10
20.51481403094084
 20
-32.44358169371335
 30
0.0
 10
20.52849751957132
 20
-32.47612977160642
 30
0.0
 10
20.53877897641011
 20
-32.51062109867163
 30
0.0
 10
20.54954489980151
 20
-32.54502898983056
 30
0.0
 10
20.56015471730375
 20
-32.57911390328775
 30
0.0
 10
20.57075915184428
 20
-32.61287853052405
 30
0.0
 10
20.58371055768414
 20
-32.64566884169343
 30
0.0
 10
20.5966673464857
 20
-32.67813617516106
 30
0.0
 10
20.60937651904925
 20
-32.71035858387154
 30
0.0
 10
20.62217181899994
 20
-32.74274517291373
 30
0.0
 10
20.6326147646896
 20
-32.77666859752005
 30
0.0
 10
20.64880671347028
 20
-32.80662747083749
 30
0.0
 10
20.75997025544824
 20
-33.05834283417109
 30
0.0
 10
20.90562781597226
 20
-33.28196721189569
 30
0.0
 10
21.0609154949699
 20
-33.47571346072827
 30
0.0
 10
21.10107777218154
 20
-33.52275516298701
 30
0.0
 10
21.14115392200604
 20
-33.56817659377536
 30
0.0
 10
21.17904458938209
 20
-33.61448890472433
 30
0.0
 10
21.21847478380312
 20
-33.65918094420291
 30
0.0
 10
21.25992897182173
 20
-33.69933783845285
 30
0.0
 10
21.29870782787757
 20
-33.74022412401256
 30
0.0
 10
21.29870782787757
 20
-33.74022412401256
 30
0.0
 10
21.35586949812424
 20
-33.80119154817809
 30
0.0
 10
21.35586949812424
 20
-33.80119154817809
 30
0.0
 10
21.35586949812424
 20
-33.80119154817809
 30
0.0
 10
21.41457069541588
 20
-33.8559255027
 30
0.0
 10
21.41457069541588
 20
-33.8559255027
 30
0.0
 10
21.45343029589716
 20
-33.89122427401957
 30
0.0
 10
21.49019054131711
 20
-33.92660378976458
 30
0.0
 10
21.52540587673041
 20
-33.96044916142631
 30
0.0
 10
21.6712249261053
 20
-34.08821106579297
 30
0.0
 10
21.79275605230918
 20
-34.19297964927643
 30
0.0
 10
21.87922256602726
 20
-34.25993561832843
 30
0.0
 10
21.96488163549098
 20
-34.3289990168843
 30
0.0
 10
22.0109544046445
 20
-34.36972381359314
 30
0.0
 10
22.0109544046445
 20
-34.36972381359314
 30
0.0
 10
22.0109544046445
 20
-34.36972381359314
 30
0.0
 10
21.963342108446
 20
-34.50971042397075
 30
0.0
 10
21.963342108446
 20
-34.50971042397075
 30
0.0
 10
21.963342108446
 20
-34.50971042397075
 30
0.0
 10
21.90229932281674
 20
-34.51043981528052
 30
0.0
 10
21.78700704921817
 20
-34.5046908121895
 30
0.0
 10
21.67074045955268
 20
-34.50169519400584
 30
0.0
 10
21.50314194715698
 20
-34.48177823573174
 30
0.0
 10
21.2880226489116
 20
-34.43700545182773
 30
0.0
 10
21.2349089658601
 20
-34.42405135450702
 30
0.0
 10
21.17847399544235
 20
-34.41012563260024
 30
0.0
 10
21.11961669226154
 20
-34.3937721949687
 30
0.0
 10
21.11961669226154
 20
-34.3937721949687
 30
0.0
 10
21.02869308625942
 20
-34.36850995573076
 30
0.0
 10
21.02869308625942
 20
-34.36850995573076
 30
0.0
 10
21.02869308625942
 20
-34.36850995573076
 30
0.0
 10
20.93558399780885
 20
-34.33580038898683
 30
0.0
 10
20.93558399780885
 20
-34.33580038898683
 30
0.0
 10
20.87259258004573
 20
-34.31183275203671
 30
0.0
 10
20.80547781362371
 20
-34.28892017557894
 30
0.0
 10
20.73738334817307
 20
-34.26009979866015
 30
0.0
 10
20.67018245436392
 20
-34.22957302288382
 30
0.0
 10
20.60144203350979
 20
-34.19524318466948
 30
0.0
 10
20.5291434749748
 20
-34.16002515777535
 30
0.0
 10
20.45684491643982
 20
-34.12472638645577
 30
0.0
 10
20.38713017951877
 20
-34.07873705320854
 30
0.0
 10
20.31313060508794
 20
-34.03388352487909
 30
0.0
 10
20.31313060508794
 20
-34.03388352487909
 30
0.0
 10
20.25734697303537
 20
-33.999230708963
 30
0.0
 10
20.25734697303537
 20
-33.999230708963
 30
0.0
 10
20.25734697303537
 20
-33.999230708963
 30
0.0
 10
20.20310286802777
 20
-33.96061065027718
 30
0.0
 10
20.20310286802777
 20
-33.96061065027718
 30
0.0
 10
20.16682708916043
 20
-33.93413724465772
 30
0.0
 10
20.12958237718787
 20
-33.90749696722568
 30
0.0
 10
20.09290825915504
 20
-33.87899956800863
 30
0.0
 10
19.94620102110035
 20
-33.76540561882506
 30
0.0
 10
19.80030122730002
 20
-33.62970922891893
 30
0.0
 10
19.66322949068064
 20
-33.47191039829026
 30
0.0
 10
19.38624919662825
 20
-33.15760733932071
 30
0.0
 10
19.16286705217997
 20
-32.74557661076567
 30
0.0
 10
19.02166658394
 20
-32.29233931043004
 30
0.0
 10
18.87617589522854
 20
-31.83821112993376
 30
0.0
 10
18.82848823756631
 20
-31.34643451533773
 30
0.0
 10
18.85447717663316
 20
-30.85951333219123
 30
0.0
 10
18.85633968137987
 20
-30.79798069704766
 30
0.0
 10
18.86500086674826
 20
-30.73847205550166
 30
0.0
 10
18.87010391443578
 20
-30.67750732281698
 30
0.0
 10
18.87633738407941
 20
-30.61702705668491
 30
0.0
 10
18.88159653765611
 20
-30.55557516596677
 30
0.0
 10
18.89139352794229
 20
-30.49557936638731
 30
0.0
 10
18.91001857540942
 20
-30.37575194756012
 30
0.0
 10
18.92864362287655
 20
-30.25406202398621
 30
0.0
 10
18.95560149504863
 20
-30.13577413220398
 30
0.0
 10
18.96896200597737
 20
-30.07634623508343
 30
0.0
 10
18.98239787836984
 20
-30.01683759353743
 30
0.0
 10
18.99583913372401
 20
-29.95716746314057
 30
0.0
 10
19.01081991612315
 20
-29.89830477699806
 30
0.0
 10
19.02765782030731
 20
-29.83976776003813
 30
0.0
 10
19.04361291877338
 20
-29.78098581832106
 30
0.0
 10
19.07445728928975
 20
-29.66269792653883
 30
0.0
 10
19.11275167879298
 20
-29.54789011949289
 30
0.0
 10
19.14862373553314
 20
-29.43154547688281
 30
0.0
 10
19.30067087158997
 20
-28.96980578854881
 30
0.0
 10
19.48575862653502
 20
-28.52328642440941
 30
0.0
 10
19.67375318079574
 20
-28.08446200401402
 30
0.0
 10
19.86272743408509
 20
-27.64587712541408
 30
0.0
 10
20.07064432958161
 20
-27.22089499101918
 30
0.0
 10
20.29215858632148
 20
-26.81421223490883
 30
0.0
 10
20.51165423242546
 20
-26.40647441830612
 30
0.0
 10
20.74531783371253
 20
-26.01752313802142
 30
0.0
 10
20.97849696844699
 20
-25.64775673322019
 30
0.0
 10
21.21483051873513
 20
-25.2797747802211
 30
0.0
 10
21.44971066936543
 20
-24.93000876960026
 30
0.0
 10
21.6819962324584
 20
-24.60574723149366
 30
0.0
 10
21.91379732899875
 20
-24.28116271568532
 30
0.0
 10
22.13879436195574
 20
-23.97965226518561
 30
0.0
 10
22.35027477809482
 20
-23.70477670915624
 30
0.0
 10
22.56134608914503
 20
-23.42965891985056
 30
0.0
 10
22.76327174827423
 20
-23.18409628173514
 30
0.0
 10
22.94228752242653
 20
-22.96719253168765
 30
0.0
 10
23.121459402468
 20
-22.75037221754643
 30
0.0
 10
23.28128491817512
 20
-22.56447432686618
 30
0.0
 10
23.41527760070455
 20
-22.41347686834002
 30
0.0
 10
23.54895268849394
 20
-22.26231792096299
 30
0.0
 10
23.65493243835894
 20
-22.14451180425253
 30
0.0
 10
23.72885665132602
 20
-22.06533112918958
 30
0.0
 10
23.80309845903316
 20
-21.98630925149667
 30
0.0
 10
23.84269014230505
 20
-21.94428446953831
 30
0.0
 10
23.84269014230505
 20
-21.94428446953831
 30
0.0
 10
23.84269014230505
 20
-21.94428446953831
 30
0.0
 10
23.95870911573254
 20
-22.03601821127564
 30
0.0
 10
23.95870911573254
 20
-22.03601821127564
 30
0.0
  0
HATCH
  5
8A
330
81
100
AcDbEntity
  8
Livello 2
 62
   177
420
  2962539
440
 33554687
100
AcDbHatch
 10
0.0
 20
0.0
 30
0.0
210
0.0
220
0.0
230
1.0
  2
SOLID
 70
     1
 71
     1
 91
        1
 92
        1
 93
        1
 72
     4
 94
        3
 73
     0
 74
     0
 95
      221
 96
      217
 40
0.0
 40
0.0
 40
0.0
 40
0.0
 40
1.0
 40
1.0
 40
1.0
 40
2.0
 40
2.0
 40
2.0
 40
3.0
 40
3.0
 40
3.0
 40
4.0
 40
4.0
 40
4.0
 40
5.0
 40
5.0
 40
5.0
 40
6.0
 40
6.0
 40
6.0
 40
7.0
 40
7.0
 40
7.0
 40
8.0
 40
8.0
 40
8.0
 40
9.0
 40
9.0
 40
9.0
 40
10.0
 40
10.0
 40
10.0
 40
11.0
 40
11.0
 40
11.0
 40
12.0
 40
12.0
 40
12.0
 40
13.0
 40
13.0
 40
13.0
 40
14.0
 40
14.0
 40
14.0
 40
15.0
 40
15.0
 40
15.0
 40
16.0
 40
16.0
 40
16.0
 40
17.0
 40
17.0
 40
17.0
 40
18.0
 40
18.0
 40
18.0
 40
19.0
 40
19.0
 40
19.0
 40
20.0
 40
20.0
 40
20.0
 40
21.0
 40
21.0
 40
21.0
 40
22.0
 40
22.0
 40
22.0
 40
23.0
 40
23.0
 40
23.0
 40
24.0
 40
24.0
 40
24.0
 40
25.0
 40
25.0
 40
25.0
 40
26.0
 40
26.0
 40
26.0
 40
27.0
 40
27.0
 40
27.0
 40
28.0
 40
28.0
 40
28.0
 40
29.0
 40
29.0
 40
29.0
 40
30.0
 40
30.0
 40
30.0
 40
31.0
 40
31.0
 40
31.0
 40
32.0
 40
32.0
 40
32.0
 40
33.0
 40
33.0
 40
33.0
 40
34.0
 40
34.0
 40
34.0
 40
35.0
 40
35.0
 40
35.0
 40
36.0
 40
36.0
 40
36.0
 40
37.0
 40
37.0
 40
37.0
 40
38.0
 40
38.0
 40
38.0
 40
39.0
 40
39.0
 40
39.0
 40
40.0
 40
40.0
 40
40.0
 40
41.0
 40
41.0
 40
41.0
 40
42.0
 40
42.0
 40
42.0
 40
43.0
 40
43.0
 40
43.0
 40
44.0
 40
44.0
 40
44.0
 40
45.0
 40
45.0
 40
45.0
 40
46.0
 40
46.0
 40
46.0
 40
47.0
 40
47.0
 40
47.0
 40
48.0
 40
48.0
 40
48.0
 40
49.0
 40
49.0
 40
49.0
 40
50.0
 40
50.0
 40
50.0
 40
51.0
 40
51.0
 40
51.0
 40
52.0
 40
52.0
 40
52.0
 40
53.0
 40
53.0
 40
53.0
 40
54.0
 40
54.0
 40
54.0
 40
55.0
 40
55.0
 40
55.0
 40
56.0
 40
56.0
 40
56.0
 40
57.0
 40
57.0
 40
57.0
 40
58.0
 40
58.0
 40
58.0
 40
59.0
 40
59.0
 40
59.0
 40
60.0
 40
60.0
 40
60.0
 40
61.0
 40
61.0
 40
61.0
 40
62.0
 40
62.0
 40
62.0
 40
63.0
 40
63.0
 40
63.0
 40
64.0
 40
64.0
 40
64.0
 40
65.0
 40
65.0
 40
65.0
 40
66.0
 40
66.0
 40
66.0
 40
67.0
 40
67.0
 40
67.0
 40
68.0
 40
68.0
 40
68.0
 40
69.0
 40
69.0
 40
69.0
 40
70.0
 40
70.0
 40
70.0
 40
71.0
 40
71.0
 40
71.0
 40
72.0
 40
72.0
 40
72.0
 40
72.0
 10
23.95870911573254
 20
-22.03601821127564
 10
23.95870911573254
 20
-22.03601821127564
 10
23.9281877229179
 20
-22.08419571845217
 10
23.8709453082458
 20
-22.17455411347625
 10
23.81427348751344
 20
-22.26539159209123
 10
23.730396178371
 20
-22.39825654414541
 10
23.62667727241819
 20
-22.56925439685196
 10
23.52336747155426
 20
-22.7405725357794
 10
23.39835356913326
 20
-22.94848673979508
 10
23.25764295040759
 20
-23.18814426893031
 10
23.11684620429478
 20
-23.42779641510385
 10
22.96341564708216
 20
-23.70129662441997
 10
22.79735666173142
 20
-23.99924624575797
 10
22.63162603704413
 20
-24.29743540889143
 10
22.45706735517587
 20
-24.62267126306495
 10
22.2801563190466
 20
-24.96976463320387
 10
22.1038966212825
 20
-25.31701949219367
 10
21.92099973174761
 20
-25.68362340699867
 10
21.74498765022152
 20
-26.06747702255754
 10
21.56678470328527
 20
-26.45019752467947
 10
21.39465373714178
 20
-26.84959175065384
 10
21.22997278998514
 20
-27.25635794267047
 10
21.06763881412783
 20
-27.66401501484775
 10
20.91161905233958
 20
-28.0792809033819
 10
20.78223956798336
 20
-28.4981883655032
 10
20.75082460352724
 20
-28.6032799266884
 10
20.71738564547353
 20
-28.7075613521384
 10
20.6907453680415
 20
-28.81314007135707
 10
20.6907453680415
 20
-28.81314007135707
 10
20.64921043559746
 20
-28.97085815756032
 10
20.64921043559746
 20
-28.97085815756032
 10
20.64921043559746
 20
-28.97085815756032
 10
20.61326301739355
 20
-29.12914414622246
 10
20.61326301739355
 20
-29.12914414622246
 10
20.58800616111732
 20
-29.23439719625854
 10
20.56930036922475
 20
-29.33956950186918
 10
20.54825298899455
 20
-29.44417659650178
 10
20.53003166365459
 20
-29.54886443555981
 10
20.51295152619413
 20
-29.65314586100981
 10
20.49764776609324
 20
-29.75653909778002
 10
20.48493859352969
 20
-29.85992695158854
 10
20.46736860655492
 20
-29.96251005262355
 10
20.45878278265027
 20
-30.06396004022161
 10
20.45328139579726
 20
-30.11464062458666
 10
20.44866281466235
 20
-30.16532659191339
 10
20.44242934501872
 20
-30.21528047644951
 10
20.43838135782356
 20
-30.26523705246649
 10
20.43417188177752
 20
-30.31494601224546
 10
20.43012389458235
 20
-30.3644961746544
 10
20.41846439954945
 20
-30.4635184465277
 10
20.41660189480274
 20
-30.56043059741629
 10
20.40745624288174
 20
-30.65645725110593
 10
20.40348900011201
 20
-30.75199405528127
 10
20.39611972555059
 20
-30.84623625716878
 10
20.39336903212409
 20
-30.93877744316046
 10
20.39045146688502
 20
-31.03059192932322
 10
20.38599975756267
 20
-31.12240641548597
 10
20.38616124641354
 20
-31.21065738100617
 10
20.38599975756267
 20
-31.25486226245128
 10
20.38437948609226
 20
-31.29971848226158
 10
20.38494469707031
 20
-31.3430351750269
 10
20.3855960354355
 20
-31.38634917631137
 10
20.38624199083898
 20
-31.42942363580039
 10
20.38696869066789
 20
-31.47225317053225
 10
20.38664571296616
 20
-31.51556717181672
 10
20.38939640639266
 20
-31.55718554016705
 10
20.39125891113937
 20
-31.59880121703653
 10
20.39312141588609
 20
-31.64057838275688
 10
20.3949839206328
 20
-31.68211331520092
 10
20.39692716980495
 20
-31.72340601436865
 10
20.40154036797817
 20
-31.7635629086186
 10
20.4043771887918
 20
-31.80388129171941
 10
20.40794070943436
 20
-31.84404087745021
 10
20.40794070943436
 20
-31.84404087745021
 10
20.41279614088388
 20
-31.90419816588053
 10
20.41279614088388
 20
-31.90419816588053
 10
20.41279614088388
 20
-31.90419816588053
 10
20.42113434855052
 20
-31.96232876923243
 10
20.42113434855052
 20
-31.96232876923243
 10
20.42639888508892
 20
-32.00127180561999
 10
20.43150193277645
 20
-32.03997260873125
 10
20.43668034192771
 20
-32.07835043414076
 10
20.44316142780934
 20
-32.11616035709138
 10
20.45109591334881
 20
-32.15292060251133
 10
20.45797533839591
 20
-32.19016262300305
 10
20.46979632227968
 20
-32.26578246890428
 10
20.49076834104614
 20
-32.33541376991905
 10
20.5078484785066
 20
-32.40690488419968
 10
20.51481403094084
 20
-32.44358169371335
 10
20.52849751957132
 20
-32.47612977160642
 10
20.53877897641011
 20
-32.51062109867163
 10
20.54954489980151
 20
-32.54502898983056
 10
20.56015471730375
 20
-32.57911390328775
 10
20.57075915184428
 20
-32.61287853052405
 10
20.58371055768414
 20
-32.64566884169343
 10
20.5966673464857
 20
-32.67813617516106
 10
20.60937651904925
 20
-32.71035858387154
 10
20.62217181899994
 20
-32.74274517291373
 10
20.6326147646896
 20
-32.77666859752005
 10
20.64880671347028
 20
-32.80662747083749
 10
20.75997025544824
 20
-33.05834283417109
 10
20.90562781597226
 20
-33.28196721189569
 10
21.0609154949699
 20
-33.47571346072827
 10
21.10107777218154
 20
-33.52275516298701
 10
21.14115392200604
 20
-33.56817659377536
 10
21.17904458938209
 20
-33.61448890472433
 10
21.21847478380312
 20
-33.65918094420291
 10
21.25992897182173
 20
-33.69933783845285
 10
21.29870782787757
 20
-33.74022412401256
 10
21.29870782787757
 20
-33.74022412401256
 10
21.35586949812424
 20
-33.80119154817809
 10
21.35586949812424
 20
-33.80119154817809
 10
21.35586949812424
 20
-33.80119154817809
 10
21.41457069541588
 20
-33.8559255027
 10
21.41457069541588
 20
-33.8559255027
 10
21.45343029589716
 20
-33.89122427401957
 10
21.49019054131711
 20
-33.92660378976458
 10
21.52540587673041
 20
-33.96044916142631
 10
21.6712249261053
 20
-34.08821106579297
 10
21.79275605230918
 20
-34.19297964927643
 10
21.87922256602726
 20
-34.25993561832843
 10
21.96488163549098
 20
-34.3289990168843
 10
22.0109544046445
 20
-34.36972381359314
 10
22.0109544046445
 20
-34.36972381359314
 10
22.0109544046445
 20
-34.36972381359314
 10
21.963342108446
 20
-34.50971042397075
 10
21.963342108446
 20
-34.50971042397075
 10
21.963342108446
 20
-34.50971042397075
 10
21.90229932281674
 20
-34.51043981528052
 10
21.78700704921817
 20
-34.5046908121895
 10
21.67074045955268
 20
-34.50169519400584
 10
21.50314194715698
 20
-34.48177823573174
 10
21.2880226489116
 20
-34.43700545182773
 10
21.2349089658601
 20
-34.42405135450702
 10
21.17847399544235
 20
-34.41012563260024
 10
21.11961669226154
 20
-34.3937721949687
 10
21.11961669226154
 20
-34.3937721949687
 10
21.02869308625942
 20
-34.36850995573076
 10
21.02869308625942
 20
-34.36850995573076
 10
21.02869308625942
 20
-34.36850995573076
 10
20.93558399780885
 20
-34.33580038898683
 10
20.93558399780885
 20
-34.33580038898683
 10
20.87259258004573
 20
-34.31183275203671
 10
20.80547781362371
 20
-34.28892017557894
 10
20.73738334817307
 20
-34.26009979866015
 10
20.67018245436392
 20
-34.22957302288382
 10
20.60144203350979
 20
-34.19524318466948
 10
20.5291434749748
 20
-34.16002515777535
 10
20.45684491643982
 20
-34.12472638645577
 10
20.38713017951877
 20
-34.07873705320854
 10
20.31313060508794
 20
-34.03388352487909
 10
20.31313060508794
 20
-34.03388352487909
 10
20.25734697303537
 20
-33.999230708963
 10
20.25734697303537
 20
-33.999230708963
 10
20.25734697303537
 20
-33.999230708963
 10
20.20310286802777
 20
-33.96061065027718
 10
20.20310286802777
 20
-33.96061065027718
 10
20.16682708916043
 20
-33.93413724465772
 10
20.12958237718787
 20
-33.90749696722568
 10
20.09290825915504
 20
-33.87899956800863
 10
19.94620102110035
 20
-33.76540561882506
 10
19.80030122730002
 20
-33.62970922891893
 10
19.66322949068064
 20
-33.47191039829026
 10
19.38624919662825
 20
-33.15760733932071
 10
19.16286705217997
 20
-32.74557661076567
 10
19.02166658394
 20
-32.29233931043004
 10
18.87617589522854
 20
-31.83821112993376
 10
18.82848823756631
 20
-31.34643451533773
 10
18.85447717663316
 20
-30.85951333219123
 10
18.85633968137987
 20
-30.79798069704766
 10
18.86500086674826
 20
-30.73847205550166
 10
18.87010391443578
 20
-30.67750732281698
 10
18.87633738407941
 20
-30.61702705668491
 10
18.88159653765611
 20
-30.55557516596677
 10
18.89139352794229
 20
-30.49557936638731
 10
18.91001857540942
 20
-30.37575194756012
 10
18.92864362287655
 20
-30.25406202398621
 10
18.95560149504863
 20
-30.13577413220398
 10
18.96896200597737
 20
-30.07634623508343
 10
18.98239787836984
 20
-30.01683759353743
 10
18.99583913372401
 20
-29.95716746314057
 10
19.01081991612315
 20
-29.89830477699806
 10
19.02765782030731
 20
-29.83976776003813
 10
19.04361291877338
 20
-29.78098581832106
 10
19.07445728928975
 20
-29.66269792653883
 10
19.11275167879298
 20
-29.54789011949289
 10
19.14862373553314
 20
-29.43154547688281
 10
19.30067087158997
 20
-28.96980578854881
 10
19.48575862653502
 20
-28.52328642440941
 10
19.67375318079574
 20
-28.08446200401402
 10
19.86272743408509
 20
-27.64587712541408
 10
20.07064432958161
 20
-27.22089499101918
 10
20.29215858632148
 20
-26.81421223490883
 10
20.51165423242546
 20
-26.40647441830612
 10
20.74531783371253
 20
-26.01752313802142
 10
20.97849696844699
 20
-25.64775673322019
 10
21.21483051873513
 20
-25.2797747802211
 10
21.44971066936543
 20
-24.93000876960026
 10
21.6819962324584
 20
-24.60574723149366
 10
21.91379732899875
 20
-24.28116271568532
 10
22.13879436195574
 20
-23.97965226518561
 10
22.35027477809482
 20
-23.70477670915624
 10
22.56134608914503
 20
-23.42965891985056
 10
22.76327174827423
 20
-23.18409628173514
 10
22.94228752242653
 20
-22.96719253168765
 10
23.121459402468
 20
-22.75037221754643
 10
23.28128491817512
 20
-22.56447432686618
 10
23.41527760070455
 20
-22.41347686834002
 10
23.54895268849394
 20
-22.26231792096299
 10
23.65493243835894
 20
-22.14451180425253
 10
23.72885665132602
 20
-22.06533112918958
 10
23.80309845903316
 20
-21.98630925149667
 10
23.84269014230505
 20
-21.94428446953831
 10
23.84269014230505
 20
-21.94428446953831
 10
23.84269014230505
 20
-21.94428446953831
 10
23.95870911573254
 20
-22.03601821127564
 10
23.95870911573254
 20
-22.03601821127564
 97
        0
 97
        1
330
89
 75
     2
 76
     1
 98
        1
 10
0.0
 20
0.0
450
        0
451
        0
460
0.0
461
0.0
452
        0
462
0.0
453
        0
470

  0
SPLINE
  5
8B
330
81
100
AcDbEntity
  8
Livello 2
100
AcDbSpline
210
0.0
220
0.0
230
1.0
 70
    11
 71
     3
 72
   182
 73
   178
 74
     0
 42
0.0000000001
 43
0.0000000001
 40
0.0
 40
0.0
 40
0.0
 40
0.0
 40
1.0
 40
1.0
 40
1.0
 40
2.0
 40
2.0
 40
2.0
 40
3.0
 40
3.0
 40
3.0
 40
4.0
 40
4.0
 40
4.0
 40
5.0
 40
5.0
 40
5.0
 40
6.0
 40
6.0
 40
6.0
 40
7.0
 40
7.0
 40
7.0
 40
8.0
 40
8.0
 40
8.0
 40
9.0
 40
9.0
 40
9.0
 40
10.0
 40
10.0
 40
10.0
 40
11.0
 40
11.0
 40
11.0
 40
12.0
 40
12.0
 40
12.0
 40
13.0
 40
13.0
 40
13.0
 40
14.0
 40
14.0
 40
14.0
 40
15.0
 40
15.0
 40
15.0
 40
16.0
 40
16.0
 40
16.0
 40
17.0
 40
17.0
 40
17.0
 40
18.0
 40
18.0
 40
18.0
 40
19.0
 40
19.0
 40
19.0
 40
20.0
 40
20.0
 40
20.0
 40
21.0
 40
21.0
 40
21.0
 40
22.0
 40
22.0
 40
22.0
 40
23.0
 40
23.0
 40
23.0
 40
24.0
 40
24.0
 40
24.0
 40
25.0
 40
25.0
 40
25.0
 40
26.0
 40
26.0
 40
26.0
 40
27.0
 40
27.0
 40
27.0
 40
28.0
 40
28.0
 40
28.0
 40
29.0
 40
29.0
 40
29.0
 40
30.0
 40
30.0
 40
30.0
 40
31.0
 40
31.0
 40
31.0
 40
32.0
 40
32.0
 40
32.0
 40
33.0
 40
33.0
 40
33.0
 40
34.0
 40
34.0
 40
34.0
 40
35.0
 40
35.0
 40
35.0
 40
36.0
 40
36.0
 40
36.0
 40
37.0
 40
37.0
 40
37.0
 40
38.0
 40
38.0
 40
38.0
 40
39.0
 40
39.0
 40
39.0
 40
40.0
 40
40.0
 40
40.0
 40
41.0
 40
41.0
 40
41.0
 40
42.0
 40
42.0
 40
42.0
 40
43.0
 40
43.0
 40
43.0
 40
44.0
 40
44.0
 40
44.0
 40
45.0
 40
45.0
 40
45.0
 40
46.0
 40
46.0
 40
46.0
 40
47.0
 40
47.0
 40
47.0
 40
48.0
 40
48.0
 40
48.0
 40
49.0
 40
49.0
 40
49.0
 40
50.0
 40
50.0
 40
50.0
 40
51.0
 40
51.0
 40
51.0
 40
52.0
 40
52.0
 40
52.0
 40
53.0
 40
53.0
 40
53.0
 40
54.0
 40
54.0
 40
54.0
 40
55.0
 40
55.0
 40
55.0
 40
56.0
 40
56.0
 40
56.0
 40
57.0
 40
57.0
 40
57.0
 40
58.0
 40
58.0
 40
58.0
 40
59.0
 40
59.0
 40
59.0
 40
59.0
 10
20.9042013311229
 20
-24.53393852247299
 30
0.0
 10
20.9042013311229
 20
-24.53393852247299
 30
0.0
 10
20.87853536975779
 20
-24.5728842503414
 30
0.0
 10
20.83052473439381
 20
-24.64599563609243
 30
0.0
 10
20.78291782115702
 20
-24.71967223282152
 30
0.0
 10
20.71223415113074
 20
-24.8271134567869
 30
0.0
 10
20.62495481019662
 20
-24.96556592308122
 30
0.0
 10
20.53799844696423
 20
-25.10425254820932
 30
0.0
 10
20.43250316365185
 20
-25.27241627158308
 30
0.0
 10
20.31372811383616
 20
-25.46624595632194
 30
0.0
 10
20.19479157516961
 20
-25.65999220515453
 30
0.0
 10
20.06549283523883
 20
-25.88142840894981
 30
0.0
 10
19.92477683355146
 20
-26.12205756267112
 30
0.0
 10
19.78462604284214
 20
-26.36300431113248
 30
0.0
 10
19.63686912725679
 20
-26.62589739442721
 30
0.0
 10
19.48724432396303
 20
-26.90643851764131
 30
0.0
 10
19.33819011460902
 20
-27.18730261855715
 30
0.0
 10
19.18298318003682
 20
-27.48322824629757
 30
0.0
 10
19.03392358772111
 20
-27.79340526512736
 30
0.0
 10
18.8826031514932
 20
-28.1022015542822
 30
0.0
 10
18.73710707982005
 20
-28.42484282091839
 30
0.0
 10
18.59728464977417
 20
-28.75250639081667
 30
0.0
 10
18.45997067987848
 20
-29.08138381857734
 30
0.0
 10
18.32726990815602
 20
-29.41544503845096
 30
0.0
 10
18.21861482632826
 20
-29.75233500469568
 30
0.0
 10
18.19222216513422
 20
-29.83678021629702
 30
0.0
 10
18.16404236065722
 20
-29.92049872806944
 30
0.0
 10
18.14210140878554
 20
-30.00543109770424
 30
0.0
 10
18.13077027441608
 20
-30.04785421882807
 30
0.0
 10
18.11845944101801
 20
-30.08995705373101
 30
0.0
 10
18.10777426205204
 20
-30.13230212191026
 30
0.0
 10
18.10777426205204
 20
-30.13230212191026
 30
0.0
 10
18.07854478004437
 20
-30.25949612381802
 30
0.0
 10
18.07854478004437
 20
-30.25949612381802
 30
0.0
 10
18.05790112194135
 20
-30.34402477132565
 30
0.0
 10
18.04341018905652
 20
-30.42830580259526
 30
0.0
 10
18.02632466863436
 20
-30.51210505879311
 30
0.0
 10
18.01280266885475
 20
-30.59614654826728
 30
0.0
 10
17.99839248039535
 20
-30.67953939085711
 30
0.0
 10
17.98754042961682
 20
-30.7620413532863
 30
0.0
 10
17.97758195047977
 20
-30.8444652627709
 30
0.0
 10
17.96487277791621
 20
-30.92615708946488
 30
0.0
 10
17.95880079712346
 20
-31.00647356944562
 30
0.0
 10
17.95491429877916
 20
-31.04655241075098
 30
0.0
 10
17.95118928928574
 20
-31.08646438024377
 30
0.0
 10
17.94738353536688
 20
-31.12630098827282
 30
0.0
 10
17.9444713530895
 20
-31.16564774678755
 30
0.0
 10
17.94155378785043
 20
-31.20483570793227
 30
0.0
 10
17.93864160557306
 20
-31.24385948874527
 30
0.0
 10
17.93427064067614
 20
-31.28288596103911
 30
0.0
 10
17.9323220085423
 20
-31.32118304202319
 30
0.0
 10
17.93070712003359
 20
-31.35915445382468
 30
0.0
 10
17.92924833741405
 20
-31.39729004595789
 30
0.0
 10
17.92536183906976
 20
-31.43485504415135
 30
0.0
 10
17.92301486777043
 20
-31.47234468088107
 30
0.0
 10
17.92333784547217
 20
-31.54594053318473
 30
0.0
 10
17.91321787748425
 20
-31.62018234089186
 30
0.0
 10
17.91483814895466
 20
-31.69070452206726
 30
0.0
 10
17.90649455832632
 20
-31.83393167538568
 30
0.0
 10
17.91135537273754
 20
-31.96727571103078
 30
0.0
 10
17.91038105667061
 20
-32.09746802260305
 30
0.0
 10
17.91224356141733
 20
-32.12936745361179
 30
0.0
 10
17.91426755501491
 20
-32.16061823773619
 30
0.0
 10
17.91467666010379
 20
-32.19235617989405
 30
0.0
 10
17.91467666010379
 20
-32.19235617989405
 30
0.0
 10
17.91993581368049
 20
-32.2853064709746
 30
0.0
 10
17.91993581368049
 20
-32.2853064709746
 30
0.0
 10
17.91993581368049
 20
-32.2853064709746
 30
0.0
 10
17.92641151660042
 20
-32.37647231025302
 30
0.0
 10
17.92641151660042
 20
-32.37647231025302
 30
0.0
 10
17.92641151660042
 20
-32.37647231025302
 30
0.0
 10
17.93750580065526
 20
-32.46407462888889
 30
0.0
 10
17.93750580065526
 20
-32.46407462888889
 30
0.0
 10
17.96535724446883
 20
-32.69765748575053
 30
0.0
 10
18.02672839076153
 20
-32.90500647878815
 30
0.0
 10
18.11441683678454
 20
-33.0994821189305
 30
0.0
 10
18.20144856148066
 20
-33.29379627022199
 30
0.0
 10
18.31941616704199
 20
-33.47200190863908
 30
0.0
 10
18.44571659730826
 20
-33.62882642320084
 30
0.0
 10
18.5705690108784
 20
-33.78735733662014
 30
0.0
 10
18.70707015355803
 20
-33.9178699344133
 30
0.0
 10
18.8212320052005
 20
-34.03203178605577
 30
0.0
 10
18.88171496281341
 20
-34.08725020713029
 30
0.0
 10
18.9357168345447
 20
-34.13647470035665
 30
0.0
 10
18.98267779237802
 20
-34.1793042350885
 30
0.0
 10
18.98267779237802
 20
-34.1793042350885
 30
0.0
 10
19.05036315273979
 20
-34.2393807790934
 30
0.0
 10
19.05036315273979
 20
-34.2393807790934
 30
0.0
 10
19.05036315273979
 20
-34.2393807790934
 30
0.0
 10
19.1078424177265
 20
-34.28949615248039
 30
0.0
 10
19.1078424177265
 20
-34.28949615248039
 30
0.0
 10
19.1769919436695
 20
-34.35021865188876
 30
0.0
 10
19.21415052825494
 20
-34.38641368633067
 30
0.0
 10
19.21415052825494
 20
-34.38641368633067
 30
0.0
 10
19.21415052825494
 20
-34.38641368633067
 30
0.0
 10
19.16978415795895
 20
-34.52737192129435
 30
0.0
 10
19.16978415795895
 20
-34.52737192129435
 30
0.0
 10
19.16978415795895
 20
-34.52737192129435
 30
0.0
 10
19.11869446850504
 20
-34.53311823290451
 30
0.0
 10
19.02202185941191
 20
-34.53651757321534
 30
0.0
 10
18.97384973519707
 20
-34.53765337813314
 30
0.0
 10
18.91345290497128
 20
-34.54129764320113
 30
0.0
 10
18.84357667919936
 20
-34.53732770895055
 30
0.0
 10
18.77402881409088
 20
-34.53247227750102
 30
0.0
 10
18.6925792206732
 20
-34.52793713227239
 30
0.0
 10
18.60165561467108
 20
-34.51700702854927
 30
0.0
 10
18.42191314068987
 20
-34.48850693785137
 30
0.0
 10
18.19756206313636
 20
-34.44745916344079
 30
0.0
 10
17.95086631158399
 20
-34.34042435308344
 30
0.0
 10
17.7040844326445
 20
-34.23719529664494
 30
0.0
 10
17.42767473253185
 20
-34.07591368979914
 30
0.0
 10
17.17223166822397
 20
-33.8249223348136
 30
0.0
 10
17.14089744819328
 20
-33.79326513708117
 30
0.0
 10
17.10761997899044
 20
-33.7620950973822
 30
0.0
 10
17.07693709732494
 20
-33.72809092835045
 30
0.0
 10
17.04730389319009
 20
-33.69303169882633
 30
0.0
 10
17.01742845577894
 20
-33.65757143865589
 30
0.0
 10
16.98722465770435
 20
-33.62186356224745
 30
0.0
 10
16.9241578784775
 20
-33.55102109485115
 30
0.0
 10
16.87420399394138
 20
-33.4696522458589
 30
0.0
 10
16.81752679024732
 20
-33.38893204375099
 30
0.0
 10
16.78918549691944
 20
-33.3485302247439
 30
0.0
 10
16.7675729057112
 20
-33.30472637394512
 30
0.0
 10
16.74214917762239
 20
-33.26165460593695
 30
0.0
 10
16.71818423215313
 20
-33.21825716874619
 30
0.0
 10
16.6917861879974
 20
-33.17453675385369
 30
0.0
 10
16.67090029661807
 20
-33.12903457863992
 30
0.0
 10
16.62928461974859
 20
-33.03803022821237
 30
0.0
 10
16.58394393338569
 20
-32.94435592878374
 30
0.0
 10
16.55180226910065
 20
-32.84736034198887
 30
0.0
 10
16.47788343909525
 20
-32.65361409315629
 30
0.0
 10
16.43286573043409
 20
-32.45031039583298
 30
0.0
 10
16.399911238933
 20
-32.24255768066817
 30
0.0
 10
16.38906457111616
 20
-32.14013606848403
 30
0.0
 10
16.37351857773897
 20
-32.03399213828732
 30
0.0
 10
16.37311485561179
 20
-31.93060159299796
 30
0.0
 10
16.37149458414138
 20
-31.87854027895796
 30
0.0
 10
16.36914761284205
 20
-31.82599449836536
 30
0.0
 10
16.36963207939467
 20
-31.77353215367904
 30
0.0
 10
16.37165607299225
 20
-31.72179381734079
 30
0.0
 10
16.3735993221644
 20
-31.66981593920708
 30
0.0
 10
16.37562331576199
 20
-31.61767388074166
 30
0.0
 10
16.39667069599218
 20
-31.19981878763188
 30
0.0
 10
16.50654232716318
 20
-30.79815295182192
 30
0.0
 10
16.64401778590973
 20
-30.41510947199825
 30
0.0
 10
16.78344187679013
 20
-30.0319045033237
 30
0.0
 10
16.95265527769455
 20
-29.66724114621001
 30
0.0
 10
17.12138421204636
 20
-29.30945990562427
 30
0.0
 10
17.29116820689052
 20
-28.95200433422112
 30
0.0
 10
17.47682117281362
 20
-28.60839104881847
 30
0.0
 10
17.67388601753161
 20
-28.28121463695365
 30
0.0
 10
17.86900761307744
 20
-27.95314734492819
 30
0.0
 10
18.07603631989417
 20
-27.64224362626948
 30
0.0
 10
18.28233294392029
 20
-27.34785483409318
 30
0.0
 10
18.49129951694748
 20
-27.05500826044271
 30
0.0
 10
18.69800524606247
 20
-26.77746275541227
 30
0.0
 10
18.90243936534187
 20
-26.5213737357009
 30
0.0
 10
19.10622752921779
 20
-26.2649563553261
 30
0.0
 10
19.30369609606296
 20
-26.02757312750729
 30
0.0
 10
19.48886459543343
 20
-25.81139607728871
 30
0.0
 10
19.67370473414048
 20
-25.59506022970011
 30
0.0
 10
19.85044889845719
 20
-25.40325723003967
 30
0.0
 10
20.00679702090888
 20
-25.23363472404638
 30
0.0
 10
20.16329586628805
 20
-25.06409296247853
 30
0.0
 10
20.30255846831758
 20
-24.9192509206514
 30
0.0
 10
20.41946563042486
 20
-24.80201539788069
 30
0.0
 10
20.53605519779209
 20
-24.68437346150195
 30
0.0
 10
20.62827609756286
 20
-24.59280390009635
 30
0.0
 10
20.69264017055838
 20
-24.53159155117366
 30
0.0
 10
20.75733260421734
 20
-24.47038458521267
 30
0.0
 10
20.79182662276341
 20
-24.43783919880045
 30
0.0
 10
20.79182662276341
 20
-24.43783919880045
 30
0.0
 10
20.79182662276341
 20
-24.43783919880045
 30
0.0
 10
20.86817316849356
 20
-24.45718556313481
 30
0.0
 10
20.86817316849356
 20
-24.45718556313481
 30
0.0
 10
20.86817316849356
 20
-24.45718556313481
 30
0.0
 10
20.9042013311229
 20
-24.53393852247299
 30
0.0
 10
20.9042013311229
 20
-24.53393852247299
 30
0.0
  0
HATCH
  5
8C
330
81
100
AcDbEntity
  8
Livello 2
 62
   177
420
  2962539
440
 33554687
100
AcDbHatch
 10
0.0
 20
0.0
 30
0.0
210
0.0
220
0.0
230
1.0
  2
SOLID
 70
     1
 71
     1
 91
        1
 92
        1
 93
        2
 72
     4
 94
        3
 73
     0
 74
     0
 95
      182
 96
      178
 40
0.0
 40
0.0
 40
0.0
 40
0.0
 40
1.0
 40
1.0
 40
1.0
 40
2.0
 40
2.0
 40
2.0
 40
3.0
 40
3.0
 40
3.0
 40
4.0
 40
4.0
 40
4.0
 40
5.0
 40
5.0
 40
5.0
 40
6.0
 40
6.0
 40
6.0
 40
7.0
 40
7.0
 40
7.0
 40
8.0
 40
8.0
 40
8.0
 40
9.0
 40
9.0
 40
9.0
 40
10.0
 40
10.0
 40
10.0
 40
11.0
 40
11.0
 40
11.0
 40
12.0
 40
12.0
 40
12.0
 40
13.0
 40
13.0
 40
13.0
 40
14.0
 40
14.0
 40
14.0
 40
15.0
 40
15.0
 40
15.0
 40
16.0
 40
16.0
 40
16.0
 40
17.0
 40
17.0
 40
17.0
 40
18.0
 40
18.0
 40
18.0
 40
19.0
 40
19.0
 40
19.0
 40
20.0
 40
20.0
 40
20.0
 40
21.0
 40
21.0
 40
21.0
 40
22.0
 40
22.0
 40
22.0
 40
23.0
 40
23.0
 40
23.0
 40
24.0
 40
24.0
 40
24.0
 40
25.0
 40
25.0
 40
25.0
 40
26.0
 40
26.0
 40
26.0
 40
27.0
 40
27.0
 40
27.0
 40
28.0
 40
28.0
 40
28.0
 40
29.0
 40
29.0
 40
29.0
 40
30.0
 40
30.0
 40
30.0
 40
31.0
 40
31.0
 40
31.0
 40
32.0
 40
32.0
 40
32.0
 40
33.0
 40
33.0
 40
33.0
 40
34.0
 40
34.0
 40
34.0
 40
35.0
 40
35.0
 40
35.0
 40
36.0
 40
36.0
 40
36.0
 40
37.0
 40
37.0
 40
37.0
 40
38.0
 40
38.0
 40
38.0
 40
39.0
 40
39.0
 40
39.0
 40
40.0
 40
40.0
 40
40.0
 40
41.0
 40
41.0
 40
41.0
 40
42.0
 40
42.0
 40
42.0
 40
43.0
 40
43.0
 40
43.0
 40
44.0
 40
44.0
 40
44.0
 40
45.0
 40
45.0
 40
45.0
 40
46.0
 40
46.0
 40
46.0
 40
47.0
 40
47.0
 40
47.0
 40
48.0
 40
48.0
 40
48.0
 40
49.0
 40
49.0
 40
49.0
 40
50.0
 40
50.0
 40
50.0
 40
51.0
 40
51.0
 40
51.0
 40
52.0
 40
52.0
 40
52.0
 40
53.0
 40
53.0
 40
53.0
 40
54.0
 40
54.0
 40
54.0
 40
55.0
 40
55.0
 40
55.0
 40
56.0
 40
56.0
 40
56.0
 40
57.0
 40
57.0
 40
57.0
 40
58.0
 40
58.0
 40
58.0
 40
59.0
 40
59.0
 40
59.0
 40
59.0
 10
20.9042013311229
 20
-24.53393852247299
 10
20.9042013311229
 20
-24.53393852247299
 10
20.87853536975779
 20
-24.5728842503414
 10
20.83052473439381
 20
-24.64599563609243
 10
20.78291782115702
 20
-24.71967223282152
 10
20.71223415113074
 20
-24.8271134567869
 10
20.62495481019662
 20
-24.96556592308122
 10
20.53799844696423
 20
-25.10425254820932
 10
20.43250316365185
 20
-25.27241627158308
 10
20.31372811383616
 20
-25.46624595632194
 10
20.19479157516961
 20
-25.65999220515453
 10
20.06549283523883
 20
-25.88142840894981
 10
19.92477683355146
 20
-26.12205756267112
 10
19.78462604284214
 20
-26.36300431113248
 10
19.63686912725679
 20
-26.62589739442721
 10
19.48724432396303
 20
-26.90643851764131
 10
19.33819011460902
 20
-27.18730261855715
 10
19.18298318003682
 20
-27.48322824629757
 10
19.03392358772111
 20
-27.79340526512736
 10
18.8826031514932
 20
-28.1022015542822
 10
18.73710707982005
 20
-28.42484282091839
 10
18.59728464977417
 20
-28.75250639081667
 10
18.45997067987848
 20
-29.08138381857734
 10
18.32726990815602
 20
-29.41544503845096
 10
18.21861482632826
 20
-29.75233500469568
 10
18.19222216513422
 20
-29.83678021629702
 10
18.16404236065722
 20
-29.92049872806944
 10
18.14210140878554
 20
-30.00543109770424
 10
18.13077027441608
 20
-30.04785421882807
 10
18.11845944101801
 20
-30.08995705373101
 10
18.10777426205204
 20
-30.13230212191026
 10
18.10777426205204
 20
-30.13230212191026
 10
18.07854478004437
 20
-30.25949612381802
 10
18.07854478004437
 20
-30.25949612381802
 10
18.05790112194135
 20
-30.34402477132565
 10
18.04341018905652
 20
-30.42830580259526
 10
18.02632466863436
 20
-30.51210505879311
 10
18.01280266885475
 20
-30.59614654826728
 10
17.99839248039535
 20
-30.67953939085711
 10
17.98754042961682
 20
-30.7620413532863
 10
17.97758195047977
 20
-30.8444652627709
 10
17.96487277791621
 20
-30.92615708946488
 10
17.95880079712346
 20
-31.00647356944562
 10
17.95491429877916
 20
-31.04655241075098
 10
17.95118928928574
 20
-31.08646438024377
 10
17.94738353536688
 20
-31.12630098827282
 10
17.9444713530895
 20
-31.16564774678755
 10
17.94155378785043
 20
-31.20483570793227
 10
17.93864160557306
 20
-31.24385948874527
 10
17.93427064067614
 20
-31.28288596103911
 10
17.9323220085423
 20
-31.32118304202319
 10
17.93070712003359
 20
-31.35915445382468
 10
17.92924833741405
 20
-31.39729004595789
 10
17.92536183906976
 20
-31.43485504415135
 10
17.92301486777043
 20
-31.47234468088107
 10
17.92333784547217
 20
-31.54594053318473
 10
17.91321787748425
 20
-31.62018234089186
 10
17.91483814895466
 20
-31.69070452206726
 10
17.90649455832632
 20
-31.83393167538568
 10
17.91135537273754
 20
-31.96727571103078
 10
17.91038105667061
 20
-32.09746802260305
 10
17.91224356141733
 20
-32.12936745361179
 10
17.91426755501491
 20
-32.16061823773619
 10
17.91467666010379
 20
-32.19235617989405
 10
17.91467666010379
 20
-32.19235617989405
 10
17.91993581368049
 20
-32.2853064709746
 10
17.91993581368049
 20
-32.2853064709746
 10
17.91993581368049
 20
-32.2853064709746
 10
17.92641151660042
 20
-32.37647231025302
 10
17.92641151660042
 20
-32.37647231025302
 10
17.92641151660042
 20
-32.37647231025302
 10
17.93750580065526
 20
-32.46407462888889
 10
17.93750580065526
 20
-32.46407462888889
 10
17.96535724446883
 20
-32.69765748575053
 10
18.02672839076153
 20
-32.90500647878815
 10
18.11441683678454
 20
-33.0994821189305
 10
18.20144856148066
 20
-33.29379627022199
 10
18.31941616704199
 20
-33.47200190863908
 10
18.44571659730826
 20
-33.62882642320084
 10
18.5705690108784
 20
-33.78735733662014
 10
18.70707015355803
 20
-33.9178699344133
 10
18.8212320052005
 20
-34.03203178605577
 10
18.88171496281341
 20
-34.08725020713029
 10
18.9357168345447
 20
-34.13647470035665
 10
18.98267779237802
 20
-34.1793042350885
 10
18.98267779237802
 20
-34.1793042350885
 10
19.05036315273979
 20
-34.2393807790934
 10
19.05036315273979
 20
-34.2393807790934
 10
19.05036315273979
 20
-34.2393807790934
 10
19.1078424177265
 20
-34.28949615248039
 10
19.1078424177265
 20
-34.28949615248039
 10
19.1769919436695
 20
-34.35021865188876
 10
19.21415052825494
 20
-34.38641368633067
 10
19.21415052825494
 20
-34.38641368633067
 10
19.21415052825494
 20
-34.38641368633067
 10
19.16978415795895
 20
-34.52737192129435
 10
19.16978415795895
 20
-34.52737192129435
 10
19.16978415795895
 20
-34.52737192129435
 10
19.11869446850504
 20
-34.53311823290451
 10
19.02202185941191
 20
-34.53651757321534
 10
18.97384973519707
 20
-34.53765337813314
 10
18.91345290497128
 20
-34.54129764320113
 10
18.84357667919936
 20
-34.53732770895055
 10
18.77402881409088
 20
-34.53247227750102
 10
18.6925792206732
 20
-34.52793713227239
 10
18.60165561467108
 20
-34.51700702854927
 10
18.42191314068987
 20
-34.48850693785137
 10
18.19756206313636
 20
-34.44745916344079
 10
17.95086631158399
 20
-34.34042435308344
 10
17.7040844326445
 20
-34.23719529664494
 10
17.42767473253185
 20
-34.07591368979914
 10
17.17223166822397
 20
-33.8249223348136
 10
17.14089744819328
 20
-33.79326513708117
 10
17.10761997899044
 20
-33.7620950973822
 10
17.07693709732494
 20
-33.72809092835045
 10
17.04730389319009
 20
-33.69303169882633
 10
17.01742845577894
 20
-33.65757143865589
 10
16.98722465770435
 20
-33.62186356224745
 10
16.9241578784775
 20
-33.55102109485115
 10
16.87420399394138
 20
-33.4696522458589
 10
16.81752679024732
 20
-33.38893204375099
 10
16.78918549691944
 20
-33.3485302247439
 10
16.7675729057112
 20
-33.30472637394512
 10
16.74214917762239
 20
-33.26165460593695
 10
16.71818423215313
 20
-33.21825716874619
 10
16.6917861879974
 20
-33.17453675385369
 10
16.67090029661807
 20
-33.12903457863992
 10
16.62928461974859
 20
-33.03803022821237
 10
16.58394393338569
 20
-32.94435592878374
 10
16.55180226910065
 20
-32.84736034198887
 10
16.47788343909525
 20
-32.65361409315629
 10
16.43286573043409
 20
-32.45031039583298
 10
16.399911238933
 20
-32.24255768066817
 10
16.38906457111616
 20
-32.14013606848403
 10
16.37351857773897
 20
-32.03399213828732
 10
16.37311485561179
 20
-31.93060159299796
 10
16.37149458414138
 20
-31.87854027895796
 10
16.36914761284205
 20
-31.82599449836536
 10
16.36963207939467
 20
-31.77353215367904
 10
16.37165607299225
 20
-31.72179381734079
 10
16.3735993221644
 20
-31.66981593920708
 10
16.37562331576199
 20
-31.61767388074166
 10
16.39667069599218
 20
-31.19981878763188
 10
16.50654232716318
 20
-30.79815295182192
 10
16.64401778590973
 20
-30.41510947199825
 10
16.78344187679013
 20
-30.0319045033237
 10
16.95265527769455
 20
-29.66724114621001
 10
17.12138421204636
 20
-29.30945990562427
 10
17.29116820689052
 20
-28.95200433422112
 10
17.47682117281362
 20
-28.60839104881847
 10
17.67388601753161
 20
-28.28121463695365
 10
17.86900761307744
 20
-27.95314734492819
 10
18.07603631989417
 20
-27.64224362626948
 10
18.28233294392029
 20
-27.34785483409318
 10
18.49129951694748
 20
-27.05500826044271
 10
18.69800524606247
 20
-26.77746275541227
 10
18.90243936534187
 20
-26.5213737357009
 10
19.10622752921779
 20
-26.2649563553261
 10
19.30369609606296
 20
-26.02757312750729
 10
19.48886459543343
 20
-25.81139607728871
 10
19.67370473414048
 20
-25.59506022970011
 10
19.85044889845719
 20
-25.40325723003967
 10
20.00679702090888
 20
-25.23363472404638
 10
20.16329586628805
 20
-25.06409296247853
 10
20.30255846831758
 20
-24.9192509206514
 10
20.41946563042486
 20
-24.80201539788069
 10
20.53605519779209
 20
-24.68437346150195
 10
20.62827609756286
 20
-24.59280390009635
 10
20.69264017055838
 20
-24.53159155117366
 10
20.75733260421734
 20
-24.47038458521267
 10
20.79182662276341
 20
-24.43783919880045
 10
20.79182662276341
 20
-24.43783919880045
 10
20.79182662276341
 20
-24.43783919880045
 10
20.86817316849356
 20
-24.45718556313481
 10
20.86817316849356
 20
-24.45718556313481
 10
20.86817316849356
 20
-24.45718556313481
 10
20.9042013311229
 20
-24.53393852247299
 10
20.9042013311229
 20
-24.53393852247299
 97
        0
 72
     1
 10
20.9042013311229
 20
-24.53393852247299
 11
20.9042013311229
 21
-24.53393852247299
 97
        0
 75
     2
 76
     1
 98
        1
 10
0.0
 20
0.0
450
        0
451
        0
460
0.0
461
0.0
452
        0
462
0.0
453
        0
470

  0
ENDBLK
  5
84
330
81
100
AcDbEntity
  8
0
100
AcDbBlockEnd
  0
ENDSEC
  0
SECTION
  2
ENTITIES
  0
INSERT
  5
7A
330
70
100
AcDbEntity
  8
Livello 2
100
AcDbBlockReference
  2
Block_0
 10
0.0
 20
0.0
 30
0.0
  0
CIRCLE
  5
8D
330
70
100
AcDbEntity
  8
Livello 2
 62
    12
420
 14878227
370
    35
100
AcDbCircle
 10
23.77555653336459
 20
-24.72630776668489
 30
0.0
 40
13.51606425364918
  0
CIRCLE
  5
8F
330
70
100
AcDbEntity
  8
Livello 1
 62
   250
420
  1907995
370
    35
100
AcDbCircle
 10
23.77555653336452
 20
-24.72630776668489
 30
0.0
 40
15.50522087965782
  0
CIRCLE
  5
90
330
70
100
AcDbEntity
  8
Livello 1
 62
   250
420
  1907995
370
    35
100
AcDbCircle
 10
23.77555653336452
 20
-14.84852999137655
 30
0.0
 40
2.027409638047484
  0
ENDSEC
  0
SECTION
  2
OBJECTS
  0
DICTIONARY
  5
C
330
0
100
AcDbDictionary
281
     1
  3
ACAD_COLOR
350
63
  3
ACAD_DETAILVIEWSTYLE
350
6A
  3
ACAD_GROUP
350
D
  3
ACAD_LAYOUT
350
62
  3
ACAD_MATERIAL
350
10
  3
ACAD_MLEADERSTYLE
350
66
  3
ACAD_MLINESTYLE
350
5F
  3
ACAD_PLOTSETTINGS
350
61
  3
ACAD_PLOTSTYLENAME
350
E
  3
ACAD_SCALELIST
350
42
  3
ACAD_SECTIONVIEWSTYLE
350
68
  3
ACAD_TABLESTYLE
350
64
  3
ACAD_VISUALSTYLE
350
29
  3
ACDB_RECOMPOSE_DATA
350
99
  3
AcDbVariableDictionary
350
91
  0
DICTIONARY
  5
63
102
{ACAD_REACTORS
330
C
102
}
330
C
100
AcDbDictionary
281
     1
  0
DICTIONARY
  5
6A
102
{ACAD_REACTORS
330
C
102
}
330
C
100
AcDbDictionary
281
     1
  3
Imperial24
350
6B
  0
DICTIONARY
  5
D
102
{ACAD_REACTORS
330
C
102
}
330
C
100
AcDbDictionary
281
     1
  0
DICTIONARY
  5
62
102
{ACAD_REACTORS
330
C
102
}
330
C
100
AcDbDictionary
281
     1
  3
Layout1
350
6F
  3
Layout2
350
77
  3
Model
350
73
  0
DICTIONARY
  5
10
102
{ACAD_REACTORS
330
C
102
}
330
C
100
AcDbDictionary
281
     1
  3
ByBlock
350
19
  3
ByLayer
350
11
  3
Global
350
21
  0
DICTIONARY
  5
66
102
{ACAD_REACTORS
330
C
102
}
330
C
100
AcDbDictionary
281
     1
  3
Standard
350
67
  0
DICTIONARY
  5
5F
102
{ACAD_REACTORS
330
C
102
}
330
C
100
AcDbDictionary
281
     1
  3
Standard
350
60
  0
DICTIONARY
  5
61
102
{ACAD_REACTORS
330
C
102
}
330
C
100
AcDbDictionary
281
     1
  0
ACDBDICTIONARYWDFLT
  5
E
102
{ACAD_REACTORS
330
C
102
}
330
C
100
AcDbDictionary
281
     1
  3
Normal
350
F
100
AcDbDictionaryWithDefault
340
F
  0
DICTIONARY
  5
42
102
{ACAD_REACTORS
330
C
102
}
330
C
100
AcDbDictionary
281
     1
  3
A0
350
43
  3
A1
350
44
  3
A2
350
45
  3
A3
350
46
  3
A4
350
47
  3
A5
350
48
  3
A6
350
49
  3
A7
350
4A
  3
A8
350
4B
  3
A9
350
4C
  3
B0
350
4D
  3
B1
350
4E
  3
B2
350
4F
  3
B3
350
50
  3
B4
350
51
  3
B5
350
52
  3
B6
350
53
  0
DICTIONARY
  5
68
102
{ACAD_REACTORS
330
C
102
}
330
C
100
AcDbDictionary
281
     1
  3
Imperial24
350
69
  0
DICTIONARY
  5
64
102
{ACAD_REACTORS
330
C
102
}
330
C
100
AcDbDictionary
281
     1
  3
Standard
350
65
  0
DICTIONARY
  5
29
102
{ACAD_REACTORS
330
C
102
}
330
C
100
AcDbDictionary
281
     1
  3
2dWireframe
350
2F
  3
Basic
350
2E
  3
Brighten
350
35
  3
ColorChange
350
39
  3
Conceptual
350
32
  3
Dim
350
34
  3
EdgeColorOff
350
41
  3
Facepattern
350
38
  3
Flat
350
2A
  3
FlatWithEdges
350
2B
  3
Gouraud
350
2C
  3
GouraudWithEdges
350
2D
  3
Hidden
350
31
  3
JitterOff
350
3F
  3
Linepattern
350
37
  3
OverhangOff
350
40
  3
Realistic
350
33
  3
Shaded
350
3E
  3
Shaded with edges
350
3D
  3
Shades of Gray
350
3A
  3
Sketchy
350
3B
  3
Thicken
350
36
  3
Wireframe
350
30
  3
X-Ray
350
3C
  0
XRECORD
  5
99
102
{ACAD_REACTORS
330
C
102
}
330
C
100
AcDbXrecord
280
     1
 90
        1
330
65
  0
DICTIONARY
  5
91
102
{ACAD_REACTORS
330
C
102
}
330
C
100
AcDbDictionary
281
     1
  3
CANNOSCALE
350
96
  3
CMLEADERSTYLE
350
93
  3
CTABLESTYLE
350
92
  3
CVIEWDETAILSTYLE
350
94
  3
CVIEWSECTIONSTYLE
350
95
  0
ACDBDETAILVIEWSTYLE
  5
6B
102
{ACAD_REACTORS
330
6A
102
}
330
6A
100
AcDbModelDocViewStyle
 70
     0
  3
Imperial24
290
     1
300
Imperial24
 90
        0
100
AcDbDetailViewStyle
 70
     0
 71
     0
 90
        3
 71
     1
340
55
 62
   256
 40
0.24
340
0
 62
   256
 40
0.24
300

 40
0.36
280
     3
 71
     2
340
5D
 90
       25
 62
   256
 71
     3
340
55
 62
   256
 40
0.24
 90
        1
 40
0.75
 90
        1
300
%<\AcVar ViewType \f "%tc1">% %<\AcVar ViewDetailId>%\PSCALE %<\AcVar ViewScale \f "%sn">%
 71
     4
340
5D
 90
       25
 62
   256
340
5D
 90
       25
 62
   256
280
     0
  0
LAYOUT
  5
6F
102
{ACAD_REACTORS
330
62
102
}
330
62
100
AcDbPlotSettings
  1

  2

  4

  6

 40
0.0
 41
0.0
 42
0.0
 43
0.0
 44
0.0
 45
0.0
 46
0.0
 47
0.0
 48
0.0
 49
0.0
140
0.0
141
0.0
142
1.0
143
1.0
 70
   688
 72
     0
 73
     0
 74
     5
  7

 75
    16
147
1.0
 76
     0
 77
     2
 78
   300
148
0.0
149
0.0
100
AcDbLayout
  1
Layout1
 70
     1
 71
     1
 10
0.0
 20
0.0
 11
12.0
 21
9.0
 12
0.0
 22
0.0
 32
0.0
 14
0.0
 24
0.0
 34
0.0
 15
0.0
 25
0.0
 35
0.0
146
0.0
 13
0.0
 23
0.0
 33
0.0
 16
1.0
 26
0.0
 36
0.0
 17
0.0
 27
1.0
 37
0.0
 76
     0
330
6C
  0
LAYOUT
  5
77
102
{ACAD_REACTORS
330
62
102
}
330
62
100
AcDbPlotSettings
  1

  2

  4

  6

 40
0.0
 41
0.0
 42
0.0
 43
0.0
 44
0.0
 45
0.0
 46
0.0
 47
0.0
 48
0.0
 49
0.0
140
0.0
141
0.0
142
1.0
143
1.0
 70
   688
 72
     0
 73
     0
 74
     5
  7

 75
    16
147
1.0
 76
     0
 77
     2
 78
   300
148
0.0
149
0.0
100
AcDbLayout
  1
Layout2
 70
     1
 71
     2
 10
0.0
 20
0.0
 11
12.0
 21
9.0
 12
0.0
 22
0.0
 32
0.0
 14
0.0
 24
0.0
 34
0.0
 15
0.0
 25
0.0
 35
0.0
146
0.0
 13
0.0
 23
0.0
 33
0.0
 16
1.0
 26
0.0
 36
0.0
 17
0.0
 27
1.0
 37
0.0
 76
     0
330
74
  0
LAYOUT
  5
73
102
{ACAD_REACTORS
330
62
102
}
330
62
100
AcDbPlotSettings
  1

  2

  4

  6

 40
0.0
 41
0.0
 42
0.0
 43
0.0
 44
0.0
 45
0.0
 46
0.0
 47
0.0
 48
0.0
 49
0.0
140
0.0
141
0.0
142
1.0
143
1.0
 70
  1712
 72
     0
 73
     0
 74
     0
  7

 75
     0
147
1.0
 76
     0
 77
     2
 78
   300
148
0.0
149
0.0
100
AcDbLayout
  1
Model
 70
     1
 71
     0
 10
0.0
 20
0.0
 11
12.0
 21
9.0
 12
0.0
 22
0.0
 32
0.0
 14
0.0
 24
0.0
 34
0.0
 15
0.0
 25
0.0
 35
0.0
146
0.0
 13
0.0
 23
0.0
 33
0.0
 16
1.0
 26
0.0
 36
0.0
 17
0.0
 27
1.0
 37
0.0
 76
     0
330
70
  0
MATERIAL
  5
19
102
{ACAD_XDICTIONARY
360
1A
102
}
102
{ACAD_REACTORS
330
10
102
}
330
10
100
AcDbMaterial
  1
ByBlock
 72
     0
 43
0.0208333333333333
 43
0.0
 43
0.0
 43
0.0
 43
0.0
 43
0.0208333333333333
 43
0.0
 43
0.0
 43
0.0
 43
0.0
 43
1.0
 43
0.0
 43
0.0
 43
0.0
 43
0.0
 43
1.0
 77
     0
 47
0.0208333333333333
 47
0.0
 47
0.0
 47
0.0
 47
0.0
 47
0.0208333333333333
 47
0.0
 47
0.0
 47
0.0
 47
0.0
 47
1.0
 47
0.0
 47
0.0
 47
0.0
 47
0.0
 47
1.0
171
     0
 49
0.0208333333333333
 49
0.0
 49
0.0
 49
0.0
 49
0.0
 49
0.0208333333333333
 49
0.0
 49
0.0
 49
0.0
 49
0.0
 49
1.0
 49
0.0
 49
0.0
 49
0.0
 49
0.0
 49
1.0
175
     0
142
0.0208333333333333
142
0.0
142
0.0
142
0.0
142
0.0
142
0.0208333333333333
142
0.0
142
0.0
142
0.0
142
0.0
142
1.0
142
0.0
142
0.0
142
0.0
142
0.0
142
1.0
179
     0
144
0.0208333333333333
144
0.0
144
0.0
144
0.0
144
0.0
144
0.0208333333333333
144
0.0
144
0.0
144
0.0
144
0.0
144
1.0
144
0.0
144
0.0
144
0.0
144
0.0
144
1.0
147
0.0208333333333333
147
0.0
147
0.0
147
0.0
147
0.0
147
0.0208333333333333
147
0.0
147
0.0
147
0.0
147
0.0
147
1.0
147
0.0
147
0.0
147
0.0
147
0.0
147
1.0
  0
MATERIAL
  5
11
102
{ACAD_XDICTIONARY
360
12
102
}
102
{ACAD_REACTORS
330
10
102
}
330
10
100
AcDbMaterial
  1
ByLayer
 72
     0
 43
0.0208333333333333
 43
0.0
 43
0.0
 43
0.0
 43
0.0
 43
0.0208333333333333
 43
0.0
 43
0.0
 43
0.0
 43
0.0
 43
1.0
 43
0.0
 43
0.0
 43
0.0
 43
0.0
 43
1.0
 77
     0
 47
0.0208333333333333
 47
0.0
 47
0.0
 47
0.0
 47
0.0
 47
0.0208333333333333
 47
0.0
 47
0.0
 47
0.0
 47
0.0
 47
1.0
 47
0.0
 47
0.0
 47
0.0
 47
0.0
 47
1.0
171
     0
 49
0.0208333333333333
 49
0.0
 49
0.0
 49
0.0
 49
0.0
 49
0.0208333333333333
 49
0.0
 49
0.0
 49
0.0
 49
0.0
 49
1.0
 49
0.0
 49
0.0
 49
0.0
 49
0.0
 49
1.0
175
     0
142
0.0208333333333333
142
0.0
142
0.0
142
0.0
142
0.0
142
0.0208333333333333
142
0.0
142
0.0
142
0.0
142
0.0
142
1.0
142
0.0
142
0.0
142
0.0
142
0.0
142
1.0
179
     0
144
0.0208333333333333
144
0.0
144
0.0
144
0.0
144
0.0
144
0.0208333333333333
144
0.0
144
0.0
144
0.0
144
0.0
144
1.0
144
0.0
144
0.0
144
0.0
144
0.0
144
1.0
147
0.0208333333333333
147
0.0
147
0.0
147
0.0
147
0.0
147
0.0208333333333333
147
0.0
147
0.0
147
0.0
147
0.0
147
1.0
147
0.0
147
0.0
147
0.0
147
0.0
147
1.0
  0
MATERIAL
  5
21
102
{ACAD_XDICTIONARY
360
22
102
}
102
{ACAD_REACTORS
330
10
102
}
330
10
100
AcDbMaterial
  1
Global
 72
     0
 43
0.0208333333333333
 43
0.0
 43
0.0
 43
0.0
 43
0.0
 43
0.0208333333333333
 43
0.0
 43
0.0
 43
0.0
 43
0.0
 43
1.0
 43
0.0
 43
0.0
 43
0.0
 43
0.0
 43
1.0
 77
     0
 47
0.0208333333333333
 47
0.0
 47
0.0
 47
0.0
 47
0.0
 47
0.0208333333333333
 47
0.0
 47
0.0
 47
0.0
 47
0.0
 47
1.0
 47
0.0
 47
0.0
 47
0.0
 47
0.0
 47
1.0
171
     0
 49
0.0208333333333333
 49
0.0
 49
0.0
 49
0.0
 49
0.0
 49
0.0208333333333333
 49
0.0
 49
0.0
 49
0.0
 49
0.0
 49
1.0
 49
0.0
 49
0.0
 49
0.0
 49
0.0
 49
1.0
175
     0
142
0.0208333333333333
142
0.0
142
0.0
142
0.0
142
0.0
142
0.0208333333333333
142
0.0
142
0.0
142
0.0
142
0.0
142
1.0
142
0.0
142
0.0
142
0.0
142
0.0
142
1.0
179
     0
144
0.0208333333333333
144
0.0
144
0.0
144
0.0
144
0.0
144
0.0208333333333333
144
0.0
144
0.0
144
0.0
144
0.0
144
1.0
144
0.0
144
0.0
144
0.0
144
0.0
144
1.0
147
0.0208333333333333
147
0.0
147
0.0
147
0.0
147
0.0
147
0.0208333333333333
147
0.0
147
0.0
147
0.0
147
0.0
147
1.0
147
0.0
147
0.0
147
0.0
147
0.0
147
1.0
  0
MLEADERSTYLE
  5
67
102
{ACAD_REACTORS
330
66
102
}
330
66
100
AcDbMLeaderStyle
179
     2
170
     2
171
     1
172
     0
 90
        2
 40
0.0
 41
0.0
173
     1
 91
-1056964608
340
5B
 92
       -2
290
     1
 42
0.09
291
     1
 43
0.36
  3
Standard
 44
0.18
300

342
55
174
     1
178
     6
175
     1
176
     0
 93
-1056964608
 45
0.18
292
     0
297
     0
 46
0.18
 94
-1056964608
 47
1.0
 49
1.0
140
1.0
293
     1
141
0.0
294
     1
177
     0
142
1.0
295
     1
296
     0
143
0.125
271
     0
272
     9
273
     9
298
     1
  0
MLINESTYLE
  5
60
102
{ACAD_REACTORS
330
5F
102
}
330
5F
100
AcDbMlineStyle
  2
STANDARD
 70
     0
  3

 62
   256
 51
90.0
 52
90.0
 71
     2
 49
0.5
 62
   256
  6
BYLAYER
 49
-0.5
 62
   256
  6
BYLAYER
  0
ACDBPLACEHOLDER
  5
F
102
{ACAD_REACTORS
330
E
102
}
330
E
  0
SCALE
  5
43
102
{ACAD_REACTORS
330
42
102
}
330
42
100
AcDbScale
 70
     0
300
1:1
140
1.0
141
1.0
290
     1
  0
SCALE
  5
44
102
{ACAD_REACTORS
330
42
102
}
330
42
100
AcDbScale
 70
     0
300
1/128" = 1'-0"
140
0.0078125
141
12.0
290
     0
  0
SCALE
  5
45
102
{ACAD_REACTORS
330
42
102
}
330
42
100
AcDbScale
 70
     0
300
1/64" = 1'-0"
140
0.015625
141
12.0
290
     0
  0
SCALE
  5
46
102
{ACAD_REACTORS
330
42
102
}
330
42
100
AcDbScale
 70
     0
300
1/32" = 1'-0"
140
0.03125
141
12.0
290
     0
  0
SCALE
  5
47
102
{ACAD_REACTORS
330
42
102
}
330
42
100
AcDbScale
 70
     0
300
1/16" = 1'-0"
140
0.0625
141
12.0
290
     0
  0
SCALE
  5
48
102
{ACAD_REACTORS
330
42
102
}
330
42
100
AcDbScale
 70
     0
300
3/32" = 1'-0"
140
0.09375
141
12.0
290
     0
  0
SCALE
  5
49
102
{ACAD_REACTORS
330
42
102
}
330
42
100
AcDbScale
 70
     0
300
1/8" = 1'-0"
140
0.125
141
12.0
290
     0
  0
SCALE
  5
4A
102
{ACAD_REACTORS
330
42
102
}
330
42
100
AcDbScale
 70
     0
300
3/16" = 1'-0"
140
0.1875
141
12.0
290
     0
  0
SCALE
  5
4B
102
{ACAD_REACTORS
330
42
102
}
330
42
100
AcDbScale
 70
     0
300
1/4" = 1'-0"
140
0.25
141
12.0
290
     0
  0
SCALE
  5
4C
102
{ACAD_REACTORS
330
42
102
}
330
42
100
AcDbScale
 70
     0
300
3/8" = 1'-0"
140
0.375
141
12.0
290
     0
  0
SCALE
  5
4D
102
{ACAD_REACTORS
330
42
102
}
330
42
100
AcDbScale
 70
     0
300
1/2" = 1'-0"
140
0.5
141
12.0
290
     0
  0
SCALE
  5
4E
102
{ACAD_REACTORS
330
42
102
}
330
42
100
AcDbScale
 70
     0
300
3/4" = 1'-0"
140
0.75
141
12.0
290
     0
  0
SCALE
  5
4F
102
{ACAD_REACTORS
330
42
102
}
330
42
100
AcDbScale
 70
     0
300
1" = 1'-0"
140
1.0
141
12.0
290
     0
  0
SCALE
  5
50
102
{ACAD_REACTORS
330
42
102
}
330
42
100
AcDbScale
 70
     0
300
1-1/2" = 1'-0"
140
1.5
141
12.0
290
     0
  0
SCALE
  5
51
102
{ACAD_REACTORS
330
42
102
}
330
42
100
AcDbScale
 70
     0
300
3" = 1'-0"
140
3.0
141
12.0
290
     0
  0
SCALE
  5
52
102
{ACAD_REACTORS
330
42
102
}
330
42
100
AcDbScale
 70
     0
300
6" = 1'-0"
140
6.0
141
12.0
290
     0
  0
SCALE
  5
53
102
{ACAD_REACTORS
330
42
102
}
330
42
100
AcDbScale
 70
     0
300
1'-0" = 1'-0"
140
12.0
141
12.0
290
     0
  0
ACDBSECTIONVIEWSTYLE
  5
69
102
{ACAD_REACTORS
330
68
102
}
330
68
100
AcDbModelDocViewStyle
 70
     0
  3
Imperial24
290
     1
300
Imperial24
 90
        0
100
AcDbSectionViewStyle
 70
     0
 71
     0
 90
       78
 71
     1
340
55
 62
   256
 40
0.24
340
0
340
0
 62
   256
 40
0.24
300
I, O, Q, S, X, Z
 40
0.48
 90
        3
 40
0.18
 90
        1
 71
     2
340
5D
 90
       25
 62
   256
340
5D
 90
       50
 62
   256
 40
0.24
 40
0.0
 40
0.24
 71
     3
340
55
 62
   256
 40
0.24
 90
        1
 40
0.75
 90
        1
300
%<\AcVar ViewType \f "%tc1">% %<\AcVar ViewSectionStartId>%-%<\AcVar ViewSectionEndId>%\PSCALE %<\AcVar ViewScale \f "%sn">%
 71
     4
 62
   256
 62
   257
300
ANSI31
 40
1.0
 90
        0
290
     0
290
     0
 90
        6
 40
0.0
 40
1.570796326794896
 40
0.2617993877991494
 40
1.308996938995747
 40
-0.2617993877991494
 40
1.832595714594046
  0
TABLESTYLE
  5
65
102
{ACAD_XDICTIONARY
360
97
102
}
102
{ACAD_REACTORS
330
64
102
}
330
64
100
AcDbTableStyle
280
     0
  3
Standard
 70
     0
 71
     0
 40
0.06
 41
0.06
280
     0
281
     0
  7
Standard
140
0.18
170
     2
 62
     0
 63
     7
283
     0
 90
      512
 91
        0
  1

274
    -2
284
     1
 64
     0
275
    -2
285
     1
 65
     0
276
    -2
286
     1
 66
     0
277
    -2
287
     1
 67
     0
278
    -2
288
     1
 68
     0
279
    -2
289
     1
 69
     0
  7
Standard
140
0.25
170
     5
 62
     0
 63
     7
283
     0
 90
      512
 91
        0
  1

274
    -2
284
     1
 64
     0
275
    -2
285
     1
 65
     0
276
    -2
286
     1
 66
     0
277
    -2
287
     1
 67
     0
278
    -2
288
     1
 68
     0
279
    -2
289
     1
 69
     0
  7
Standard
140
0.18
170
     5
 62
     0
 63
     7
283
     0
 90
      512
 91
        0
  1

274
    -2
284
     1
 64
     0
275
    -2
285
     1
 65
     0
276
    -2
286
     1
 66
     0
277
    -2
287
     1
 67
     0
278
    -2
288
     1
 68
     0
279
    -2
289
     1
 69
     0
  0
VISUALSTYLE
  5
2F
102
{ACAD_REACTORS
330
29
102
}
330
29
100
AcDbVisualStyle
  2
2dWireframe
 70
     4
177
     3
291
     0
 70
    58
 90
        0
176
     1
 90
        2
176
     1
 90
        0
176
     1
 90
        0
176
     1
 40
0.6
176
     1
 40
30.0
176
     1
 62
     7
420
 16777215
176
     1
 90
        1
176
     1
 90
        4
176
     1
 62
     7
176
     1
 62
   257
176
     1
 90
        1
176
     1
 90
        1
176
     1
 40
1.0
176
     1
 90
        0
176
     1
 62
   257
176
     1
 40
1.0
176
     1
 90
        1
176
     1
 90
        6
176
     1
 90
        2
176
     1
 62
     7
176
     1
 90
        5
176
     1
 90
        0
176
     1
 90
        0
176
     1
290
     0
176
     1
 90
        1
176
     1
 40
0.0
176
     1
 90
        0
176
     1
290
     1
176
     1
290
     1
176
     1
290
     0
176
     1
290
     0
176
     1
290
     0
176
     1
290
     0
176
     1
290
     0
176
     1
290
     0
176
     1
290
     0
176
     1
 90
       50
176
     1
 40
0.0
176
     1
 40
1.0
176
     1
 90
        0
176
     1
 62
    18
420
        0
176
     1
 90
       50
176
     1
 90
        3
176
     1
 62
     5
420
      255
176
     1
290
     0
176
     1
 90
       50
176
     1
 90
       50
176
     1
 90
       50
176
     1
290
     0
176
     1
 90
       50
176
     1
 62
   256
176
     0
 40
1.0
176
     0
 90
        2
176
     1
  1
strokes_ogs.tif
176
     1
290
     0
176
     1
 40
1.0
176
     1
 40
1.0
176
     1
  0
VISUALSTYLE
  5
2E
102
{ACAD_REACTORS
330
29
102
}
330
29
100
AcDbVisualStyle
  2
Basic
 70
     7
177
     3
291
     1
 70
    58
 90
        1
176
     1
 90
        0
176
     1
 90
        1
176
     1
 90
        0
176
     1
 40
0.6
176
     1
 40
30.0
176
     1
 62
     7
420
 16777215
176
     1
 90
        0
176
     1
 90
        4
176
     1
 62
     7
176
     1
 62
   257
176
     1
 90
        1
176
     1
 90
        1
176
     1
 40
1.0
176
     1
 90
        8
176
     1
 62
     7
176
     1
 40
1.0
176
     1
 90
        1
176
     1
 90
        6
176
     1
 90
        2
176
     1
 62
     7
176
     1
 90
        5
176
     1
 90
        0
176
     1
 90
        0
176
     1
290
     0
176
     1
 90
        1
176
     1
 40
0.0
176
     1
 90
        0
176
     1
290
     0
176
     1
290
     1
176
     1
290
     1
176
     1
290
     0
176
     1
290
     0
176
     1
290
     0
176
     1
290
     0
176
     1
290
     0
176
     1
290
     0
176
     1
 90
       50
176
     1
 40
0.0
176
     1
 40
1.0
176
     1
 90
        0
176
     1
 62
    18
420
        0
176
     1
 90
       50
176
     1
 90
        3
176
     1
 62
     5
420
      255
176
     1
290
     0
176
     1
 90
       50
176
     1
 90
       50
176
     1
 90
       50
176
     1
290
     0
176
     1
 90
       50
176
     1
 62
   256
176
     0
 40
1.0
176
     0
 90
        2
176
     1
  1
strokes_ogs.tif
176
     1
290
     0
176
     1
 40
1.0
176
     1
 40
1.0
176
     1
  0
VISUALSTYLE
  5
35
102
{ACAD_REACTORS
330
29
102
}
330
29
100
AcDbVisualStyle
  2
Brighten
 70
    12
177
     3
291
     1
 70
    58
 90
        2
176
     1
 90
        2
176
     1
 90
        0
176
     1
 90
        0
176
     1
 40
0.6
176
     1
 40
30.0
176
     1
 62
     7
420
 16777215
176
     1
 90
        1
176
     1
 90
        4
176
     1
 62
     7
176
     1
 62
   257
176
     1
 90
        1
176
     1
 90
        1
176
     1
 40
1.0
176
     1
 90
        8
176
     1
 62
     7
176
     1
 40
1.0
176
     1
 90
        1
176
     1
 90
        6
176
     1
 90
        2
176
     1
 62
     7
176
     1
 90
        5
176
     1
 90
        0
176
     1
 90
        0
176
     1
290
     0
176
     1
 90
        1
176
     1
 40
50.0
176
     1
 90
        0
176
     1
290
     0
176
     1
290
     1
176
     1
290
     1
176
     1
290
     0
176
     1
290
     0
176
     1
290
     0
176
     1
290
     0
176
     1
290
     0
176
     1
290
     0
176
     1
 90
       50
176
     1
 40
0.0
176
     1
 40
1.0
176
     1
 90
        0
176
     1
 62
    18
420
        0
176
     1
 90
       50
176
     1
 90
        3
176
     1
 62
     5
420
      255
176
     1
290
     0
176
     1
 90
       50
176
     1
 90
       50
176
     1
 90
       50
176
     1
290
     0
176
     1
 90
       50
176
     1
 62
   256
176
     0
 40
1.0
176
     0
 90
        2
176
     1
  1
strokes_ogs.tif
176
     1
290
     0
176
     1
 40
1.0
176
     1
 40
1.0
176
     1
  0
VISUALSTYLE
  5
39
102
{ACAD_REACTORS
330
29
102
}
330
29
100
AcDbVisualStyle
  2
ColorChange
 70
    16
177
     3
291
     1
 70
    58
 90
        2
176
     1
 90
        2
176
     1
 90
        3
176
     1
 90
        0
176
     1
 40
0.6
176
     1
 40
30.0
176
     1
 62
     8
420
  8421504
176
     1
 90
        1
176
     1
 90
        4
176
     1
 62
     7
176
     1
 62
   257
176
     1
 90
        1
176
     1
 90
        1
176
     1
 40
1.0
176
     1
 90
        8
176
     1
 62
     8
420
  8421504
176
     1
 40
1.0
176
     1
 90
        1
176
     1
 90
        6
176
     1
 90
        2
176
     1
 62
     7
176
     1
 90
        5
176
     1
 90
        0
176
     1
 90
        0
176
     1
290
     0
176
     1
 90
        1
176
     1
 40
0.0
176
     1
 90
        0
176
     1
290
     0
176
     1
290
     1
176
     1
290
     1
176
     1
290
     0
176
     1
290
     0
176
     1
290
     0
176
     1
290
     0
176
     1
290
     0
176
     1
290
     0
176
     1
 90
       50
176
     1
 40
0.0
176
     1
 40
1.0
176
     1
 90
        0
176
     1
 62
    18
420
        0
176
     1
 90
       50
176
     1
 90
        3
176
     1
 62
     5
420
      255
176
     1
290
     0
176
     1
 90
       50
176
     1
 90
       50
176
     1
 90
       50
176
     1
290
     0
176
     1
 90
       50
176
     1
 62
   256
176
     0
 40
1.0
176
     0
 90
        2
176
     1
  1
strokes_ogs.tif
176
     1
290
     0
176
     1
 40
1.0
176
     1
 40
1.0
176
     1
  0
VISUALSTYLE
  5
32
102
{ACAD_REACTORS
330
29
102
}
330
29
100
AcDbVisualStyle
  2
Conceptual
 70
     9
177
     3
291
     0
 70
    58
 90
        3
176
     1
 90
        2
176
     1
 90
        0
176
     1
 90
        0
176
     1
 40
0.6
176
     1
 40
30.0
176
     1
 62
     7
420
 16777215
176
     1
 90
        2
176
     1
 90
        2
176
     1
 62
     7
176
     1
 62
   257
176
     1
 90
        1
176
     1
 90
        1
176
     1
 40
179.0
176
     1
 90
        8
176
     1
 62
     7
176
     1
 40
1.0
176
     1
 90
        1
176
     1
 90
        6
176
     1
 90
        2
176
     1
 62
     7
176
     1
 90
        3
176
     1
 90
        0
176
     1
 90
        0
176
     1
290
     0
176
     1
 90
        1
176
     1
 40
0.0
176
     1
 90
        0
176
     1
290
     0
176
     1
290
     1
176
     1
290
     1
176
     1
290
     0
176
     1
290
     0
176
     1
290
     0
176
     1
290
     0
176
     1
290
     0
176
     1
290
     0
176
     1
 90
       50
176
     1
 40
0.0
176
     1
 40
1.0
176
     1
 90
        0
176
     1
 62
    18
420
        0
176
     1
 90
       50
176
     1
 90
        3
176
     1
 62
     5
420
      255
176
     1
290
     0
176
     1
 90
       50
176
     1
 90
       50
176
     1
 90
       50
176
     1
290
     0
176
     1
 90
       50
176
     1
 62
   256
176
     0
 40
1.0
176
     0
 90
        2
176
     1
  1
strokes_ogs.tif
176
     1
290
     0
176
     1
 40
1.0
176
     1
 40
1.0
176
     1
  0
VISUALSTYLE
  5
34
102
{ACAD_REACTORS
330
29
102
}
330
29
100
AcDbVisualStyle
  2
Dim
 70
    11
177
     3
291
     1
 70
    58
 90
        2
176
     1
 90
        2
176
     1
 90
        0
176
     1
 90
        0
176
     1
 40
0.6
176
     1
 40
30.0
176
     1
 62
     7
420
 16777215
176
     1
 90
        1
176
     1
 90
        4
176
     1
 62
     7
176
     1
 62
   257
176
     1
 90
        1
176
     1
 90
        1
176
     1
 40
1.0
176
     1
 90
        8
176
     1
 62
     7
176
     1
 40
1.0
176
     1
 90
        1
176
     1
 90
        6
176
     1
 90
        2
176
     1
 62
     7
176
     1
 90
        5
176
     1
 90
        0
176
     1
 90
        0
176
     1
290
     0
176
     1
 90
        1
176
     1
 40
-50.0
176
     1
 90
        0
176
     1
290
     0
176
     1
290
     1
176
     1
290
     1
176
     1
290
     0
176
     1
290
     0
176
     1
290
     0
176
     1
290
     0
176
     1
290
     0
176
     1
290
     0
176
     1
 90
       50
176
     1
 40
0.0
176
     1
 40
1.0
176
     1
 90
        0
176
     1
 62
    18
420
        0
176
     1
 90
       50
176
     1
 90
        3
176
     1
 62
     5
420
      255
176
     1
290
     0
176
     1
 90
       50
176
     1
 90
       50
176
     1
 90
       50
176
     1
290
     0
176
     1
 90
       50
176
     1
 62
   256
176
     0
 40
1.0
176
     0
 90
        2
176
     1
  1
strokes_ogs.tif
176
     1
290
     0
176
     1
 40
1.0
176
     1
 40
1.0
176
     1
  0
VISUALSTYLE
  5
41
102
{ACAD_REACTORS
330
29
102
}
330
29
100
AcDbVisualStyle
  2
EdgeColorOff
 70
    22
177
     3
291
     1
 70
    58
 90
        2
176
     0
 90
        2
176
     0
 90
        0
176
     0
 90
        0
176
     0
 40
0.6
176
     0
 40
30.0
176
     0
 62
     7
420
 16777215
176
     0
 90
        1
176
     0
 90
        4
176
     0
 62
     7
176
     0
 62
   257
176
     0
 90
        1
176
     0
 90
        1
176
     0
 40
1.0
176
     0
 90
        8
176
     2
 62
     7
176
     0
 40
1.0
176
     0
 90
        1
176
     0
 90
        6
176
     0
 90
        2
176
     0
 62
     7
176
     0
 90
        5
176
     0
 90
        0
176
     0
 90
        0
176
     0
290
     0
176
     0
 90
        1
176
     0
 40
0.0
176
     0
 90
        0
176
     0
290
     0
176
     0
290
     1
176
     0
290
     1
176
     0
290
     0
176
     0
290
     0
176
     0
290
     0
176
     0
290
     0
176
     0
290
     0
176
     0
290
     0
176
     0
 90
       50
176
     0
 40
0.0
176
     0
 40
1.0
176
     0
 90
        0
176
     0
 62
    18
420
        0
176
     0
 90
       50
176
     0
 90
        3
176
     0
 62
     5
420
      255
176
     0
290
     0
176
     0
 90
       50
176
     0
 90
       50
176
     0
 90
       50
176
     0
290
     0
176
     0
 90
       50
176
     0
 62
   256
176
     0
 40
1.0
176
     0
 90
        2
176
     0
  1
strokes_ogs.tif
176
     0
290
     0
176
     0
 40
1.0
176
     0
 40
1.0
176
     0
  0
VISUALSTYLE
  5
38
102
{ACAD_REACTORS
330
29
102
}
330
29
100
AcDbVisualStyle
  2
Facepattern
 70
    15
177
     3
291
     1
 70
    58
 90
        2
176
     1
 90
        2
176
     1
 90
        0
176
     1
 90
        0
176
     1
 40
0.6
176
     1
 40
30.0
176
     1
 62
     7
420
 16777215
176
     1
 90
        1
176
     1
 90
        4
176
     1
 62
     7
176
     1
 62
   257
176
     1
 90
        1
176
     1
 90
        1
176
     1
 40
1.0
176
     1
 90
        8
176
     1
 62
     7
176
     1
 40
1.0
176
     1
 90
        1
176
     1
 90
        6
176
     1
 90
        2
176
     1
 62
     7
176
     1
 90
        5
176
     1
 90
        0
176
     1
 90
        0
176
     1
290
     0
176
     1
 90
        1
176
     1
 40
0.0
176
     1
 90
        0
176
     1
290
     0
176
     1
290
     1
176
     1
290
     1
176
     1
290
     0
176
     1
290
     0
176
     1
290
     0
176
     1
290
     0
176
     1
290
     0
176
     1
290
     0
176
     1
 90
       50
176
     1
 40
0.0
176
     1
 40
1.0
176
     1
 90
        0
176
     1
 62
    18
420
        0
176
     1
 90
       50
176
     1
 90
        3
176
     1
 62
     5
420
      255
176
     1
290
     0
176
     1
 90
       50
176
     1
 90
       50
176
     1
 90
       50
176
     1
290
     0
176
     1
 90
       50
176
     1
 62
   256
176
     0
 40
1.0
176
     0
 90
        2
176
     1
  1
strokes_ogs.tif
176
     1
290
     0
176
     1
 40
1.0
176
     1
 40
1.0
176
     1
  0
VISUALSTYLE
  5
2A
102
{ACAD_REACTORS
330
29
102
}
330
29
100
AcDbVisualStyle
  2
Flat
 70
     0
177
     3
291
     1
 70
    58
 90
        2
176
     1
 90
        1
176
     1
 90
        1
176
     1
 90
        2
176
     1
 40
0.6
176
     1
 40
30.0
176
     1
 62
     7
420
 16777215
176
     1
 90
        0
176
     1
 90
        0
176
     1
 62
     7
176
     1
 62
   257
176
     1
 90
        1
176
     1
 90
        1
176
     1
 40
1.0
176
     1
 90
        8
176
     1
 62
     7
176
     1
 40
1.0
176
     1
 90
        1
176
     1
 90
        6
176
     1
 90
        2
176
     1
 62
     7
176
     1
 90
        5
176
     1
 90
        0
176
     1
 90
        0
176
     1
290
     0
176
     1
 90
       13
176
     1
 40
0.0
176
     1
 90
        0
176
     1
290
     0
176
     1
290
     1
176
     1
290
     1
176
     1
290
     0
176
     1
290
     0
176
     1
290
     0
176
     1
290
     0
176
     1
290
     0
176
     1
290
     0
176
     1
 90
       50
176
     1
 40
0.0
176
     1
 40
1.0
176
     1
 90
        0
176
     1
 62
    18
420
        0
176
     1
 90
       50
176
     1
 90
        3
176
     1
 62
     5
420
      255
176
     1
290
     0
176
     1
 90
       50
176
     1
 90
       50
176
     1
 90
       50
176
     1
290
     0
176
     1
 90
       50
176
     1
 62
   256
176
     0
 40
1.0
176
     0
 90
        2
176
     1
  1
strokes_ogs.tif
176
     1
290
     0
176
     1
 40
1.0
176
     1
 40
1.0
176
     1
  0
VISUALSTYLE
  5
2B
102
{ACAD_REACTORS
330
29
102
}
330
29
100
AcDbVisualStyle
  2
FlatWithEdges
 70
     1
177
     3
291
     1
 70
    58
 90
        2
176
     1
 90
        1
176
     1
 90
        1
176
     1
 90
        2
176
     1
 40
0.6
176
     1
 40
30.0
176
     1
 62
     7
420
 16777215
176
     1
 90
        1
176
     1
 90
        0
176
     1
 62
     7
176
     1
 62
   257
176
     1
 90
        1
176
     1
 90
        1
176
     1
 40
1.0
176
     1
 90
        0
176
     1
 62
   257
176
     1
 40
1.0
176
     1
 90
        1
176
     1
 90
        6
176
     1
 90
        2
176
     1
 62
     7
176
     1
 90
        5
176
     1
 90
        0
176
     1
 90
        0
176
     1
290
     0
176
     1
 90
       13
176
     1
 40
0.0
176
     1
 90
        0
176
     1
290
     0
176
     1
290
     1
176
     1
290
     1
176
     1
290
     0
176
     1
290
     0
176
     1
290
     0
176
     1
290
     0
176
     1
290
     0
176
     1
290
     0
176
     1
 90
       50
176
     1
 40
0.0
176
     1
 40
1.0
176
     1
 90
        0
176
     1
 62
    18
420
        0
176
     1
 90
       50
176
     1
 90
        3
176
     1
 62
     5
420
      255
176
     1
290
     0
176
     1
 90
       50
176
     1
 90
       50
176
     1
 90
       50
176
     1
290
     0
176
     1
 90
       50
176
     1
 62
   256
176
     0
 40
1.0
176
     0
 90
        2
176
     1
  1
strokes_ogs.tif
176
     1
290
     0
176
     1
 40
1.0
176
     1
 40
1.0
176
     1
  0
VISUALSTYLE
  5
2C
102
{ACAD_REACTORS
330
29
102
}
330
29
100
AcDbVisualStyle
  2
Gouraud
 70
     2
177
     3
291
     1
 70
    58
 90
        2
176
     1
 90
        2
176
     1
 90
        1
176
     1
 90
        2
176
     1
 40
0.6
176
     1
 40
30.0
176
     1
 62
     7
420
 16777215
176
     1
 90
        0
176
     1
 90
        0
176
     1
 62
     7
176
     1
 62
   257
176
     1
 90
        1
176
     1
 90
        1
176
     1
 40
1.0
176
     1
 90
        0
176
     1
 62
     7
176
     1
 40
1.0
176
     1
 90
        1
176
     1
 90
        6
176
     1
 90
        2
176
     1
 62
     7
176
     1
 90
        5
176
     1
 90
        0
176
     1
 90
        0
176
     1
290
     0
176
     1
 90
       13
176
     1
 40
0.0
176
     1
 90
        0
176
     1
290
     0
176
     1
290
     1
176
     1
290
     1
176
     1
290
     0
176
     1
290
     0
176
     1
290
     0
176
     1
290
     0
176
     1
290
     0
176
     1
290
     0
176
     1
 90
       50
176
     1
 40
0.0
176
     1
 40
1.0
176
     1
 90
        0
176
     1
 62
    18
420
        0
176
     1
 90
       50
176
     1
 90
        3
176
     1
 62
     5
420
      255
176
     1
290
     0
176
     1
 90
       50
176
     1
 90
       50
176
     1
 90
       50
176
     1
290
     0
176
     1
 90
       50
176
     1
 62
   256
176
     0
 40
1.0
176
     0
 90
        2
176
     1
  1
strokes_ogs.tif
176
     1
290
     0
176
     1
 40
1.0
176
     1
 40
1.0
176
     1
  0
VISUALSTYLE
  5
2D
102
{ACAD_REACTORS
330
29
102
}
330
29
100
AcDbVisualStyle
  2
GouraudWithEdges
 70
     3
177
     3
291
     1
 70
    58
 90
        2
176
     1
 90
        2
176
     1
 90
        1
176
     1
 90
        2
176
     1
 40
0.6
176
     1
 40
30.0
176
     1
 62
     7
420
 16777215
176
     1
 90
        1
176
     1
 90
        0
176
     1
 62
     7
176
     1
 62
   257
176
     1
 90
        1
176
     1
 90
        1
176
     1
 40
1.0
176
     1
 90
        0
176
     1
 62
   257
176
     1
 40
1.0
176
     1
 90
        1
176
     1
 90
        6
176
     1
 90
        2
176
     1
 62
     7
176
     1
 90
        5
176
     1
 90
        0
176
     1
 90
        0
176
     1
290
     0
176
     1
 90
       13
176
     1
 40
0.0
176
     1
 90
        0
176
     1
290
     0
176
     1
290
     1
176
     1
290
     1
176
     1
290
     0
176
     1
290
     0
176
     1
290
     0
176
     1
290
     0
176
     1
290
     0
176
     1
290
     0
176
     1
 90
       50
176
     1
 40
0.0
176
     1
 40
1.0
176
     1
 90
        0
176
     1
 62
    18
420
        0
176
     1
 90
       50
176
     1
 90
        3
176
     1
 62
     5
420
      255
176
     1
290
     0
176
     1
 90
       50
176
     1
 90
       50
176
     1
 90
       50
176
     1
290
     0
176
     1
 90
       50
176
     1
 62
   256
176
     0
 40
1.0
176
     0
 90
        2
176
     1
  1
strokes_ogs.tif
176
     1
290
     0
176
     1
 40
1.0
176
     1
 40
1.0
176
     1
  0
VISUALSTYLE
  5
31
102
{ACAD_REACTORS
330
29
102
}
330
29
100
AcDbVisualStyle
  2
Hidden
 70
     6
177
     3
291
     0
 70
    58
 90
        1
176
     1
 90
        2
176
     1
 90
        2
176
     1
 90
        0
176
     1
 40
0.6
176
     1
 40
30.0
176
     1
 62
     7
420
 16777215
176
     1
 90
        2
176
     1
 90
        2
176
     1
 62
     7
176
     1
 62
   257
176
     1
 90
        2
176
     1
 90
        1
176
     1
 40
40.0
176
     1
 90
        0
176
     1
 62
   257
176
     1
 40
1.0
176
     1
 90
        1
176
     1
 90
        6
176
     1
 90
        2
176
     1
 62
     7
176
     1
 90
        3
176
     1
 90
        0
176
     1
 90
        0
176
     1
290
     0
176
     1
 90
        1
176
     1
 40
0.0
176
     1
 90
        0
176
     1
290
     0
176
     1
290
     1
176
     1
290
     1
176
     1
290
     0
176
     1
290
     0
176
     1
290
     0
176
     1
290
     0
176
     1
290
     0
176
     1
290
     0
176
     1
 90
       50
176
     1
 40
0.0
176
     1
 40
1.0
176
     1
 90
        0
176
     1
 62
    18
420
        0
176
     1
 90
       50
176
     1
 90
        3
176
     1
 62
     5
420
      255
176
     1
290
     0
176
     1
 90
       50
176
     1
 90
       50
176
     1
 90
       50
176
     1
290
     0
176
     1
 90
       50
176
     1
 62
   256
176
     0
 40
1.0
176
     0
 90
        2
176
     1
  1
strokes_ogs.tif
176
     1
290
     0
176
     1
 40
1.0
176
     1
 40
1.0
176
     1
  0
VISUALSTYLE
  5
3F
102
{ACAD_REACTORS
330
29
102
}
330
29
100
AcDbVisualStyle
  2
JitterOff
 70
    20
177
     3
291
     1
 70
    58
 90
        2
176
     0
 90
        2
176
     0
 90
        0
176
     0
 90
        0
176
     0
 40
0.6
176
     0
 40
30.0
176
     0
 62
     7
420
 16777215
176
     0
 90
        1
176
     0
 90
        4
176
     0
 62
     7
176
     0
 62
   257
176
     0
 90
        1
176
     0
 90
        1
176
     0
 40
1.0
176
     0
 90
       10
176
     2
 62
     7
176
     0
 40
1.0
176
     0
 90
        1
176
     0
 90
        6
176
     0
 90
        2
176
     0
 62
     7
176
     0
 90
        5
176
     0
 90
        0
176
     0
 90
        0
176
     0
290
     0
176
     0
 90
        1
176
     0
 40
0.0
176
     0
 90
        0
176
     0
290
     0
176
     0
290
     1
176
     0
290
     1
176
     0
290
     0
176
     0
290
     0
176
     0
290
     0
176
     0
290
     0
176
     0
290
     0
176
     0
290
     0
176
     0
 90
       50
176
     0
 40
0.0
176
     0
 40
1.0
176
     0
 90
        0
176
     0
 62
    18
420
        0
176
     0
 90
       50
176
     0
 90
        3
176
     0
 62
     5
420
      255
176
     0
290
     0
176
     0
 90
       50
176
     0
 90
       50
176
     0
 90
       50
176
     0
290
     0
176
     0
 90
       50
176
     0
 62
   256
176
     0
 40
1.0
176
     0
 90
        2
176
     0
  1
strokes_ogs.tif
176
     0
290
     0
176
     0
 40
1.0
176
     0
 40
1.0
176
     0
  0
VISUALSTYLE
  5
37
102
{ACAD_REACTORS
330
29
102
}
330
29
100
AcDbVisualStyle
  2
Linepattern
 70
    14
177
     3
291
     1
 70
    58
 90
        2
176
     1
 90
        2
176
     1
 90
        0
176
     1
 90
        0
176
     1
 40
0.6
176
     1
 40
30.0
176
     1
 62
     7
420
 16777215
176
     1
 90
        1
176
     1
 90
        4
176
     1
 62
     7
176
     1
 62
   257
176
     1
 90
        7
176
     1
 90
        7
176
     1
 40
1.0
176
     1
 90
        8
176
     1
 62
     7
176
     1
 40
1.0
176
     1
 90
        1
176
     1
 90
        6
176
     1
 90
        2
176
     1
 62
     7
176
     1
 90
        5
176
     1
 90
        0
176
     1
 90
        0
176
     1
290
     0
176
     1
 90
        1
176
     1
 40
0.0
176
     1
 90
        0
176
     1
290
     0
176
     1
290
     1
176
     1
290
     1
176
     1
290
     0
176
     1
290
     0
176
     1
290
     0
176
     1
290
     0
176
     1
290
     0
176
     1
290
     0
176
     1
 90
       50
176
     1
 40
0.0
176
     1
 40
1.0
176
     1
 90
        0
176
     1
 62
    18
420
        0
176
     1
 90
       50
176
     1
 90
        3
176
     1
 62
     5
420
      255
176
     1
290
     0
176
     1
 90
       50
176
     1
 90
       50
176
     1
 90
       50
176
     1
290
     0
176
     1
 90
       50
176
     1
 62
   256
176
     0
 40
1.0
176
     0
 90
        2
176
     1
  1
strokes_ogs.tif
176
     1
290
     0
176
     1
 40
1.0
176
     1
 40
1.0
176
     1
  0
VISUALSTYLE
  5
40
102
{ACAD_REACTORS
330
29
102
}
330
29
100
AcDbVisualStyle
  2
OverhangOff
 70
    21
177
     3
291
     1
 70
    58
 90
        2
176
     0
 90
        2
176
     0
 90
        0
176
     0
 90
        0
176
     0
 40
0.6
176
     0
 40
30.0
176
     0
 62
     7
420
 16777215
176
     0
 90
        1
176
     0
 90
        4
176
     0
 62
     7
176
     0
 62
   257
176
     0
 90
        1
176
     0
 90
        1
176
     0
 40
1.0
176
     0
 90
        9
176
     2
 62
     7
176
     0
 40
1.0
176
     0
 90
        1
176
     0
 90
        6
176
     0
 90
        2
176
     0
 62
     7
176
     0
 90
        5
176
     0
 90
        0
176
     0
 90
        0
176
     0
290
     0
176
     0
 90
        1
176
     0
 40
0.0
176
     0
 90
        0
176
     0
290
     0
176
     0
290
     1
176
     0
290
     1
176
     0
290
     0
176
     0
290
     0
176
     0
290
     0
176
     0
290
     0
176
     0
290
     0
176
     0
290
     0
176
     0
 90
       50
176
     0
 40
0.0
176
     0
 40
1.0
176
     0
 90
        0
176
     0
 62
    18
420
        0
176
     0
 90
       50
176
     0
 90
        3
176
     0
 62
     5
420
      255
176
     0
290
     0
176
     0
 90
       50
176
     0
 90
       50
176
     0
 90
       50
176
     0
290
     0
176
     0
 90
       50
176
     0
 62
   256
176
     0
 40
1.0
176
     0
 90
        2
176
     0
  1
strokes_ogs.tif
176
     0
290
     0
176
     0
 40
1.0
176
     0
 40
1.0
176
     0
  0
VISUALSTYLE
  5
33
102
{ACAD_REACTORS
330
29
102
}
330
29
100
AcDbVisualStyle
  2
Realistic
 70
     8
177
     3
291
     0
 70
    58
 90
        2
176
     1
 90
        3
176
     1
 90
        0
176
     1
 90
        2
176
     1
 40
0.6
176
     1
 40
30.0
176
     1
 62
     7
420
 16777215
176
     1
 90
        0
176
     1
 90
        0
176
     1
 62
     7
176
     1
 62
   257
176
     1
 90
        1
176
     1
 90
        1
176
     1
 40
1.0
176
     1
 90
        8
176
     1
 62
   257
176
     1
 40
1.0
176
     1
 90
        1
176
     1
 90
        6
176
     1
 90
        2
176
     1
 62
     7
176
     1
 90
        3
176
     1
 90
        0
176
     1
 90
        0
176
     1
290
     0
176
     1
 90
       13
176
     1
 40
0.0
176
     1
 90
        0
176
     1
290
     0
176
     1
290
     1
176
     1
290
     1
176
     1
290
     0
176
     1
290
     0
176
     1
290
     0
176
     1
290
     0
176
     1
290
     0
176
     1
290
     0
176
     1
 90
       50
176
     1
 40
0.0
176
     1
 40
1.0
176
     1
 90
        0
176
     1
 62
    18
420
        0
176
     1
 90
       50
176
     1
 90
        3
176
     1
 62
     5
420
      255
176
     1
290
     0
176
     1
 90
       50
176
     1
 90
       50
176
     1
 90
       50
176
     1
290
     0
176
     1
 90
       50
176
     1
 62
   256
176
     0
 40
1.0
176
     0
 90
        2
176
     1
  1
strokes_ogs.tif
176
     1
290
     0
176
     1
 40
1.0
176
     1
 40
1.0
176
     1
  0
VISUALSTYLE
  5
3E
102
{ACAD_REACTORS
330
29
102
}
330
29
100
AcDbVisualStyle
  2
Shaded
 70
    27
177
     3
291
     0
 70
    58
 90
        2
176
     1
 90
        2
176
     1
 90
        1
176
     1
 90
        2
176
     1
 40
0.6
176
     1
 40
30.0
176
     1
 62
     7
420
 16777215
176
     1
 90
        0
176
     1
 90
        4
176
     1
 62
     7
176
     1
 62
   257
176
     1
 90
        1
176
     1
 90
        1
176
     1
 40
1.0
176
     1
 90
        8
176
     1
 62
   257
176
     1
 40
1.0
176
     1
 90
        1
176
     1
 90
        6
176
     1
 90
        2
176
     1
 62
     8
420
  7895160
176
     1
 90
        3
176
     1
 90
        0
176
     1
 90
        0
176
     1
290
     0
176
     1
 90
        5
176
     1
 40
0.0
176
     1
 90
        0
176
     1
290
     0
176
     1
290
     1
176
     1
290
     1
176
     1
290
     0
176
     1
290
     0
176
     1
290
     0
176
     1
290
     0
176
     1
290
     0
176
     1
290
     0
176
     1
 90
       50
176
     1
 40
0.0
176
     1
 40
1.0
176
     1
 90
        0
176
     1
 62
    18
420
        0
176
     1
 90
       50
176
     1
 90
        3
176
     1
 62
     5
420
      255
176
     1
290
     0
176
     1
 90
       50
176
     1
 90
       50
176
     1
 90
       50
176
     1
290
     0
176
     1
 90
       50
176
     1
 62
   256
176
     0
 40
1.0
176
     0
 90
        2
176
     1
  1
strokes_ogs.tif
176
     1
290
     0
176
     1
 40
1.0
176
     1
 40
1.0
176
     1
  0
VISUALSTYLE
  5
3D
102
{ACAD_REACTORS
330
29
102
}
330
29
100
AcDbVisualStyle
  2
Shaded with edges
 70
    26
177
     3
291
     0
 70
    58
 90
        2
176
     1
 90
        2
176
     1
 90
        1
176
     1
 90
        2
176
     1
 40
0.6
176
     1
 40
30.0
176
     1
 62
     7
420
 16777215
176
     1
 90
        1
176
     1
 90
        2
176
     1
 62
     7
176
     1
 62
   257
176
     1
 90
        2
176
     1
 90
        1
176
     1
 40
1.0
176
     1
 90
        8
176
     1
 62
   257
176
     1
 40
1.0
176
     1
 90
        1
176
     1
 90
        6
176
     1
 90
        2
176
     1
 62
     7
176
     1
 90
        3
176
     1
 90
        0
176
     1
 90
        0
176
     1
290
     0
176
     1
 90
        5
176
     1
 40
0.0
176
     1
 90
        0
176
     1
290
     0
176
     1
290
     1
176
     1
290
     1
176
     1
290
     0
176
     1
290
     0
176
     1
290
     0
176
     1
290
     0
176
     1
290
     0
176
     1
290
     0
176
     1
 90
       50
176
     1
 40
0.0
176
     1
 40
1.0
176
     1
 90
        0
176
     1
 62
    18
420
        0
176
     1
 90
       50
176
     1
 90
        3
176
     1
 62
     5
420
      255
176
     1
290
     0
176
     1
 90
       50
176
     1
 90
       50
176
     1
 90
       50
176
     1
290
     0
176
     1
 90
       50
176
     1
 62
   256
176
     0
 40
1.0
176
     0
 90
        2
176
     1
  1
strokes_ogs.tif
176
     1
290
     0
176
     1
 40
1.0
176
     1
 40
1.0
176
     1
  0
VISUALSTYLE
  5
3A
102
{ACAD_REACTORS
330
29
102
}
330
29
100
AcDbVisualStyle
  2
Shades of Gray
 70
    23
177
     3
291
     0
 70
    58
 90
        2
176
     1
 90
        2
176
     1
 90
        3
176
     1
 90
        0
176
     1
 40
0.6
176
     1
 40
30.0
176
     1
 62
     7
420
 16777215
176
     1
 90
        2
176
     1
 90
        2
176
     1
 62
     7
176
     1
 62
     7
176
     1
 90
        1
176
     1
 90
        1
176
     1
 40
40.0
176
     1
 90
        8
176
     1
 62
     7
176
     1
 40
1.0
176
     1
 90
        1
176
     1
 90
        6
176
     1
 90
        2
176
     1
 62
     7
176
     1
 90
        3
176
     1
 90
        0
176
     1
 90
        0
176
     1
290
     0
176
     1
 90
        1
176
     1
 40
0.0
176
     1
 90
        0
176
     1
290
     0
176
     1
290
     1
176
     1
290
     1
176
     1
290
     0
176
     1
290
     0
176
     1
290
     0
176
     1
290
     0
176
     1
290
     0
176
     1
290
     0
176
     1
 90
       50
176
     1
 40
0.0
176
     1
 40
1.0
176
     1
 90
        0
176
     1
 62
    18
420
        0
176
     1
 90
       50
176
     1
 90
        3
176
     1
 62
     5
420
      255
176
     1
290
     0
176
     1
 90
       50
176
     1
 90
       50
176
     1
 90
       50
176
     1
290
     0
176
     1
 90
       50
176
     1
 62
   256
176
     0
 40
1.0
176
     0
 90
        2
176
     1
  1
strokes_ogs.tif
176
     1
290
     0
176
     1
 40
1.0
176
     1
 40
1.0
176
     1
  0
VISUALSTYLE
  5
3B
102
{ACAD_REACTORS
330
29
102
}
330
29
100
AcDbVisualStyle
  2
Sketchy
 70
    24
177
     3
291
     0
 70
    58
 90
        1
176
     1
 90
        2
176
     1
 90
        2
176
     1
 90
        0
176
     1
 40
0.6
176
     1
 40
30.0
176
     1
 62
     7
420
 16777215
176
     1
 90
        2
176
     1
 90
        2
176
     1
 62
     7
176
     1
 62
     7
176
     1
 90
        1
176
     1
 90
        1
176
     1
 40
40.0
176
     1
 90
       11
176
     1
 62
     7
176
     1
 40
1.0
176
     1
 90
        1
176
     1
 90
        6
176
     1
 90
        2
176
     1
 62
     7
176
     1
 90
        6
176
     1
 90
        0
176
     1
 90
        0
176
     1
290
     0
176
     1
 90
        1
176
     1
 40
0.0
176
     1
 90
        0
176
     1
290
     0
176
     1
290
     1
176
     1
290
     1
176
     1
290
     0
176
     1
290
     0
176
     1
290
     0
176
     1
290
     0
176
     1
290
     0
176
     1
290
     0
176
     1
 90
       50
176
     1
 40
0.0
176
     1
 40
1.0
176
     1
 90
        0
176
     1
 62
    18
420
        0
176
     1
 90
       50
176
     1
 90
        3
176
     1
 62
     5
420
      255
176
     1
290
     0
176
     1
 90
       50
176
     1
 90
       50
176
     1
 90
       50
176
     1
290
     0
176
     1
 90
       50
176
     1
 62
   256
176
     0
 40
1.0
176
     0
 90
        2
176
     1
  1
strokes_ogs.tif
176
     1
290
     0
176
     1
 40
1.0
176
     1
 40
1.0
176
     1
  0
VISUALSTYLE
  5
36
102
{ACAD_REACTORS
330
29
102
}
330
29
100
AcDbVisualStyle
  2
Thicken
 70
    13
177
     3
291
     1
 70
    58
 90
        2
176
     1
 90
        2
176
     1
 90
        0
176
     1
 90
        0
176
     1
 40
0.6
176
     1
 40
30.0
176
     1
 62
     7
420
 16777215
176
     1
 90
        1
176
     1
 90
        4
176
     1
 62
     7
176
     1
 62
   257
176
     1
 90
        1
176
     1
 90
        1
176
     1
 40
1.0
176
     1
 90
       12
176
     1
 62
     7
176
     1
 40
1.0
176
     1
 90
        1
176
     1
 90
        6
176
     1
 90
        2
176
     1
 62
     7
176
     1
 90
        5
176
     1
 90
        0
176
     1
 90
        0
176
     1
290
     0
176
     1
 90
        1
176
     1
 40
0.0
176
     1
 90
        0
176
     1
290
     0
176
     1
290
     1
176
     1
290
     1
176
     1
290
     0
176
     1
290
     0
176
     1
290
     0
176
     1
290
     0
176
     1
290
     0
176
     1
290
     0
176
     1
 90
       50
176
     1
 40
0.0
176
     1
 40
1.0
176
     1
 90
        0
176
     1
 62
    18
420
        0
176
     1
 90
       50
176
     1
 90
        3
176
     1
 62
     5
420
      255
176
     1
290
     0
176
     1
 90
       50
176
     1
 90
       50
176
     1
 90
       50
176
     1
290
     0
176
     1
 90
       50
176
     1
 62
   256
176
     0
 40
1.0
176
     0
 90
        2
176
     1
  1
strokes_ogs.tif
176
     1
290
     0
176
     1
 40
1.0
176
     1
 40
1.0
176
     1
  0
VISUALSTYLE
  5
30
102
{ACAD_REACTORS
330
29
102
}
330
29
100
AcDbVisualStyle
  2
Wireframe
 70
     5
177
     3
291
     0
 70
    58
 90
        0
176
     1
 90
        2
176
     1
 90
        0
176
     1
 90
        0
176
     1
 40
0.6
176
     1
 40
30.0
176
     1
 62
     7
420
 16777215
176
     1
 90
        1
176
     1
 90
        4
176
     1
 62
     7
176
     1
 62
   257
176
     1
 90
        1
176
     1
 90
        1
176
     1
 40
1.0
176
     1
 90
        0
176
     1
 62
   257
176
     1
 40
1.0
176
     1
 90
        1
176
     1
 90
        6
176
     1
 90
        2
176
     1
 62
     7
176
     1
 90
        3
176
     1
 90
        0
176
     1
 90
        0
176
     1
290
     0
176
     1
 90
        1
176
     1
 40
0.0
176
     1
 90
        0
176
     1
290
     0
176
     1
290
     1
176
     1
290
     1
176
     1
290
     0
176
     1
290
     0
176
     1
290
     0
176
     1
290
     0
176
     1
290
     0
176
     1
290
     0
176
     1
 90
       50
176
     1
 40
0.0
176
     1
 40
1.0
176
     1
 90
        0
176
     1
 62
    18
420
        0
176
     1
 90
       50
176
     1
 90
        3
176
     1
 62
     5
420
      255
176
     1
290
     0
176
     1
 90
       50
176
     1
 90
       50
176
     1
 90
       50
176
     1
290
     0
176
     1
 90
       50
176
     1
 62
   256
176
     0
 40
1.0
176
     0
 90
        2
176
     1
  1
strokes_ogs.tif
176
     1
290
     0
176
     1
 40
1.0
176
     1
 40
1.0
176
     1
  0
VISUALSTYLE
  5
3C
102
{ACAD_REACTORS
330
29
102
}
330
29
100
AcDbVisualStyle
  2
X-Ray
 70
    25
177
     3
291
     0
 70
    58
 90
        2
176
     1
 90
        2
176
     1
 90
        1
176
     1
 90
        1
176
     1
 40
0.5
176
     1
 40
30.0
176
     1
 62
     7
420
 16777215
176
     1
 90
        1
176
     1
 90
        0
176
     1
 62
     7
176
     1
 62
   257
176
     1
 90
        1
176
     1
 90
        1
176
     1
 40
1.0
176
     1
 90
        8
176
     1
 62
     7
176
     1
 40
1.0
176
     1
 90
        1
176
     1
 90
        6
176
     1
 90
        2
176
     1
 62
     7
176
     1
 90
        3
176
     1
 90
        0
176
     1
 90
        0
176
     1
290
     0
176
     1
 90
       13
176
     1
 40
0.0
176
     1
 90
        0
176
     1
290
     0
176
     1
290
     1
176
     1
290
     1
176
     1
290
     0
176
     1
290
     0
176
     1
290
     0
176
     1
290
     0
176
     1
290
     0
176
     1
290
     0
176
     1
 90
       50
176
     1
 40
0.0
176
     1
 40
1.0
176
     1
 90
        0
176
     1
 62
    18
420
        0
176
     1
 90
       50
176
     1
 90
        3
176
     1
 62
     5
420
      255
176
     1
290
     0
176
     1
 90
       50
176
     1
 90
       50
176
     1
 90
       50
176
     1
290
     0
176
     1
 90
       50
176
     1
 62
   256
176
     0
 40
1.0
176
     0
 90
        2
176
     1
  1
strokes_ogs.tif
176
     1
290
     0
176
     1
 40
1.0
176
     1
 40
1.0
176
     1
  0
DICTIONARYVAR
  5
96
102
{ACAD_REACTORS
330
91
102
}
330
91
100
DictionaryVariables
280
     0
  1
1:1
  0
DICTIONARYVAR
  5
93
102
{ACAD_REACTORS
330
91
102
}
330
91
100
DictionaryVariables
280
     0
  1
STANDARD
  0
DICTIONARYVAR
  5
92
102
{ACAD_REACTORS
330
91
102
}
330
91
100
DictionaryVariables
280
     0
  1
STANDARD
  0
DICTIONARYVAR
  5
94
102
{ACAD_REACTORS
330
91
102
}
330
91
100
DictionaryVariables
280
     0
  1
Imperial24
  0
DICTIONARYVAR
  5
95
102
{ACAD_REACTORS
330
91
102
}
330
91
100
DictionaryVariables
280
     0
  1
Imperial24
  0
DICTIONARY
  5
1A
330
19
100
AcDbDictionary
280
     1
281
     1
  3
BUMPTILE
360
1C
  3
DIFFUSETILE
360
1B
  3
OPACITYTILE
360
1F
  3
REFLECTIONTILE
360
1E
  3
REFRACTIONTILE
360
20
  3
SPECULARTILE
360
1D
  0
DICTIONARY
  5
12
330
11
100
AcDbDictionary
280
     1
281
     1
  3
BUMPTILE
360
14
  3
DIFFUSETILE
360
13
  3
OPACITYTILE
360
17
  3
REFLECTIONTILE
360
16
  3
REFRACTIONTILE
360
18
  3
SPECULARTILE
360
15
  0
DICTIONARY
  5
22
330
21
100
AcDbDictionary
280
     1
281
     1
  3
BUMPTILE
360
24
  3
DIFFUSETILE
360
23
  3
OPACITYTILE
360
27
  3
REFLECTIONTILE
360
26
  3
REFRACTIONTILE
360
28
  3
SPECULARTILE
360
25
  0
DICTIONARY
  5
97
330
65
100
AcDbDictionary
280
     1
281
     1
  3
ACAD_ROUNDTRIP_2008_TABLESTYLE_CELLSTYLEMAP
360
98
  0
XRECORD
  5
1C
102
{ACAD_REACTORS
330
1A
102
}
330
1A
100
AcDbXrecord
280
     1
270
     1
271
     1
  0
XRECORD
  5
1B
102
{ACAD_REACTORS
330
1A
102
}
330
1A
100
AcDbXrecord
280
     1
270
     1
271
     1
  0
XRECORD
  5
1F
102
{ACAD_REACTORS
330
1A
102
}
330
1A
100
AcDbXrecord
280
     1
270
     1
271
     1
  0
XRECORD
  5
1E
102
{ACAD_REACTORS
330
1A
102
}
330
1A
100
AcDbXrecord
280
     1
270
     1
271
     1
  0
XRECORD
  5
20
102
{ACAD_REACTORS
330
1A
102
}
330
1A
100
AcDbXrecord
280
     1
270
     1
271
     1
  0
XRECORD
  5
1D
102
{ACAD_REACTORS
330
1A
102
}
330
1A
100
AcDbXrecord
280
     1
270
     1
271
     1
  0
XRECORD
  5
14
102
{ACAD_REACTORS
330
12
102
}
330
12
100
AcDbXrecord
280
     1
270
     1
271
     1
  0
XRECORD
  5
13
102
{ACAD_REACTORS
330
12
102
}
330
12
100
AcDbXrecord
280
     1
270
     1
271
     1
  0
XRECORD
  5
17
102
{ACAD_REACTORS
330
12
102
}
330
12
100
AcDbXrecord
280
     1
270
     1
271
     1
  0
XRECORD
  5
16
102
{ACAD_REACTORS
330
12
102
}
330
12
100
AcDbXrecord
280
     1
270
     1
271
     1
  0
XRECORD
  5
18
102
{ACAD_REACTORS
330
12
102
}
330
12
100
AcDbXrecord
280
     1
270
     1
271
     1
  0
XRECORD
  5
15
102
{ACAD_REACTORS
330
12
102
}
330
12
100
AcDbXrecord
280
     1
270
     1
271
     1
  0
XRECORD
  5
24
102
{ACAD_REACTORS
330
22
102
}
330
22
100
AcDbXrecord
280
     1
270
     1
271
     1
  0
XRECORD
  5
23
102
{ACAD_REACTORS
330
22
102
}
330
22
100
AcDbXrecord
280
     1
270
     1
271
     1
  0
XRECORD
  5
27
102
{ACAD_REACTORS
330
22
102
}
330
22
100
AcDbXrecord
280
     1
270
     1
271
     1
  0
XRECORD
  5
26
102
{ACAD_REACTORS
330
22
102
}
330
22
100
AcDbXrecord
280
     1
270
     1
271
     1
  0
XRECORD
  5
28
102
{ACAD_REACTORS
330
22
102
}
330
22
100
AcDbXrecord
280
     1
270
     1
271
     1
  0
XRECORD
  5
25
102
{ACAD_REACTORS
330
22
102
}
330
22
100
AcDbXrecord
280
     1
270
     1
271
     1
  0
CELLSTYLEMAP
  5
98
102
{ACAD_REACTORS
330
97
102
}
330
97
100
AcDbCellStyleMap
 90
        3
300
CELLSTYLE
  1
TABLEFORMAT_BEGIN
 90
        5
170
     1
 91
        0
 92
    32768
 62
   257
 93
        1
300
CONTENTFORMAT
  1
CONTENTFORMAT_BEGIN
 90
        0
 91
        0
 92
      512
 93
        0
300

 40
0.0
140
1.0
 94
        5
 62
     0
340
55
144
0.25
309
CONTENTFORMAT_END
171
     0
 94
        0
309
TABLEFORMAT_END
  1
CELLSTYLE_BEGIN
 90
        1
 91
        1
300
_TITLE
309
CELLSTYLE_END
300
CELLSTYLE
  1
TABLEFORMAT_BEGIN
 90
        5
170
     1
 91
        0
 92
        0
 62
   257
 93
        1
300
CONTENTFORMAT
  1
CONTENTFORMAT_BEGIN
 90
        0
 91
        0
 92
      512
 93
        0
300

 40
0.0
140
1.0
 94
        5
 62
     0
340
55
144
0.18
309
CONTENTFORMAT_END
171
     0
 94
        0
309
TABLEFORMAT_END
  1
CELLSTYLE_BEGIN
 90
        2
 91
        1
300
_HEADER
309
CELLSTYLE_END
300
CELLSTYLE
  1
TABLEFORMAT_BEGIN
 90
        5
170
     1
 91
        0
 92
        0
 62
   257
 93
        1
300
CONTENTFORMAT
  1
CONTENTFORMAT_BEGIN
 90
        0
 91
        0
 92
      512
 93
        0
300

 40
0.0
140
1.0
 94
        2
 62
     0
340
55
144
0.18
309
CONTENTFORMAT_END
171
     0
 94
        0
309
TABLEFORMAT_END
  1
CELLSTYLE_BEGIN
 90
        3
 91
        2
300
_DATA
309
CELLSTYLE_END
  0
ENDSEC
  0
EOF
